# Blender v2.90.0 OBJ File: 'Nature Kit.blend'
# www.blender.org
mtllib Root_3.mtl
o Sphere.021_Sphere.020
v -0.170476 0.200631 0.083958
v -1.054963 -0.558591 0.167108
v -0.106221 0.306747 -0.019270
v -0.230929 0.222048 0.038080
v -0.367367 -0.018202 0.050199
v -0.742353 -0.354817 0.049865
v -1.104642 -0.529762 0.129675
v -1.319261 -0.868425 0.339877
v -0.252780 0.230170 -0.030997
v -0.404036 0.009244 -0.048662
v -0.768243 -0.309198 -0.032400
v -1.132576 -0.538168 0.075861
v -1.329342 -0.888812 0.316267
v -0.228499 0.226743 -0.095491
v -0.357210 -0.016050 -0.144346
v -0.732240 -0.338422 -0.112438
v -1.119722 -0.580323 0.037566
v -1.321492 -0.919680 0.307922
v -1.344104 -0.934649 0.384977
v -0.147370 0.202678 -0.129118
v -0.250553 -0.086820 -0.177961
v -0.670125 -0.408855 -0.133129
v -1.074577 -0.629213 0.037532
v -1.299606 -0.944203 0.320119
v -0.059841 0.174159 -0.090966
v -0.171981 -0.166146 -0.151849
v -0.620649 -0.473109 -0.094605
v -1.026731 -0.655549 0.074563
v -1.275823 -0.946749 0.346857
v -0.044270 0.163233 -0.009311
v -0.158827 -0.215542 -0.023705
v -0.610397 -0.498020 -0.021631
v -1.002351 -0.645088 0.127643
v -1.264792 -0.924921 0.372141
v -0.093174 0.176200 0.066856
v -0.211945 -0.160904 0.094432
v -0.637304 -0.479401 0.043756
v -1.013744 -0.604953 0.165345
v -1.273670 -0.892540 0.379935
v -0.271029 -0.077615 0.104148
v -0.687878 -0.425010 0.073354
v -1.296522 -0.869564 0.366193
vt 0.750000 0.666667
vt 0.750000 0.833333
vt 0.625000 0.833333
vt 0.625000 0.666667
vt 0.750000 0.166667
vt 0.750000 0.333333
vt 0.625000 0.333333
vt 0.625000 0.166667
vt 0.750000 0.500000
vt 0.625000 0.500000
vt 0.687500 1.000000
vt 0.687500 0.000000
vt 0.500000 0.333333
vt 0.500000 0.166667
vt 0.500000 0.666667
vt 0.500000 0.500000
vt 0.562500 1.000000
vt 0.500000 0.833333
vt 0.562500 0.000000
vt 0.375000 0.333333
vt 0.375000 0.166667
vt 0.375000 0.666667
vt 0.375000 0.500000
vt 0.437500 1.000000
vt 0.375000 0.833333
vt 0.437500 0.000000
vt 0.250000 0.666667
vt 0.250000 0.500000
vt 0.312500 1.000000
vt 0.250000 0.833333
vt 0.312500 0.000000
vt 0.250000 0.166667
vt 0.250000 0.333333
vt 0.187500 1.000000
vt 0.125000 0.833333
vt 0.187500 0.000000
vt 0.125000 0.166667
vt 0.125000 0.500000
vt 0.125000 0.333333
vt 0.125000 0.666667
vt 0.062500 0.000000
vt 0.000000 0.166667
vt 0.000000 0.500000
vt 0.000000 0.333333
vt 0.000000 0.833333
vt 0.000000 0.666667
vt 0.062500 1.000000
vt 0.937500 0.000000
vt 1.000000 0.166667
vt 0.875000 0.166667
vt 1.000000 0.333333
vt 1.000000 0.500000
vt 0.875000 0.500000
vt 0.875000 0.333333
vt 1.000000 0.666667
vt 1.000000 0.833333
vt 0.875000 0.833333
vt 0.875000 0.666667
vt 0.937500 1.000000
vt 0.812500 0.000000
vt 0.812500 1.000000
vn -0.0604 0.0587 0.9964
vn -0.0420 0.3969 0.9169
vn -0.5257 0.6124 0.5904
vn -0.5320 0.4307 0.7290
vn -0.1888 0.5419 0.8189
vn 0.0218 0.4511 0.8922
vn -0.4415 0.7263 0.5268
vn -0.7009 0.6003 0.3852
vn 0.0470 0.1124 0.9925
vn -0.3196 0.6169 0.7192
vn 0.3341 0.9417 0.0390
vn -0.6977 -0.3864 0.6032
vn -0.7630 0.6164 -0.1943
vn -0.9489 0.2353 -0.2103
vn -0.7562 0.6536 -0.0307
vn -0.6191 0.7795 -0.0948
vn -0.6910 0.7228 -0.0050
vn -0.6034 0.0585 -0.7953
vn -0.7221 -0.3694 -0.5849
vn -0.4447 0.3948 -0.8039
vn -0.4516 0.3150 -0.8347
vn -0.4244 0.6381 -0.6424
vn 0.0735 0.0060 -0.9973
vn -0.0957 -0.2510 -0.9632
vn 0.1536 0.4037 -0.9019
vn -0.2177 -0.8434 -0.4910
vn -0.1490 -0.4945 -0.8563
vn 0.8073 0.1567 -0.5688
vn 0.3078 -0.9514 -0.0139
vn 0.2590 -0.7270 -0.6359
vn 0.3178 -0.8176 -0.4801
vn 0.6075 -0.4105 -0.6800
vn 0.5692 -0.5681 0.5944
vn 0.4649 -0.8800 0.0969
vn 0.6324 -0.7279 0.2650
vn 0.9838 0.0285 0.1768
vn 0.7704 -0.6285 0.1069
vn 0.3446 0.0855 0.9348
vn 0.3591 -0.5091 0.7822
vn 0.4766 -0.1168 0.8713
vn 0.6140 0.1548 0.7740
vn 0.4730 -0.3679 0.8005
usemtl Bark_Root
s 1
f 40/1/1 1/2/2 4/3/3 5/4/4
f 42/5/5 2/6/6 7/7/7 8/8/8
f 41/9/9 40/1/1 5/4/4 6/10/10
f 1/2/2 3/11/11 4/3/3
f 19/12/12 42/5/5 8/8/8
f 2/6/6 41/9/9 6/10/10 7/7/7
f 8/8/8 7/7/7 12/13/13 13/14/14
f 6/10/10 5/4/4 10/15/15 11/16/16
f 4/3/3 3/17/11 9/18/17
f 19/19/12 8/8/8 13/14/14
f 7/7/7 6/10/10 11/16/16 12/13/13
f 5/4/4 4/3/3 9/18/17 10/15/15
f 13/14/14 12/13/13 17/20/18 18/21/19
f 11/16/16 10/15/15 15/22/20 16/23/21
f 9/18/17 3/24/11 14/25/22
f 19/26/12 13/14/14 18/21/19
f 12/13/13 11/16/16 16/23/21 17/20/18
f 10/15/15 9/18/17 14/25/22 15/22/20
f 16/23/21 15/22/20 21/27/23 22/28/24
f 14/25/22 3/29/11 20/30/25
f 19/31/12 18/21/19 24/32/26
f 17/20/18 16/23/21 22/28/24 23/33/27
f 15/22/20 14/25/22 20/30/25 21/27/23
f 18/21/19 17/20/18 23/33/27 24/32/26
f 20/30/25 3/34/11 25/35/28
f 19/36/12 24/32/26 29/37/29
f 23/33/27 22/28/24 27/38/30 28/39/31
f 21/27/23 20/30/25 25/35/28 26/40/32
f 24/32/26 23/33/27 28/39/31 29/37/29
f 22/28/24 21/27/23 26/40/32 27/38/30
f 19/41/12 29/37/29 34/42/33
f 28/39/31 27/38/30 32/43/34 33/44/35
f 26/40/32 25/35/28 30/45/36 31/46/37
f 29/37/29 28/39/31 33/44/35 34/42/33
f 27/38/30 26/40/32 31/46/37 32/43/34
f 25/35/28 3/47/11 30/45/36
f 19/48/12 34/49/33 39/50/38
f 33/51/35 32/52/34 37/53/39 38/54/40
f 31/55/37 30/56/36 35/57/41 36/58/42
f 34/49/33 33/51/35 38/54/40 39/50/38
f 32/52/34 31/55/37 36/58/42 37/53/39
f 30/56/36 3/59/11 35/57/41
f 19/60/12 39/50/38 42/5/5
f 38/54/40 37/53/39 41/9/9 2/6/6
f 36/58/42 35/57/41 1/2/2 40/1/1
f 39/50/38 38/54/40 2/6/6 42/5/5
f 37/53/39 36/58/42 40/1/1 41/9/9
f 35/57/41 3/61/11 1/2/2
