# Blender v2.90.0 OBJ File: 'Nature Kit.blend'
# www.blender.org
mtllib Root_5.mtl
o Sphere.017_Sphere.011
v -0.154334 0.176021 0.137228
v -0.894064 -0.885068 0.121661
v -0.092429 0.311391 -0.004998
v -0.239158 0.203342 0.090564
v -0.352972 -0.045708 0.100205
v -0.709544 -0.405927 0.158891
v -0.943596 -0.845976 0.098281
v -1.244028 -1.187522 0.092458
v -0.279576 0.213703 0.007446
v -0.409510 -0.037541 0.010360
v -0.735653 -0.365106 0.081756
v -0.963428 -0.827312 0.041429
v -1.254698 -1.175206 0.053066
v -0.260920 0.209332 -0.078464
v -0.373473 -0.062689 -0.087692
v -0.709492 -0.371309 0.002952
v -0.939270 -0.841198 -0.015878
v -1.243387 -1.188144 0.014008
v -1.340151 -1.312372 0.046845
v -0.164781 0.178632 -0.135983
v -0.259284 -0.112826 -0.134577
v -0.658267 -0.411932 -0.020735
v -0.886782 -0.877846 -0.038674
v -1.215882 -1.220161 -0.002879
v -0.047222 0.142251 -0.104103
v -0.156643 -0.171466 -0.121720
v -0.614680 -0.457146 0.012865
v -0.839522 -0.914838 -0.014521
v -1.187454 -1.252844 0.014503
v -0.012392 0.128313 -0.003944
v -0.106714 -0.203905 -0.002595
v -0.602248 -0.483568 0.082041
v -0.823275 -0.931689 0.042552
v -1.175667 -1.266003 0.056685
v -0.059952 0.144856 0.101274
v -0.156839 -0.148242 0.119294
v -0.621384 -0.482503 0.146516
v -0.845591 -0.919044 0.098336
v -1.188240 -1.251298 0.096936
v -0.239461 -0.077144 0.139149
v -0.662386 -0.453418 0.178084
v -1.216934 -1.218692 0.111018
vt 0.750000 0.666667
vt 0.750000 0.833333
vt 0.625000 0.833333
vt 0.625000 0.666667
vt 0.750000 0.166667
vt 0.750000 0.333333
vt 0.625000 0.333333
vt 0.625000 0.166667
vt 0.750000 0.500000
vt 0.625000 0.500000
vt 0.687500 1.000000
vt 0.687500 0.000000
vt 0.500000 0.333333
vt 0.500000 0.166667
vt 0.500000 0.666667
vt 0.500000 0.500000
vt 0.562500 1.000000
vt 0.500000 0.833333
vt 0.562500 0.000000
vt 0.375000 0.333333
vt 0.375000 0.166667
vt 0.375000 0.666667
vt 0.375000 0.500000
vt 0.437500 1.000000
vt 0.375000 0.833333
vt 0.437500 0.000000
vt 0.250000 0.666667
vt 0.250000 0.500000
vt 0.312500 1.000000
vt 0.250000 0.833333
vt 0.312500 0.000000
vt 0.250000 0.166667
vt 0.250000 0.333333
vt 0.187500 1.000000
vt 0.125000 0.833333
vt 0.187500 0.000000
vt 0.125000 0.166667
vt 0.125000 0.500000
vt 0.125000 0.333333
vt 0.125000 0.666667
vt 0.062500 0.000000
vt 0.000000 0.166667
vt 0.000000 0.500000
vt 0.000000 0.333333
vt 0.000000 0.833333
vt 0.000000 0.666667
vt 0.062500 1.000000
vt 0.937500 0.000000
vt 1.000000 0.166667
vt 0.875000 0.166667
vt 1.000000 0.333333
vt 1.000000 0.500000
vt 0.875000 0.500000
vt 0.875000 0.333333
vt 1.000000 0.666667
vt 1.000000 0.833333
vt 0.875000 0.833333
vt 0.875000 0.666667
vt 0.937500 1.000000
vt 0.812500 0.000000
vt 0.812500 1.000000
vn 0.0278 0.0233 0.9993
vn 0.0560 0.3606 0.9310
vn -0.4744 0.5716 0.6695
vn -0.4926 0.4020 0.7718
vn -0.1578 -0.1198 0.9802
vn 0.0111 -0.0822 0.9966
vn -0.5761 0.3385 0.7439
vn -0.6021 0.3706 0.7071
vn -0.0244 -0.0093 0.9996
vn -0.5350 0.3856 0.7517
vn 0.3363 0.9417 -0.0100
vn -0.7991 -0.5997 -0.0424
vn -0.8399 0.5426 0.0056
vn -0.8068 0.5908 0.0000
vn -0.8033 0.5922 0.0629
vn -0.8037 0.5890 0.0841
vn -0.7314 0.6758 0.0911
vn -0.5582 0.3592 -0.7479
vn -0.5904 0.3673 -0.7186
vn -0.5973 0.3199 -0.7354
vn -0.6172 0.4021 -0.6763
vn -0.5564 0.5874 -0.5876
vn -0.0998 -0.0863 -0.9912
vn -0.1008 -0.0541 -0.9934
vn -0.0134 0.3624 -0.9319
vn -0.1218 -0.1440 -0.9820
vn 0.0470 -0.0481 -0.9977
vn 0.6891 0.1434 -0.7103
vn 0.3253 -0.6537 -0.6832
vn 0.4562 -0.5101 -0.7291
vn 0.5960 -0.4298 -0.6782
vn 0.4768 -0.4552 -0.7519
vn 0.5035 -0.8635 0.0306
vn 0.7356 -0.6764 0.0361
vn 0.8035 -0.5953 -0.0042
vn 0.9989 0.0328 0.0325
vn 0.7810 -0.6245 -0.0035
vn 0.2928 -0.6266 0.7222
vn 0.5105 -0.4309 0.7441
vn 0.5762 -0.4605 0.6752
vn 0.6915 0.1437 0.7079
vn 0.5676 -0.3766 0.7321
usemtl Bark_Root
s 1
f 40/1/1 1/2/2 4/3/3 5/4/4
f 42/5/5 2/6/6 7/7/7 8/8/8
f 41/9/9 40/1/1 5/4/4 6/10/10
f 1/2/2 3/11/11 4/3/3
f 19/12/12 42/5/5 8/8/8
f 2/6/6 41/9/9 6/10/10 7/7/7
f 8/8/8 7/7/7 12/13/13 13/14/14
f 6/10/10 5/4/4 10/15/15 11/16/16
f 4/3/3 3/17/11 9/18/17
f 19/19/12 8/8/8 13/14/14
f 7/7/7 6/10/10 11/16/16 12/13/13
f 5/4/4 4/3/3 9/18/17 10/15/15
f 13/14/14 12/13/13 17/20/18 18/21/19
f 11/16/16 10/15/15 15/22/20 16/23/21
f 9/18/17 3/24/11 14/25/22
f 19/26/12 13/14/14 18/21/19
f 12/13/13 11/16/16 16/23/21 17/20/18
f 10/15/15 9/18/17 14/25/22 15/22/20
f 16/23/21 15/22/20 21/27/23 22/28/24
f 14/25/22 3/29/11 20/30/25
f 19/31/12 18/21/19 24/32/26
f 17/20/18 16/23/21 22/28/24 23/33/27
f 15/22/20 14/25/22 20/30/25 21/27/23
f 18/21/19 17/20/18 23/33/27 24/32/26
f 20/30/25 3/34/11 25/35/28
f 19/36/12 24/32/26 29/37/29
f 23/33/27 22/28/24 27/38/30 28/39/31
f 21/27/23 20/30/25 25/35/28 26/40/32
f 24/32/26 23/33/27 28/39/31 29/37/29
f 22/28/24 21/27/23 26/40/32 27/38/30
f 19/41/12 29/37/29 34/42/33
f 28/39/31 27/38/30 32/43/34 33/44/35
f 26/40/32 25/35/28 30/45/36 31/46/37
f 29/37/29 28/39/31 33/44/35 34/42/33
f 27/38/30 26/40/32 31/46/37 32/43/34
f 25/35/28 3/47/11 30/45/36
f 19/48/12 34/49/33 39/50/38
f 33/51/35 32/52/34 37/53/39 38/54/40
f 31/55/37 30/56/36 35/57/41 36/58/42
f 34/49/33 33/51/35 38/54/40 39/50/38
f 32/52/34 31/55/37 36/58/42 37/53/39
f 30/56/36 3/59/11 35/57/41
f 19/60/12 39/50/38 42/5/5
f 38/54/40 37/53/39 41/9/9 2/6/6
f 36/58/42 35/57/41 1/2/2 40/1/1
f 39/50/38 38/54/40 2/6/6 42/5/5
f 37/53/39 36/58/42 40/1/1 41/9/9
f 35/57/41 3/61/11 1/2/2
