# Blender v2.90.0 OBJ File: 'Nature Kit.blend'
# www.blender.org
mtllib Root_2.mtl
o Sphere.022_Sphere.021
v -0.159338 0.290693 0.140820
v -1.120158 0.012206 -0.046146
v -0.128009 0.365904 -0.005044
v -0.246333 0.318714 0.092963
v -0.418421 0.109854 0.054314
v -0.752731 -0.004501 0.020351
v -1.112830 0.068996 -0.067425
v -1.343509 -0.011415 -0.202554
v -0.287785 0.329339 0.007718
v -0.478152 0.132032 -0.012500
v -0.761009 0.042330 -0.047480
v -1.090989 0.096077 -0.110598
v -1.326834 0.002188 -0.226290
v -0.268652 0.324857 -0.080390
v -0.432360 0.118410 -0.087922
v -0.754355 0.021646 -0.102781
v -1.066657 0.075304 -0.150112
v -1.308386 -0.009352 -0.246464
v -1.423689 -0.097915 -0.305470
v -0.170053 0.293371 -0.139382
v -0.302923 0.071357 -0.126008
v -0.738591 -0.039909 -0.121537
v -1.054306 0.020846 -0.161754
v -1.298565 -0.040506 -0.251809
v -0.049486 0.256060 -0.106685
v -0.201483 0.014487 -0.116250
v -0.724167 -0.100675 -0.090807
v -1.061750 -0.033178 -0.139979
v -1.303849 -0.073626 -0.237693
v -0.013765 0.241765 -0.003964
v -0.168606 -0.026386 -0.023780
v -0.717453 -0.121549 -0.042851
v -1.084420 -0.057021 -0.097215
v -1.321541 -0.088295 -0.212123
v -0.062542 0.258730 0.103946
v -0.218281 0.008334 0.067705
v -0.731406 -0.106607 0.012572
v -1.108031 -0.038093 -0.058637
v -1.340536 -0.075131 -0.191404
v -0.289630 0.067972 0.080662
v -0.735160 -0.054853 0.037883
v -1.349442 -0.043065 -0.187985
vt 0.750000 0.666667
vt 0.750000 0.833333
vt 0.625000 0.833333
vt 0.625000 0.666667
vt 0.750000 0.166667
vt 0.750000 0.333333
vt 0.625000 0.333333
vt 0.625000 0.166667
vt 0.750000 0.500000
vt 0.625000 0.500000
vt 0.687500 1.000000
vt 0.687500 0.000000
vt 0.500000 0.333333
vt 0.500000 0.166667
vt 0.500000 0.666667
vt 0.500000 0.500000
vt 0.562500 1.000000
vt 0.500000 0.833333
vt 0.562500 0.000000
vt 0.375000 0.333333
vt 0.375000 0.166667
vt 0.375000 0.666667
vt 0.375000 0.500000
vt 0.437500 1.000000
vt 0.375000 0.833333
vt 0.437500 0.000000
vt 0.250000 0.666667
vt 0.250000 0.500000
vt 0.312500 1.000000
vt 0.250000 0.833333
vt 0.312500 0.000000
vt 0.250000 0.166667
vt 0.250000 0.333333
vt 0.187500 1.000000
vt 0.125000 0.833333
vt 0.187500 0.000000
vt 0.125000 0.166667
vt 0.125000 0.500000
vt 0.125000 0.333333
vt 0.125000 0.666667
vt 0.062500 0.000000
vt 0.000000 0.166667
vt 0.000000 0.500000
vt 0.000000 0.333333
vt 0.000000 0.833333
vt 0.000000 0.666667
vt 0.062500 1.000000
vt 0.937500 0.000000
vt 1.000000 0.166667
vt 0.875000 0.166667
vt 1.000000 0.333333
vt 1.000000 0.500000
vt 0.875000 0.500000
vt 0.875000 0.333333
vt 1.000000 0.666667
vt 1.000000 0.833333
vt 0.875000 0.833333
vt 0.875000 0.666667
vt 0.937500 1.000000
vt 0.812500 0.000000
vt 0.812500 1.000000
vn -0.0778 -0.1738 0.9817
vn 0.0903 0.3611 0.9281
vn -0.3433 0.6247 0.7013
vn -0.3867 0.3681 0.8455
vn -0.7125 0.0604 0.6991
vn -0.3851 0.0581 0.9210
vn -0.3155 0.6745 0.6674
vn -0.6894 0.6229 0.3697
vn -0.1480 -0.0929 0.9846
vn -0.1715 0.5289 0.8311
vn 0.2986 0.9543 -0.0095
vn -0.7052 -0.3662 -0.6071
vn -0.0925 0.9953 0.0278
vn -0.4098 0.8826 -0.2304
vn -0.5080 0.8505 0.1361
vn -0.0898 0.9855 0.1437
vn -0.5455 0.8302 0.1145
vn 0.1618 0.6937 -0.7018
vn 0.0472 0.5944 -0.8027
vn -0.3590 0.5589 -0.7474
vn 0.0254 0.6739 -0.7384
vn -0.3869 0.7164 -0.5805
vn -0.0506 -0.0389 -0.9980
vn 0.0385 -0.0619 -0.9973
vn 0.0620 0.4493 -0.8912
vn 0.3832 -0.0627 -0.9215
vn 0.2384 -0.0274 -0.9708
vn 0.7044 0.1916 -0.6834
vn 0.4095 -0.7012 -0.5836
vn 0.0331 -0.7004 -0.7129
vn 0.1618 -0.6981 -0.6974
vn 0.3826 -0.5377 -0.7513
vn 0.0620 -0.9950 0.0777
vn 0.0225 -0.9985 -0.0496
vn -0.0383 -0.9992 -0.0025
vn 0.9973 0.0488 0.0540
vn 0.5871 -0.8095 0.0016
vn -0.4471 -0.6275 0.6374
vn -0.0931 -0.7365 0.6700
vn -0.2804 -0.6439 0.7118
vn 0.6716 0.1514 0.7253
vn 0.3239 -0.6162 0.7179
usemtl Bark_Root
s 1
f 40/1/1 1/2/2 4/3/3 5/4/4
f 42/5/5 2/6/6 7/7/7 8/8/8
f 41/9/9 40/1/1 5/4/4 6/10/10
f 1/2/2 3/11/11 4/3/3
f 19/12/12 42/5/5 8/8/8
f 2/6/6 41/9/9 6/10/10 7/7/7
f 8/8/8 7/7/7 12/13/13 13/14/14
f 6/10/10 5/4/4 10/15/15 11/16/16
f 4/3/3 3/17/11 9/18/17
f 19/19/12 8/8/8 13/14/14
f 7/7/7 6/10/10 11/16/16 12/13/13
f 5/4/4 4/3/3 9/18/17 10/15/15
f 13/14/14 12/13/13 17/20/18 18/21/19
f 11/16/16 10/15/15 15/22/20 16/23/21
f 9/18/17 3/24/11 14/25/22
f 19/26/12 13/14/14 18/21/19
f 12/13/13 11/16/16 16/23/21 17/20/18
f 10/15/15 9/18/17 14/25/22 15/22/20
f 16/23/21 15/22/20 21/27/23 22/28/24
f 14/25/22 3/29/11 20/30/25
f 19/31/12 18/21/19 24/32/26
f 17/20/18 16/23/21 22/28/24 23/33/27
f 15/22/20 14/25/22 20/30/25 21/27/23
f 18/21/19 17/20/18 23/33/27 24/32/26
f 20/30/25 3/34/11 25/35/28
f 19/36/12 24/32/26 29/37/29
f 23/33/27 22/28/24 27/38/30 28/39/31
f 21/27/23 20/30/25 25/35/28 26/40/32
f 24/32/26 23/33/27 28/39/31 29/37/29
f 22/28/24 21/27/23 26/40/32 27/38/30
f 19/41/12 29/37/29 34/42/33
f 28/39/31 27/38/30 32/43/34 33/44/35
f 26/40/32 25/35/28 30/45/36 31/46/37
f 29/37/29 28/39/31 33/44/35 34/42/33
f 27/38/30 26/40/32 31/46/37 32/43/34
f 25/35/28 3/47/11 30/45/36
f 19/48/12 34/49/33 39/50/38
f 33/51/35 32/52/34 37/53/39 38/54/40
f 31/55/37 30/56/36 35/57/41 36/58/42
f 34/49/33 33/51/35 38/54/40 39/50/38
f 32/52/34 31/55/37 36/58/42 37/53/39
f 30/56/36 3/59/11 35/57/41
f 19/60/12 39/50/38 42/5/5
f 38/54/40 37/53/39 41/9/9 2/6/6
f 36/58/42 35/57/41 1/2/2 40/1/1
f 39/50/38 38/54/40 2/6/6 42/5/5
f 37/53/39 36/58/42 40/1/1 41/9/9
f 35/57/41 3/61/11 1/2/2
