# Blender v2.90.0 OBJ File: 'Nature Kit.blend'
# www.blender.org
mtllib Root_4.mtl
o Sphere.020_Sphere.014
v -0.155886 0.189746 0.125582
v -1.006549 -0.755211 0.091575
v -0.099303 0.313478 -0.004415
v -0.233418 0.214718 0.082931
v -0.368704 0.003901 0.127860
v -0.692403 -0.279309 0.162223
v -1.044683 -0.699711 0.060549
v -1.463607 -0.980490 -0.088159
v -0.270361 0.224188 0.006959
v -0.431948 0.038149 0.012483
v -0.727307 -0.232001 0.070921
v -1.053180 -0.675142 -0.002038
v -1.454633 -0.967063 -0.122755
v -0.253309 0.220193 -0.071566
v -0.391539 0.006587 -0.114153
v -0.710213 -0.257459 -0.022965
v -1.024646 -0.697886 -0.059440
v -1.437449 -0.982258 -0.153486
v -1.502363 -1.035662 -0.139772
v -0.165435 0.192133 -0.124141
v -0.265982 -0.081722 -0.175045
v -0.661651 -0.325035 -0.051625
v -0.977161 -0.752358 -0.076718
v -1.421489 -1.018601 -0.163106
v -0.057983 0.158879 -0.095001
v -0.164236 -0.180706 -0.157095
v -0.613880 -0.388621 -0.012032
v -0.940970 -0.804926 -0.045143
v -1.416470 -1.055415 -0.143968
v -0.026147 0.146139 -0.003453
v -0.124697 -0.242343 -0.001293
v -0.593491 -0.415450 0.070000
v -0.935655 -0.826584 0.017172
v -1.425914 -1.069939 -0.106836
v -0.069619 0.161260 0.092720
v -0.168791 -0.174166 0.154206
v -0.605655 -0.399999 0.146576
v -0.962418 -0.805716 0.073204
v -1.443948 -1.052853 -0.075299
v -0.239964 -0.070235 0.176944
v -0.643222 -0.348392 0.184421
v -1.459484 -1.015565 -0.068257
vt 0.750000 0.666667
vt 0.750000 0.833333
vt 0.625000 0.833333
vt 0.625000 0.666667
vt 0.750000 0.166667
vt 0.750000 0.333333
vt 0.625000 0.333333
vt 0.625000 0.166667
vt 0.750000 0.500000
vt 0.625000 0.500000
vt 0.687500 1.000000
vt 0.687500 0.000000
vt 0.500000 0.333333
vt 0.500000 0.166667
vt 0.500000 0.666667
vt 0.500000 0.500000
vt 0.562500 1.000000
vt 0.500000 0.833333
vt 0.562500 0.000000
vt 0.375000 0.333333
vt 0.375000 0.166667
vt 0.375000 0.666667
vt 0.375000 0.500000
vt 0.437500 1.000000
vt 0.375000 0.833333
vt 0.437500 0.000000
vt 0.250000 0.666667
vt 0.250000 0.500000
vt 0.312500 1.000000
vt 0.250000 0.833333
vt 0.312500 0.000000
vt 0.250000 0.166667
vt 0.250000 0.333333
vt 0.187500 1.000000
vt 0.125000 0.833333
vt 0.187500 0.000000
vt 0.125000 0.166667
vt 0.125000 0.500000
vt 0.125000 0.333333
vt 0.125000 0.666667
vt 0.062500 0.000000
vt 0.000000 0.166667
vt 0.000000 0.500000
vt 0.000000 0.333333
vt 0.000000 0.833333
vt 0.000000 0.666667
vt 0.062500 1.000000
vt 0.937500 0.000000
vt 1.000000 0.166667
vt 0.875000 0.166667
vt 1.000000 0.333333
vt 1.000000 0.500000
vt 0.875000 0.500000
vt 0.875000 0.333333
vt 1.000000 0.666667
vt 1.000000 0.833333
vt 0.875000 0.833333
vt 0.875000 0.666667
vt 0.937500 1.000000
vt 0.812500 0.000000
vt 0.812500 1.000000
vn 0.0919 0.0756 0.9929
vn 0.1104 0.4265 0.8977
vn -0.4047 0.6436 0.6496
vn -0.4107 0.4700 0.7813
vn -0.5787 -0.1157 0.8073
vn -0.1840 -0.1159 0.9760
vn -0.5862 0.4154 0.6956
vn -0.7402 0.4698 0.4809
vn -0.0756 -0.0382 0.9964
vn -0.4844 0.4242 0.7651
vn 0.3363 0.9417 -0.0100
vn -0.8971 -0.2680 -0.3513
vn -0.6986 0.7141 -0.0441
vn -0.6504 0.7300 -0.2098
vn -0.7181 0.6914 0.0794
vn -0.7319 0.6743 0.0977
vn -0.6444 0.7590 0.0928
vn -0.3420 0.4900 -0.8018
vn -0.3172 0.4659 -0.8260
vn -0.5412 0.4283 -0.7236
vn -0.5640 0.4565 -0.6881
vn -0.4805 0.6703 -0.5655
vn -0.0701 0.0009 -0.9975
vn -0.0953 -0.0596 -0.9937
vn 0.0385 0.4321 -0.9010
vn 0.0152 -0.1267 -0.9918
vn 0.1896 -0.0531 -0.9804
vn 0.7230 0.1835 -0.6660
vn 0.1671 -0.7349 -0.6573
vn 0.3737 -0.5904 -0.7153
vn 0.5606 -0.5615 -0.6086
vn 0.4781 -0.4494 -0.7546
vn 0.0471 -0.9985 0.0285
vn 0.5817 -0.8126 0.0372
vn 0.6042 -0.7924 0.0832
vn 0.9980 0.0537 0.0312
vn 0.7258 -0.6878 -0.0105
vn -0.2682 -0.7214 0.6384
vn 0.3660 -0.5522 0.7490
vn 0.3019 -0.6095 0.7330
vn 0.7288 0.1807 0.6604
vn 0.5596 -0.4092 0.7206
usemtl Bark_Root
s 1
f 40/1/1 1/2/2 4/3/3 5/4/4
f 42/5/5 2/6/6 7/7/7 8/8/8
f 41/9/9 40/1/1 5/4/4 6/10/10
f 1/2/2 3/11/11 4/3/3
f 19/12/12 42/5/5 8/8/8
f 2/6/6 41/9/9 6/10/10 7/7/7
f 8/8/8 7/7/7 12/13/13 13/14/14
f 6/10/10 5/4/4 10/15/15 11/16/16
f 4/3/3 3/17/11 9/18/17
f 19/19/12 8/8/8 13/14/14
f 7/7/7 6/10/10 11/16/16 12/13/13
f 5/4/4 4/3/3 9/18/17 10/15/15
f 13/14/14 12/13/13 17/20/18 18/21/19
f 11/16/16 10/15/15 15/22/20 16/23/21
f 9/18/17 3/24/11 14/25/22
f 19/26/12 13/14/14 18/21/19
f 12/13/13 11/16/16 16/23/21 17/20/18
f 10/15/15 9/18/17 14/25/22 15/22/20
f 16/23/21 15/22/20 21/27/23 22/28/24
f 14/25/22 3/29/11 20/30/25
f 19/31/12 18/21/19 24/32/26
f 17/20/18 16/23/21 22/28/24 23/33/27
f 15/22/20 14/25/22 20/30/25 21/27/23
f 18/21/19 17/20/18 23/33/27 24/32/26
f 20/30/25 3/34/11 25/35/28
f 19/36/12 24/32/26 29/37/29
f 23/33/27 22/28/24 27/38/30 28/39/31
f 21/27/23 20/30/25 25/35/28 26/40/32
f 24/32/26 23/33/27 28/39/31 29/37/29
f 22/28/24 21/27/23 26/40/32 27/38/30
f 19/41/12 29/37/29 34/42/33
f 28/39/31 27/38/30 32/43/34 33/44/35
f 26/40/32 25/35/28 30/45/36 31/46/37
f 29/37/29 28/39/31 33/44/35 34/42/33
f 27/38/30 26/40/32 31/46/37 32/43/34
f 25/35/28 3/47/11 30/45/36
f 19/48/12 34/49/33 39/50/38
f 33/51/35 32/52/34 37/53/39 38/54/40
f 31/55/37 30/56/36 35/57/41 36/58/42
f 34/49/33 33/51/35 38/54/40 39/50/38
f 32/52/34 31/55/37 36/58/42 37/53/39
f 30/56/36 3/59/11 35/57/41
f 19/60/12 39/50/38 42/5/5
f 38/54/40 37/53/39 41/9/9 2/6/6
f 36/58/42 35/57/41 1/2/2 40/1/1
f 39/50/38 38/54/40 2/6/6 42/5/5
f 37/53/39 36/58/42 40/1/1 41/9/9
f 35/57/41 3/61/11 1/2/2
