# Blender v2.90.0 OBJ File: 'Nature Kit.blend'
# www.blender.org
mtllib Shell_Slate.mtl
o Shell_Slate_Top.001_Cube.237
v -0.029662 0.001158 0.037063
v -0.029662 0.001158 -0.037063
v -0.054503 0.001158 -0.009118
v -0.054503 0.001158 0.009118
v -0.045810 0.001158 0.025822
v -0.045810 0.001158 -0.025822
v 0.048789 0.004080 -0.018897
v 0.048789 0.004080 0.018897
v -0.004546 0.001158 -0.042908
v -0.004546 0.001158 0.042908
v -0.019805 0.013517 -0.024371
v 0.005534 0.017142 -0.020599
v -0.024926 0.016998 -0.008464
v 0.004651 0.021171 -0.007019
v -0.024926 0.016998 0.008464
v 0.004651 0.021171 0.007019
v -0.019805 0.013517 0.024371
v 0.005534 0.017142 0.020599
v 0.029231 0.010642 -0.016095
v 0.028762 0.016337 -0.005448
v 0.029231 0.010642 0.016095
v 0.053412 0.008934 0.003001
v 0.033731 0.002445 0.021884
v 0.033731 0.002445 -0.021884
v 0.028762 0.016337 0.005448
v 0.053412 0.008934 -0.003001
v 0.049543 0.011552 -0.004851
v 0.049543 0.011552 0.004851
vt 0.283333 0.733333
vt 0.266667 1.000000
vt 0.116667 1.000000
vt 0.883333 1.000000
vt 0.733333 1.000000
vt 0.716667 0.733333
vt 0.583333 1.000000
vt 0.583333 0.750000
vt 0.416667 1.000000
vt 0.416667 0.750000
vt 0.550000 0.050000
vt 0.683333 0.033333
vt 0.850000 0.183333
vt 0.450000 0.050000
vt 0.316667 0.033333
vt 0.466667 0.000000
vt 0.433333 0.233333
vt 0.416667 0.483333
vt 0.316667 0.500000
vt 0.233333 0.216667
vt 0.566667 0.233333
vt 0.583333 0.483333
vt 0.750000 0.216667
vt 0.683333 0.500000
vt 0.150000 0.183333
vt 1.000000 0.850000
vt -0.000000 0.850000
vt 0.533333 0.000000
vn -0.2102 0.8771 0.4318
vn -0.4072 0.8476 0.3401
vn -0.2629 0.7853 0.5605
vn -0.2629 0.7853 -0.5605
vn -0.4072 0.8476 -0.3401
vn -0.2102 0.8771 -0.4318
vn -0.4570 0.8815 -0.1185
vn -0.3063 0.9420 -0.1373
vn -0.4570 0.8815 0.1185
vn -0.3063 0.9420 0.1373
vn 0.4131 0.8720 -0.2624
vn 0.0876 0.8775 -0.4715
vn 0.2705 0.7259 -0.6323
vn 0.4131 0.8720 0.2624
vn 0.0876 0.8775 0.4715
vn 0.6019 0.7847 0.1483
vn 0.2282 0.9527 0.2005
vn 0.0482 0.9865 0.1562
vn 0.1348 0.8694 0.4754
vn 0.2969 0.7782 0.5534
vn 0.2282 0.9527 -0.2005
vn 0.0482 0.9865 -0.1562
vn 0.2969 0.7782 -0.5534
vn 0.1348 0.8694 -0.4754
vn 0.2705 0.7259 0.6323
vn 0.0482 0.7755 -0.6294
vn 0.0482 0.7755 0.6294
vn 0.6019 0.7847 -0.1483
usemtl Shell_Slate
s 1
f 17/1/1 5/2/2 1/3/3
f 2/4/4 6/5/5 11/6/6
f 11/6/6 6/5/5 3/7/7 13/8/8
f 13/8/8 3/7/7 4/9/9 15/10/10
f 15/10/10 4/9/9 5/2/2 17/1/1
f 27/11/11 7/12/12 24/13/13
f 28/14/14 8/15/15 22/16/16
f 25/17/17 16/18/18 18/19/19 21/20/20
f 16/18/18 15/10/10 17/1/1 18/19/19
f 20/21/21 14/22/22 16/18/18 25/17/17
f 14/22/22 13/8/8 15/10/10 16/18/18
f 19/23/23 12/24/24 14/22/22 20/21/21
f 12/24/24 11/6/6 13/8/8 14/22/22
f 28/14/14 21/20/20 23/25/25
f 9/26/26 11/6/6 12/24/24
f 12/24/24 19/23/23 24/13/13 9/26/26
f 18/19/19 17/1/1 10/27/27
f 10/27/27 17/1/1 1/3/3
f 9/26/26 2/4/4 11/6/6
f 8/15/15 28/14/14 23/25/25
f 27/11/11 20/21/21 25/17/17 28/14/14
f 26/28/28 27/11/11 28/14/14 22/16/16
f 7/12/12 27/11/11 26/28/28
f 19/23/23 27/11/11 24/13/13
f 18/19/19 10/27/27 23/25/25 21/20/20
f 19/23/23 20/21/21 27/11/11
f 25/17/17 21/20/20 28/14/14
o Shell_Slate_Bottom.001_Cube.238
v -0.029662 0.001158 0.037063
v -0.029662 0.001158 -0.037063
v -0.054503 0.001158 -0.009118
v -0.054503 0.001158 0.009118
v -0.045810 0.001158 0.025822
v -0.045810 0.001158 -0.025822
v 0.050359 0.005221 0.004781
v 0.048789 0.004080 -0.018897
v 0.050359 0.005221 -0.004781
v 0.048789 0.004080 0.018897
v -0.004546 0.001158 -0.042908
v -0.004546 0.001158 0.042908
v 0.008335 0.007801 -0.024362
v -0.017558 0.007801 -0.024371
v -0.033551 0.007990 -0.008464
v -0.033551 0.007990 0.008464
v 0.008335 0.007801 0.024362
v -0.017558 0.007801 0.024371
v 0.053412 0.008934 0.003001
v 0.033731 0.002445 0.021884
v 0.033731 0.002445 -0.021884
v 0.029231 0.004480 -0.016095
v 0.053412 0.008934 -0.003001
v 0.029231 0.004480 0.016095
vt 0.666667 0.216667
vt 0.550000 0.033333
vt 0.716667 0.183333
vt 0.666667 0.050000
vt 0.450000 0.033333
vt 0.466667 0.000000
vt 0.533333 0.000000
vt 0.333333 0.050000
vt 0.283333 0.183333
vt 0.600000 1.000000
vt 0.600000 0.800000
vt 0.783333 0.650000
vt 0.800000 0.900000
vt 0.783333 0.416667
vt 0.400000 0.800000
vt 0.216667 0.650000
vt 0.216667 0.416667
vt 0.333333 0.216667
vt 0.400000 1.000000
vt 0.200000 0.900000
vt 0.066667 0.716667
vt 0.000000 0.483333
vt 1.000000 0.483333
vt 0.933333 0.716667
vn -0.1133 -0.9768 -0.1815
vn 0.4402 -0.8978 -0.0094
vn -0.1219 -0.9505 -0.2857
vn 0.1851 -0.9810 -0.0587
vn 0.4402 -0.8978 0.0094
vn 0.7748 -0.6321 -0.0108
vn 0.7748 -0.6321 0.0108
vn 0.1851 -0.9810 0.0587
vn -0.1219 -0.9505 0.2857
vn 0.2864 -0.9544 -0.0838
vn 0.1588 -0.9846 -0.0728
vn 0.0635 -0.9776 -0.2004
vn 0.2394 -0.9453 -0.2213
vn -0.1097 -0.9704 -0.2150
vn 0.1588 -0.9846 0.0728
vn 0.0635 -0.9776 0.2004
vn -0.1097 -0.9704 0.2150
vn -0.1133 -0.9768 0.1815
vn 0.2864 -0.9544 0.0838
vn 0.2394 -0.9453 0.2213
vn 0.1613 -0.9292 0.3325
vn -0.0195 -0.9290 0.3695
vn -0.0195 -0.9290 -0.3695
vn 0.1613 -0.9292 -0.3325
usemtl Shell_Inner
s 1
f 52/29/29 35/30/30 48/31/31
f 35/30/30 38/32/32 48/31/31
f 37/33/33 51/34/34 47/35/35 35/30/30
f 36/36/36 37/33/33 49/37/37
f 32/38/38 44/39/39 46/40/40 33/41/41
f 35/30/30 52/29/29 45/42/42 46/40/40 44/39/39 43/43/43 42/44/44 41/45/45 50/46/46 37/33/33
f 31/47/47 43/43/43 44/39/39 32/38/38
f 34/48/48 42/44/44 43/43/43 31/47/47
f 30/49/49 39/50/50 42/44/44
f 45/42/42 52/29/29 48/31/31 40/51/51
f 46/40/40 40/51/51 29/52/52
f 42/44/44 39/50/50 41/45/45
f 38/32/32 35/30/30 47/35/35
f 37/33/33 36/36/36 51/34/34
f 46/40/40 45/42/42 40/51/51
f 39/50/50 49/37/37 50/46/46 41/45/45
f 37/33/33 50/46/46 49/37/37
f 34/48/48 30/49/49 42/44/44
f 33/41/41 46/40/40 29/52/52
