# Blender v2.90.0 OBJ File: 'Nature Kit.blend'
# www.blender.org
mtllib Shell_Layered.mtl
o Shell_Layered_Bottom.001_Cube.236
v -0.030646 0.001020 0.055632
v -0.030646 0.001020 -0.055632
v -0.068994 0.001020 -0.013603
v -0.068994 0.001020 0.013603
v -0.055003 0.001020 0.038522
v -0.055003 0.001020 -0.038522
v 0.063748 0.008609 0.005370
v 0.061761 0.006478 -0.021226
v 0.063748 0.008609 -0.005370
v 0.061761 0.006478 0.021226
v 0.000557 0.001020 -0.064012
v 0.000557 0.001020 0.064012
v 0.010551 0.013429 -0.036344
v -0.022226 0.013429 -0.036358
v -0.042472 0.013781 -0.012628
v -0.042472 0.013781 0.012628
v 0.010551 0.013429 0.036344
v -0.022226 0.013429 0.036358
v 0.067613 0.015545 0.003371
v 0.042699 0.003424 0.027788
v 0.042699 0.003424 -0.027788
v 0.037003 0.007225 -0.020437
v 0.067613 0.015545 -0.003371
v 0.037003 0.007225 0.020437
vt 0.666667 0.216667
vt 0.550000 0.033333
vt 0.716667 0.183333
vt 0.666667 0.050000
vt 0.450000 0.033333
vt 0.466667 0.000000
vt 0.533333 0.000000
vt 0.333333 0.050000
vt 0.283333 0.183333
vt 0.600000 1.000000
vt 0.600000 0.800000
vt 0.783333 0.650000
vt 0.800000 0.900000
vt 0.783333 0.416667
vt 0.400000 0.800000
vt 0.216667 0.650000
vt 0.216667 0.416667
vt 0.333333 0.216667
vt 0.400000 1.000000
vt 0.200000 0.900000
vt 0.066667 0.716667
vt 0.000000 0.483333
vt 1.000000 0.483333
vt 0.933333 0.716667
vn -0.1770 -0.9605 -0.2146
vn 0.5216 -0.8530 -0.0182
vn -0.2228 -0.9040 -0.3648
vn 0.2474 -0.9639 -0.0986
vn 0.5216 -0.8530 0.0182
vn 0.8751 -0.4838 -0.0138
vn 0.8751 -0.4838 0.0138
vn 0.2474 -0.9639 0.0986
vn -0.2228 -0.9040 0.3648
vn 0.4080 -0.9059 -0.1135
vn 0.2236 -0.9700 -0.0950
vn 0.1091 -0.9591 -0.2611
vn 0.3473 -0.8857 -0.3081
vn -0.1689 -0.9528 -0.2522
vn 0.2236 -0.9700 0.0950
vn 0.1091 -0.9591 0.2611
vn -0.1689 -0.9528 0.2522
vn -0.1770 -0.9605 0.2146
vn 0.4080 -0.9059 0.1135
vn 0.3473 -0.8857 0.3081
vn 0.2143 -0.8612 0.4609
vn -0.0607 -0.8911 0.4497
vn -0.0607 -0.8911 -0.4497
vn 0.2143 -0.8612 -0.4609
usemtl Shell_Inner
s 1
f 24/1/1 7/2/2 20/3/3
f 7/2/2 10/4/4 20/3/3
f 9/5/5 23/6/6 19/7/7 7/2/2
f 8/8/8 9/5/5 21/9/9
f 4/10/10 16/11/11 18/12/12 5/13/13
f 7/2/2 24/1/1 17/14/14 18/12/12 16/11/11 15/15/15 14/16/16 13/17/17 22/18/18 9/5/5
f 3/19/19 15/15/15 16/11/11 4/10/10
f 6/20/20 14/16/16 15/15/15 3/19/19
f 2/21/21 11/22/22 14/16/16
f 17/14/14 24/1/1 20/3/3 12/23/23
f 18/12/12 12/23/23 1/24/24
f 14/16/16 11/22/22 13/17/17
f 10/4/4 7/2/2 19/7/7
f 9/5/5 8/8/8 23/6/6
f 18/12/12 17/14/14 12/23/23
f 11/22/22 21/9/9 22/18/18 13/17/17
f 9/5/5 22/18/18 21/9/9
f 6/20/20 2/21/21 14/16/16
f 5/13/13 18/12/12 1/24/24
o Shell_Layered_Top.001_Cube.239
v -0.030646 0.001020 0.055632
v -0.030646 0.001020 -0.055632
v -0.068994 0.001020 -0.013603
v -0.068994 0.001020 0.013603
v -0.055003 0.001020 0.038522
v -0.055003 0.001020 -0.038522
v 0.061761 0.006478 -0.021226
v 0.061761 0.006478 0.021226
v 0.000557 0.001020 -0.064012
v 0.000557 0.001020 0.064012
v -0.031402 0.020631 -0.036358
v 0.007006 0.025104 -0.037010
v -0.038545 0.027125 -0.012628
v 0.005887 0.034783 -0.012155
v -0.038545 0.027125 0.012628
v 0.005887 0.034783 0.012155
v -0.031402 0.020631 0.036358
v 0.007006 0.025104 0.037010
v 0.037003 0.018736 -0.020437
v 0.036409 0.029374 -0.006918
v 0.037003 0.018736 0.020437
v 0.067613 0.015545 0.003371
v 0.042699 0.003424 0.027788
v 0.042699 0.003424 -0.027788
v 0.036409 0.029374 0.006918
v 0.067613 0.015545 -0.003371
v 0.062715 0.020436 -0.005449
v 0.062715 0.020436 0.005449
vt 0.283333 0.733333
vt 0.266667 0.983333
vt 0.116667 0.933333
vt 0.883333 0.933333
vt 0.733333 0.983333
vt 0.716667 0.733333
vt 0.583333 1.000000
vt 0.583333 0.750000
vt 0.416667 1.000000
vt 0.416667 0.750000
vt 0.583333 0.050000
vt 0.716667 0.000000
vt 0.833333 0.050000
vt 0.416667 0.050000
vt 0.283333 0.000000
vt 0.466667 0.000000
vt 0.416667 0.233333
vt 0.416667 0.416667
vt 0.300000 0.433333
vt 0.216667 0.233333
vt 0.583333 0.233333
vt 0.583333 0.416667
vt 0.783333 0.233333
vt 0.700000 0.433333
vt 0.166667 0.050000
vt 1.000000 0.833333
vt -0.000000 0.833333
vt 0.533333 0.000000
vn -0.3245 0.8003 0.5042
vn -0.5528 0.6972 0.4565
vn -0.2943 0.6641 0.6873
vn -0.2943 0.6641 -0.6873
vn -0.5528 0.6972 -0.4565
vn -0.3245 0.8003 -0.5042
vn -0.6352 0.7560 -0.1581
vn -0.4198 0.8906 -0.1750
vn -0.6352 0.7560 0.1581
vn -0.4198 0.8906 0.1750
vn 0.5224 0.7854 -0.3319
vn 0.2055 0.7268 -0.6554
vn 0.4093 0.5874 -0.6981
vn 0.5224 0.7854 0.3319
vn 0.2055 0.7268 0.6554
vn 0.7344 0.6420 0.2201
vn 0.2843 0.9257 0.2493
vn 0.0482 0.9772 0.2067
vn 0.1838 0.8066 0.5618
vn 0.3981 0.6801 0.6155
vn 0.2843 0.9257 -0.2493
vn 0.0482 0.9772 -0.2067
vn 0.3981 0.6801 -0.6155
vn 0.1838 0.8066 -0.5618
vn 0.4093 0.5874 0.6981
vn 0.1031 0.7044 -0.7023
vn 0.1031 0.7044 0.7023
vn 0.7344 0.6420 -0.2201
usemtl Shell_Layered
s 1
f 41/25/25 29/26/26 25/27/27
f 26/28/28 30/29/29 35/30/30
f 35/30/30 30/29/29 27/31/31 37/32/32
f 37/32/32 27/31/31 28/33/33 39/34/34
f 39/34/34 28/33/33 29/26/26 41/25/25
f 51/35/35 31/36/36 48/37/37
f 52/38/38 32/39/39 46/40/40
f 49/41/41 40/42/42 42/43/43 45/44/44
f 40/42/42 39/34/34 41/25/25 42/43/43
f 44/45/45 38/46/46 40/42/42 49/41/41
f 38/46/46 37/32/32 39/34/34 40/42/42
f 43/47/47 36/48/48 38/46/46 44/45/45
f 36/48/48 35/30/30 37/32/32 38/46/46
f 52/38/38 45/44/44 47/49/49
f 33/50/50 35/30/30 36/48/48
f 36/48/48 43/47/47 48/37/37 33/50/50
f 42/43/43 41/25/25 34/51/51
f 34/51/51 41/25/25 25/27/27
f 33/50/50 26/28/28 35/30/30
f 32/39/39 52/38/38 47/49/49
f 51/35/35 44/45/45 49/41/41 52/38/38
f 50/52/52 51/35/35 52/38/38 46/40/40
f 31/36/36 51/35/35 50/52/52
f 43/47/47 51/35/35 48/37/37
f 42/43/43 34/51/51 47/49/49 45/44/44
f 43/47/47 44/45/45 51/35/35
f 49/41/41 45/44/44 52/38/38
