# Blender v2.90.0 OBJ File: 'Nature Kit.blend'
# www.blender.org
mtllib Stepping_Stone_4.mtl
o Cube.079_Cube.241
v -0.337698 -0.003101 0.217799
v -0.043970 0.097747 0.276800
v -0.058253 0.174015 0.013999
v -0.056898 0.155264 -0.206914
v -0.051448 0.097409 -0.283151
v 0.160779 -0.003080 0.322528
v 0.304371 0.063882 0.138770
v 0.123774 0.079260 0.263064
v 0.170739 0.118186 -0.197757
v -0.234729 -0.003084 0.305836
v -0.275502 0.122315 0.136980
v -0.249319 -0.003195 -0.233673
v -0.077428 -0.003208 -0.332043
v 0.348175 -0.003148 0.151547
v 0.194083 0.145456 0.078477
v 0.169273 -0.003205 -0.278340
v 0.272924 -0.003201 -0.158417
v -0.203651 0.127173 -0.140702
v -0.237304 0.095807 0.225140
v -0.343156 -0.003086 0.043169
v -0.223886 0.083715 -0.192391
vt 0.818927 0.887432
vt 0.775301 0.833581
vt 0.840729 0.782679
vt 0.872798 0.866032
vt 0.864274 0.716770
vt 0.924676 0.789316
vt 0.811940 0.719372
vt 0.797736 0.689424
vt 0.744066 0.749539
vt 0.746116 0.871655
vt 0.957059 0.867231
vt 0.941527 0.823920
vt 0.984379 0.811142
vt 0.963232 0.733844
vt 0.865499 0.692060
vt 0.865902 0.650993
vt 0.791152 0.644395
vt 0.685092 0.775233
vt 0.707656 0.706477
vt 0.814795 0.933039
vt 0.727709 0.891841
vn 0.2498 0.7761 0.5790
vn 0.3594 0.9261 0.1145
vn -0.0381 0.9971 0.0658
vn -0.0256 0.7436 0.6681
vn -0.5112 0.8207 -0.2552
vn -0.5564 0.8185 0.1430
vn -0.0912 0.9232 -0.3733
vn -0.0764 0.6400 -0.7645
vn 0.4608 0.7532 -0.4694
vn 0.6775 0.7000 0.2256
vn -0.3295 0.5419 0.7731
vn -0.3442 0.7711 0.5356
vn -0.7477 0.5464 0.3773
vn -0.8425 0.5217 -0.1340
vn -0.6391 0.5877 -0.4961
vn -0.6644 0.4688 -0.5820
vn -0.1462 0.5065 -0.8497
vn 0.7750 0.5282 -0.3467
vn 0.4328 0.4532 -0.7793
vn 0.3270 0.5736 0.7510
vn 0.7592 0.6085 0.2307
usemtl Rock
s 1
f 8/1/1 15/2/2 3/3/3 2/4/4
f 18/5/5 11/6/6 3/3/3 4/7/7
f 5/8/8 4/7/7 9/9/9
f 15/2/2 7/10/10 9/9/9
f 10/11/11 19/12/12 1/13/13
f 20/14/14 21/15/15 12/16/16
f 18/5/5 21/15/15 20/14/14
f 5/8/8 13/17/17 12/16/16 21/15/15
f 17/18/18 16/19/19 9/9/9
f 6/20/20 8/1/1 2/4/4
f 6/20/20 14/21/21 7/10/10 8/1/1
f 21/15/15 18/5/5 4/7/7 5/8/8
f 14/21/21 17/18/18 7/10/10
f 7/10/10 17/18/18 9/9/9
f 20/14/14 1/13/13 11/6/6
f 19/12/12 11/6/6 1/13/13
f 10/11/11 2/4/4 19/12/12
f 7/10/10 15/2/2 8/1/1
f 18/5/5 20/14/14 11/6/6
f 13/17/17 5/8/8 9/9/9 16/19/19
f 3/3/3 15/2/2 9/9/9 4/7/7
f 10/11/11 6/20/20 2/4/4
f 11/6/6 19/12/12 2/4/4 3/3/3
