# Blender v2.90.0 OBJ File: 'Nature Kit.blend'
# www.blender.org
mtllib Stepping_Stone_2.mtl
o Cube.080_Cube.242
v 0.115227 -0.002270 -0.404185
v 0.251884 -0.002392 -0.319808
v -0.041502 -0.002357 -0.344715
v 0.101116 0.072562 -0.382200
v 0.168185 0.087767 -0.277424
v 0.003599 0.058081 -0.316290
v -0.007105 0.131524 -0.178194
v 0.332902 -0.002420 -0.167858
v 0.320171 -0.002293 -0.012888
v 0.279917 -0.002348 0.106550
v 0.282617 0.085060 -0.113725
v 0.289279 0.075043 -0.019827
v 0.161912 0.120745 0.017472
v 0.255505 0.065040 0.076957
v -0.164000 -0.002314 -0.131084
v -0.291796 -0.002272 -0.014122
v -0.314728 -0.002362 0.172545
v -0.143011 0.034654 -0.118105
v -0.083533 0.118743 -0.026182
v -0.270638 0.029109 -0.006397
v -0.264800 0.050441 0.117108
v 0.113406 -0.002333 0.237739
v -0.150551 -0.002379 0.289125
v 0.012922 -0.002295 0.271378
v 0.037882 0.102217 0.149849
v 0.098690 0.055423 0.206822
v -0.088804 0.083830 0.236437
v 0.004536 0.056311 0.243265
vt 0.584167 0.561014
vt 0.599146 0.625951
vt 0.550758 0.598330
vt 0.681992 0.561317
vt 0.729907 0.576856
vt 0.706129 0.611689
vt 0.672822 0.629796
vt 0.562130 0.442363
vt 0.603056 0.410159
vt 0.593329 0.486642
vt 0.682023 0.428002
vt 0.714645 0.450846
vt 0.731421 0.490844
vt 0.691105 0.489409
vt 0.543988 0.481526
vt 0.537525 0.556996
vt 0.524251 0.624832
vt 0.595605 0.684018
vt 0.494984 0.549284
vt 0.679639 0.683321
vt 0.736436 0.635125
vt 0.764881 0.580690
vt 0.598387 0.359964
vt 0.535042 0.422677
vt 0.510131 0.467894
vt 0.741365 0.435997
vt 0.690981 0.375728
vt 0.760647 0.483118
vn -0.2728 0.9369 -0.2183
vn 0.3831 0.8550 -0.3496
vn 0.0238 0.7237 -0.6896
vn 0.1994 0.9691 0.1448
vn 0.5896 0.6910 0.4181
vn 0.6997 0.6939 0.1700
vn 0.6003 0.7938 -0.0975
vn -0.6183 0.7169 -0.3219
vn -0.5541 0.8221 0.1305
vn -0.2951 0.9513 -0.0889
vn -0.1043 0.8284 0.5503
vn 0.1994 0.6536 0.7300
vn 0.3577 0.6876 0.6318
vn 0.1131 0.9481 0.2969
vn -0.5903 0.6716 -0.4476
vn -0.5270 0.6413 -0.5576
vn 0.1191 0.5635 -0.8175
vn 0.5949 0.6365 -0.4909
vn -0.5842 0.5474 -0.5991
vn 0.7553 0.6115 -0.2357
vn 0.8881 0.4237 0.1783
vn 0.7049 0.4709 0.5304
vn -0.5930 0.7409 0.3152
vn -0.7129 0.6046 -0.3552
vn -0.6219 0.5850 -0.5206
vn 0.1967 0.4726 0.8590
vn -0.2592 0.6813 0.6845
vn 0.4198 0.4924 0.7624
usemtl Rock
s 1
f 7/1/1 5/2/2 4/3/3
f 13/4/4 14/5/5 12/6/6 11/7/7
f 20/8/8 21/9/9 19/10/10
f 27/11/11 28/12/12 26/13/13 25/14/14
f 18/15/15 19/10/10 7/1/1 6/16/16
f 25/14/14 26/13/13 14/5/5 13/4/4
f 7/1/1 13/4/4 11/7/7 5/2/2
f 27/11/11 25/14/14 19/10/10
f 1/17/17 4/3/3 5/2/2 2/18/18
f 1/17/17 3/19/19 6/16/16 4/3/3
f 8/20/20 11/7/7 12/6/6 9/21/21
f 12/6/6 14/5/5 10/22/22 9/21/21
f 17/23/23 21/9/9 20/8/8 16/24/24
f 15/25/25 16/24/24 20/8/8 18/15/15
f 24/26/26 28/12/12 27/11/11 23/27/27
f 26/13/13 28/12/12 24/26/26 22/28/28
f 2/18/18 5/2/2 11/7/7 8/20/20
f 23/27/27 27/11/11 21/9/9 17/23/23
f 3/19/19 15/25/25 18/15/15 6/16/16
f 14/5/5 26/13/13 22/28/28 10/22/22
f 19/10/10 25/14/14 13/4/4 7/1/1
f 21/9/9 27/11/11 19/10/10
f 18/15/15 20/8/8 19/10/10
f 6/16/16 7/1/1 4/3/3
