# Blender v2.90.0 OBJ File: 'Nature Kit.blend'
# www.blender.org
mtllib Stump_2.mtl
o Cylinder.074_Cylinder.138
v 0.000000 -0.020798 -0.226461
v 0.000000 0.365487 -0.166712
v 0.113230 -0.020798 -0.196121
v 0.083356 0.372395 -0.144377
v 0.196121 -0.020798 -0.113230
v 0.144377 0.381911 -0.083356
v 0.226461 -0.020798 0.000000
v 0.166712 0.377362 0.000000
v 0.196121 -0.020798 0.113230
v 0.144377 0.362078 0.083356
v 0.113230 -0.020798 0.196121
v 0.083356 0.377362 0.144377
v 0.000000 -0.020798 0.226461
v 0.000000 0.362607 0.166712
v -0.113230 -0.020798 0.196121
v -0.083356 0.377362 0.144377
v -0.196121 -0.020798 0.113230
v -0.144377 0.373640 0.083356
v -0.226461 -0.020798 0.000000
v -0.166712 0.366818 0.000000
v -0.196121 -0.020798 -0.113230
v -0.144377 0.377581 -0.083356
v -0.113230 -0.020798 -0.196121
v -0.083356 0.360531 -0.144377
v 0.000000 0.172703 -0.193501
v 0.096750 0.172703 -0.167577
v 0.167577 0.172703 -0.096750
v 0.193501 0.172703 0.000000
v 0.167577 0.172703 0.096750
v 0.096750 0.172703 0.167577
v 0.000000 0.172703 0.193501
v -0.096750 0.172703 0.167577
v -0.167577 0.172703 0.096751
v -0.193501 0.172703 0.000000
v -0.167577 0.172703 -0.096750
v -0.096751 0.172703 -0.167577
v 0.103736 0.049063 -0.179676
v 0.179676 0.049063 -0.103736
v 0.207472 0.049063 0.000000
v 0.179676 0.049063 0.103736
v 0.103736 0.049063 0.179676
v 0.000000 0.049063 0.207472
v -0.103736 0.049063 0.179676
v -0.179676 0.049063 0.103736
v -0.207472 0.049063 0.000000
v -0.179676 0.049063 -0.103736
v -0.103736 0.049063 -0.179676
v 0.000000 0.049063 -0.207472
v 0.094864 0.361237 -0.164309
v 0.000000 0.354328 -0.189728
v 0.164309 0.370752 -0.094864
v 0.189728 0.366204 0.000000
v 0.164309 0.350919 0.094864
v 0.094864 0.366204 0.164309
v 0.000000 0.351448 0.189728
v -0.094864 0.366204 0.164309
v -0.164309 0.362481 0.094864
v -0.189728 0.355659 0.000000
v -0.164309 0.366422 -0.094864
v -0.094864 0.349372 -0.164309
v 0.089560 0.372395 -0.155122
v 0.000000 0.365487 -0.179120
v 0.155122 0.381911 -0.089560
v 0.179120 0.377362 0.000000
v 0.155122 0.362078 0.089560
v 0.089560 0.377362 0.155122
v 0.000000 0.362607 0.179120
v -0.089560 0.377362 0.155122
v -0.155122 0.373640 0.089560
v -0.179120 0.366818 0.000000
v -0.155122 0.377581 -0.089560
v -0.089560 0.360531 -0.155122
v 0.083356 0.358858 -0.144377
v 0.000000 0.356773 -0.166712
v 0.144377 0.368732 -0.083356
v 0.166712 0.358858 0.000000
v 0.144377 0.356773 0.083356
v 0.083356 0.357343 0.144377
v 0.000000 0.356773 0.166712
v -0.083356 0.358858 0.144377
v -0.144377 0.368732 0.083356
v -0.166712 0.358858 0.000000
v -0.144377 0.356773 -0.083356
v -0.083356 0.357343 -0.144377
v -0.040718 0.357861 -0.178979
v -0.038066 0.369020 -0.169082
v -0.034964 0.369020 -0.157505
v -0.023716 0.350026 -0.183373
v -0.022390 0.361185 -0.173121
v -0.020839 0.361185 -0.161128
v 0.182451 0.355175 -0.029880
v 0.172554 0.366333 -0.027228
v 0.160977 0.366333 -0.024126
v 0.141902 0.360839 -0.118438
v 0.134656 0.371998 -0.111193
v 0.126181 0.371998 -0.102718
v -0.011858 0.349903 -0.186550
v -0.011195 0.361061 -0.176120
v -0.010420 0.361061 -0.163920
v -0.173412 0.360393 -0.061553
v -0.177018 0.361755 -0.047432
v -0.181496 0.353796 -0.032309
v -0.163870 0.371552 -0.057575
v -0.167121 0.372914 -0.044780
v -0.171244 0.364955 -0.030983
v -0.152709 0.371552 -0.052922
v -0.155544 0.372914 -0.041678
v -0.159251 0.364955 -0.029432
vt 0.507394 0.561066
vt 0.426902 0.565177
vt 0.425760 0.558815
vt 0.506937 0.555019
vt 0.360357 0.565291
vt 0.330672 0.567266
vt 0.330739 0.561803
vt 0.360907 0.558474
vt 0.285247 0.568468
vt 0.253871 0.569959
vt 0.254051 0.565120
vt 0.286647 0.561049
vt 0.188011 0.575117
vt 0.188577 0.569081
vt 0.093560 0.577061
vt 0.093696 0.571839
vt 0.009752 0.581330
vt 0.009613 0.575078
vt -0.061091 0.578649
vt -0.062021 0.572780
vt -0.131732 0.581485
vt -0.131616 0.575347
vt 0.861108 0.571099
vt 0.747722 0.557622
vt 0.748579 0.551305
vt 0.864299 0.565666
vt 0.702315 0.556837
vt 0.680234 0.554863
vt 0.680388 0.549792
vt 0.702150 0.550970
vt 0.583784 0.557615
vt 0.583808 0.551175
vt 0.523597 0.562326
vt 0.521924 0.554789
vt 0.546393 0.561534
vt 0.543893 0.554263
vt 0.533171 0.561578
vt 0.531492 0.554559
vt 0.721526 0.558888
vt 0.722829 0.551653
vt 0.710282 0.556014
vt 0.710792 0.551824
vt 0.508700 0.458551
vt 0.507457 0.547756
vt 0.424768 0.551167
vt 0.423326 0.458309
vt 0.361986 0.550040
vt 0.331081 0.555296
vt 0.337476 0.457844
vt 0.287559 0.552125
vt 0.254349 0.558977
vt 0.254263 0.462707
vt 0.189020 0.561632
vt 0.189827 0.471913
vt 0.093769 0.565133
vt 0.095630 0.473599
vt 0.009261 0.567270
vt 0.010208 0.477388
vt -0.062899 0.565558
vt -0.063024 0.470305
vt -0.131556 0.568924
vt -0.130992 0.467485
vt 0.864388 0.461619
vt 0.867117 0.557962
vt 0.749396 0.543696
vt 0.755582 0.453907
vt 0.724552 0.543342
vt 0.712541 0.545640
vt 0.703091 0.543876
vt 0.680362 0.543387
vt 0.679798 0.453422
vt 0.009553 0.587201
vt -0.058694 0.587310
vt 0.583331 0.543710
vt 0.586076 0.456800
vt 0.542726 0.546504
vt 0.529994 0.546175
vt 0.520739 0.546324
vt 0.587165 0.390087
vt 0.507977 0.391302
vt 0.675865 0.387316
vt 0.761116 0.388583
vt 0.866326 0.397770
vt -0.062825 0.401927
vt -0.131677 0.399682
vt 0.011407 0.408620
vt 0.096700 0.405390
vt 0.188343 0.403199
vt 0.252099 0.394214
vt 0.338951 0.389533
vt 0.422783 0.390731
vt 0.508380 0.352435
vt 0.422484 0.351588
vt 0.339999 0.350215
vt 0.250993 0.354713
vt 0.187577 0.363384
vt 0.097326 0.365463
vt 0.011993 0.368687
vt -0.063735 0.362344
vt -0.135318 0.360861
vt 0.871049 0.360192
vt 0.764964 0.350518
vt 0.674422 0.349061
vt 0.587947 0.351559
vt 0.253782 0.577234
vt 0.188089 0.580034
vt 0.679930 0.564104
vt 0.583794 0.559226
vt 0.509027 0.569655
vt 0.428616 0.571936
vt -0.132168 0.588132
vt 0.093568 0.585485
vt 0.330992 0.573293
vt 0.860472 0.573389
vt 0.746843 0.561643
vt 1.009977 0.639560
vt 0.000100 0.364725
vt 0.132890 0.191983
vt 0.348417 0.000454
vt 0.615452 0.000100
vt 0.875348 0.140090
vt 1.009977 0.370788
vt 0.877187 0.873237
vt 0.646158 1.007297
vt 0.379123 1.007651
vt 0.147131 0.875411
vt 0.000100 0.624561
vt 0.000100 0.355789
vn -0.0743 0.9970 -0.0199
vn -0.2024 0.9428 -0.2650
vn -0.0497 0.9220 -0.3841
vn -0.0436 0.9857 0.1626
vn 0.1190 0.9857 -0.1190
vn -0.1571 0.9867 0.0421
vn 0.1571 0.9867 0.0421
vn -0.0294 0.9991 -0.0294
vn -0.0197 0.9971 -0.0734
vn -0.0828 0.9825 0.1671
vn 0.1323 0.9823 -0.1323
vn -0.3762 0.9265 0.0119
vn -0.1507 0.9866 0.0628
vn 0.4458 0.8908 -0.0880
vn 0.0929 0.9704 0.2227
vn 0.0052 1.0000 0.0040
vn 0.0111 0.9999 -0.0011
vn 0.0039 0.9982 -0.0606
vn -0.0982 0.8620 0.4973
vn 0.0353 0.9940 -0.1036
vn -0.0003 0.0670 -0.9977
vn -0.0745 0.3818 -0.9212
vn 0.4535 0.3698 -0.8109
vn 0.4986 0.0662 -0.8643
vn 0.6217 0.3689 -0.6909
vn 0.7810 0.4163 -0.4656
vn 0.8641 0.0656 -0.4990
vn 0.8932 0.3685 -0.2574
vn 0.9088 0.4156 -0.0352
vn 0.9978 0.0663 0.0005
vn 0.8194 0.3238 0.4730
vn 0.8641 0.0668 0.4989
vn 0.4596 0.3977 0.7941
vn 0.4989 0.0669 0.8641
vn 0.0000 0.3250 0.9457
vn 0.0000 0.0668 0.9977
vn -0.4451 0.3833 0.8093
vn -0.4986 0.0667 0.8642
vn -0.8148 0.3644 0.4509
vn -0.8642 0.0667 0.4986
vn -0.9334 0.3583 -0.0167
vn -0.9978 0.0666 0.0001
vn -0.9093 0.3768 -0.1764
vn -0.8936 0.4256 -0.1422
vn -0.9013 0.3712 -0.2231
vn -0.7937 0.3988 -0.4593
vn -0.8640 0.0667 -0.4990
vn 0.3587 0.7779 -0.5159
vn 0.0000 0.7474 -0.6643
vn 0.0273 0.6793 -0.7333
vn 0.4027 0.6753 -0.6179
vn -0.4712 0.3243 -0.8202
vn -0.4986 0.0669 -0.8642
vn -0.1651 0.4280 -0.8885
vn -0.1684 0.3782 -0.9102
vn -0.3006 0.3660 -0.8807
vn -0.4909 0.1902 -0.8502
vn 0.0000 0.1902 -0.9817
vn -0.8502 0.1902 -0.4909
vn -0.9817 0.1902 0.0000
vn -0.8502 0.1902 0.4909
vn -0.4909 0.1902 0.8502
vn 0.0000 0.1902 0.9817
vn 0.4909 0.1902 0.8502
vn 0.8502 0.1902 0.4909
vn 0.9817 0.1902 0.0000
vn 0.8502 0.1902 -0.4909
vn 0.4909 0.1902 -0.8502
vn 0.0000 0.2623 -0.9650
vn 0.4825 0.2623 -0.8357
vn 0.8357 0.2623 -0.4825
vn 0.9650 0.2623 0.0000
vn 0.8357 0.2623 0.4825
vn 0.4825 0.2623 0.8357
vn 0.0000 0.2623 0.9650
vn -0.4825 0.2623 0.8357
vn -0.8357 0.2623 0.4825
vn -0.9650 0.2623 0.0000
vn -0.8357 0.2623 -0.4825
vn -0.4825 0.2623 -0.8357
vn -0.1802 0.8841 -0.4310
vn 0.1909 0.8998 -0.3923
vn 0.2056 0.8892 -0.4086
vn 0.3230 0.9195 -0.2240
vn 0.4321 0.8834 -0.1814
vn 0.3869 0.9183 -0.0840
vn 0.4238 0.8721 0.2447
vn 0.2034 0.9152 0.3479
vn 0.0000 0.8729 0.4879
vn -0.1687 0.9063 0.3875
vn -0.4061 0.8957 0.1809
vn -0.4510 0.8910 -0.0517
vn -0.4244 0.9026 -0.0719
vn -0.3542 0.9127 -0.2039
vn -0.2361 0.8746 -0.4235
vn -0.2803 0.8776 -0.3889
vn -0.5763 0.7464 -0.3327
vn -0.5985 0.7945 -0.1022
vn -0.7295 0.6829 0.0401
vn -0.6487 0.6793 -0.3430
vn 0.3424 0.7424 0.5759
vn 0.5274 0.7922 0.3069
vn 0.6464 0.6818 0.3424
vn 0.3666 0.6798 0.6352
vn -0.3406 0.7787 0.5269
vn -0.2068 0.7737 0.5988
vn -0.0273 0.6811 0.7317
vn -0.3996 0.6840 0.6102
vn 0.5251 0.7705 -0.3614
vn 0.6754 0.6259 -0.3899
vn -0.3084 0.7837 -0.5391
vn -0.3675 0.6780 -0.6366
vn 0.0508 0.7553 0.6534
vn 0.3554 0.7231 0.5922
vn 0.2802 0.7531 0.5952
vn -0.5311 0.8073 0.2571
vn -0.5406 0.7590 0.3628
vn -0.6626 0.6445 0.3814
vn 0.6356 0.7697 -0.0586
vn 0.7340 0.6780 -0.0391
vn -0.5964 0.7966 0.0986
vn 0.6348 0.7490 0.1899
vn 0.5856 0.7447 0.3200
vn 0.5700 0.7405 0.3560
vn 0.0362 0.9240 -0.3805
vn 0.1069 0.8885 -0.4461
vn -0.4587 0.8838 0.0920
vn -0.3914 0.9165 0.0826
vn 0.0418 0.9965 0.0724
vn -0.0418 0.9965 -0.0724
usemtl Bark_Stump
s off
f 2/1/1 4/2/1 61/3/1 62/4/1
f 96/5/2 6/6/2 63/7/2 95/8/2
f 93/9/3 8/10/3 64/11/3 92/12/3
f 8/10/4 10/13/4 65/14/4 64/11/4
f 10/13/5 12/15/5 66/16/5 65/14/5
f 12/15/6 14/17/6 67/18/6 66/16/6
f 14/17/7 16/19/7 68/20/7 67/18/7
f 16/19/8 18/21/8 69/22/8 68/20/8
f 18/23/9 20/24/9 70/25/9 69/26/9
f 106/27/10 22/28/10 71/29/10 103/30/10
f 22/28/11 24/31/11 72/32/11 71/29/11
f 99/33/12 2/1/12 62/4/12 98/34/12
f 24/31/13 87/35/13 86/36/13 72/32/13
f 87/35/14 90/37/14 89/38/14 86/36/14
f 6/6/15 93/9/15 92/12/15 63/7/15
f 4/2/16 96/5/16 95/8/16 61/3/16
f 90/37/17 99/33/17 98/34/17 89/38/17
f 20/24/18 108/39/18 105/40/18 70/25/18
f 108/39/19 107/41/19 104/42/19 105/40/19
f 107/41/20 106/27/20 103/30/20 104/42/20
s 1
f 25/43/21 50/44/22 49/45/23 26/46/24
f 26/46/24 49/45/23 94/47/25 51/48/26 27/49/27
f 27/49/27 51/48/26 91/50/28 52/51/29 28/52/30
f 28/52/30 52/51/29 53/53/31 29/54/32
f 29/54/32 53/53/31 54/55/33 30/56/34
f 30/56/34 54/55/33 55/57/35 31/58/36
f 31/58/36 55/57/35 56/59/37 32/60/38
f 32/60/38 56/59/37 57/61/39 33/62/40
f 33/63/40 57/64/39 58/65/41 34/66/42
f 34/66/42 58/65/41 102/67/43 101/68/44 100/69/45 59/70/46 35/71/47
f 16/19/48 14/17/49 79/72/50 80/73/51
f 35/71/47 59/70/46 60/74/52 36/75/53
f 36/75/53 60/74/52 85/76/54 88/77/55 97/78/56 50/44/22 25/43/21
f 47/79/57 36/75/53 25/43/21 48/80/58
f 46/81/59 35/71/47 36/75/53 47/79/57
f 45/82/60 34/66/42 35/71/47 46/81/59
f 44/83/61 33/63/40 34/66/42 45/82/60
f 43/84/62 32/60/38 33/62/40 44/85/61
f 42/86/63 31/58/36 32/60/38 43/84/62
f 41/87/64 30/56/34 31/58/36 42/86/63
f 40/88/65 29/54/32 30/56/34 41/87/64
f 39/89/66 28/52/30 29/54/32 40/88/65
f 38/90/67 27/49/27 28/52/30 39/89/66
f 37/91/68 26/46/24 27/49/27 38/90/67
f 48/80/58 25/43/21 26/46/24 37/91/68
f 1/92/69 48/80/58 37/91/68 3/93/70
f 3/93/70 37/91/68 38/90/67 5/94/71
f 5/94/71 38/90/67 39/89/66 7/95/72
f 7/95/72 39/89/66 40/88/65 9/96/73
f 9/96/73 40/88/65 41/87/64 11/97/74
f 11/97/74 41/87/64 42/86/63 13/98/75
f 13/98/75 42/86/63 43/84/62 15/99/76
f 15/99/76 43/84/62 44/85/61 17/100/77
f 17/101/77 44/83/61 45/82/60 19/102/78
f 19/102/78 45/82/60 46/81/59 21/103/79
f 21/103/79 46/81/59 47/79/57 23/104/80
f 23/104/80 47/79/57 48/80/58 1/92/69
f 62/4/81 61/3/82 49/45/23 50/44/22
f 95/8/83 63/7/84 51/48/26 94/47/25
f 92/12/85 64/11/86 52/51/29 91/50/28
f 64/11/86 65/14/87 53/53/31 52/51/29
f 65/14/87 66/16/88 54/55/33 53/53/31
f 66/16/88 67/18/89 55/57/35 54/55/33
f 67/18/89 68/20/90 56/59/37 55/57/35
f 68/20/90 69/22/91 57/61/39 56/59/37
f 69/26/91 70/25/92 58/65/41 57/64/39
f 103/30/93 71/29/94 59/70/46 100/69/45
f 71/29/94 72/32/95 60/74/52 59/70/46
f 98/34/96 62/4/81 50/44/22 97/78/56
f 10/13/97 8/10/98 76/105/99 77/106/100
f 24/31/101 22/28/102 83/107/103 84/108/104
f 4/2/105 2/1/106 74/109/107 73/110/108
f 18/21/109 16/19/48 80/73/51 81/111/110
f 12/15/111 10/13/97 77/106/100 78/112/112
f 2/1/106 99/33/113 90/37/114 87/35/115 24/31/101 84/108/104 74/109/107
f 6/6/116 96/5/117 4/2/105 73/110/108 75/113/118
f 20/24/119 18/23/109 81/114/110 82/115/120
f 14/17/49 12/15/111 78/112/112 79/72/50
f 8/10/98 93/9/121 6/6/116 75/113/118 76/105/99
f 22/28/102 106/27/122 107/41/123 108/39/124 20/24/119 82/115/120 83/107/103
f 72/32/95 86/36/125 85/76/54 60/74/52
f 86/36/125 89/38/126 88/77/55 85/76/54
f 63/7/84 92/12/85 91/50/28 51/48/26
f 61/3/82 95/8/83 94/47/25 49/45/23
f 89/38/126 98/34/96 97/78/56 88/77/55
f 70/25/92 105/40/127 102/67/43 58/65/41
f 105/40/127 104/42/128 101/68/44 102/67/43
f 104/42/128 103/30/93 100/69/45 101/68/44
usemtl Wood_End
s off
f 75/116/129 81/117/129 80/118/129 79/119/129 78/120/129 77/121/129 76/122/129
f 73/123/130 74/124/130 84/125/130 83/126/130 82/127/130 81/128/130 75/116/130
