# Blender v2.90.0 OBJ File: 'Nature Kit.blend'
# www.blender.org
mtllib Stump_1.mtl
o Cylinder.081_Cylinder.140
v -0.000000 -0.010623 -0.205603
v 0.000000 0.186670 -0.166712
v 0.102801 -0.010623 -0.178057
v 0.083356 0.190198 -0.144377
v 0.178057 -0.010623 -0.102801
v 0.144377 0.195058 -0.083356
v 0.205603 -0.010623 0.000000
v 0.166712 0.192735 0.000000
v 0.178057 -0.010623 0.102801
v 0.144377 0.184929 0.083356
v 0.102801 -0.010623 0.178057
v 0.083356 0.192735 0.144377
v 0.000000 -0.010623 0.205603
v 0.000000 0.185199 0.166712
v -0.102801 -0.010623 0.178057
v -0.083356 0.192735 0.144377
v -0.178057 -0.010623 0.102801
v -0.144377 0.185113 0.083356
v -0.205603 -0.010623 0.000000
v -0.166712 0.195219 0.000000
v -0.178057 -0.010623 -0.102801
v -0.144377 0.192847 -0.083356
v -0.102801 -0.010623 -0.178057
v -0.083356 0.184138 -0.144377
v 0.000000 0.088207 -0.193501
v 0.096750 0.088207 -0.167577
v 0.167577 0.088207 -0.096750
v 0.193501 0.088207 0.000000
v 0.167577 0.088207 0.096750
v 0.096750 0.088207 0.167577
v 0.000000 0.088207 0.193501
v -0.096750 0.088207 0.167577
v -0.167577 0.088207 0.096751
v -0.193501 0.088207 0.000000
v -0.167577 0.088207 -0.096750
v -0.096751 0.088207 -0.167577
v 0.099347 0.025058 -0.172075
v 0.172075 0.025058 -0.099347
v 0.198695 0.025058 0.000000
v 0.172075 0.025058 0.099347
v 0.099347 0.025058 0.172075
v 0.000000 0.025058 0.198695
v -0.099347 0.025058 0.172075
v -0.172075 0.025058 0.099348
v -0.198695 0.025058 0.000000
v -0.172075 0.025058 -0.099347
v -0.099348 0.025058 -0.172075
v -0.000000 0.025058 -0.198695
v 0.094864 0.184499 -0.164309
v 0.000000 0.180970 -0.189728
v 0.164309 0.189359 -0.094864
v 0.189728 0.187036 0.000000
v 0.164309 0.179229 0.094864
v 0.094864 0.187036 0.164309
v 0.000000 0.179499 0.189728
v -0.094864 0.187036 0.164309
v -0.164309 0.179414 0.094864
v -0.189728 0.189520 0.000000
v -0.164309 0.187147 -0.094864
v -0.094864 0.178439 -0.164309
v 0.089560 0.190198 -0.155122
v 0.000000 0.186670 -0.179120
v 0.155122 0.195058 -0.089560
v 0.179120 0.192735 0.000000
v 0.155122 0.184929 0.089560
v 0.089560 0.192735 0.155122
v 0.000000 0.185199 0.179120
v -0.089560 0.192735 0.155122
v -0.155122 0.185113 0.089560
v -0.179120 0.195219 0.000000
v -0.155122 0.192847 -0.089560
v -0.089560 0.184138 -0.155122
v 0.083356 0.176312 -0.144377
v 0.000000 0.182219 -0.166712
v 0.144377 0.170651 -0.083356
v 0.166712 0.183284 0.000000
v 0.144377 0.182219 0.083356
v 0.083356 0.182511 0.144377
v 0.000000 0.182219 0.166712
v -0.083356 0.183284 0.144377
v -0.144377 0.170651 0.083356
v -0.166712 0.183284 0.000000
v -0.144377 0.182219 -0.083356
v -0.083356 0.182511 -0.144377
v -0.040718 0.182775 -0.178979
v -0.038066 0.188474 -0.169082
v -0.034964 0.188474 -0.157505
v -0.023716 0.178773 -0.183373
v -0.022390 0.184473 -0.173121
v -0.020839 0.184473 -0.161128
v 0.182451 0.181403 -0.029880
v 0.172554 0.187102 -0.027228
v 0.160977 0.187102 -0.024126
v 0.141902 0.184296 -0.118438
v 0.134656 0.189995 -0.111193
v 0.126181 0.189995 -0.102718
v -0.011858 0.178710 -0.186550
v -0.011195 0.184409 -0.176120
v -0.010420 0.184409 -0.163920
v -0.173412 0.182351 -0.061553
v -0.177018 0.181720 -0.047432
v -0.181496 0.191666 -0.032309
v -0.163870 0.188050 -0.057575
v -0.167121 0.187419 -0.044780
v -0.171244 0.197365 -0.030983
v -0.152709 0.188050 -0.052922
v -0.155544 0.187419 -0.041678
v -0.159251 0.197365 -0.029432
v 0.148764 0.182012 -0.061103
v -0.128941 0.182012 0.099230
v 0.127129 0.181845 -0.100426
v -0.149909 0.181845 0.059522
v -0.162511 0.182924 0.014881
v -0.158311 0.175593 0.029761
v -0.154110 0.182204 0.044642
v 0.060119 0.182752 -0.151160
v 0.096530 0.182564 -0.130892
vt 0.508700 0.489881
vt 0.507457 0.546891
vt 0.424768 0.549071
vt 0.423326 0.489727
vt 0.361986 0.548351
vt 0.331081 0.551710
vt 0.337476 0.489430
vt 0.287559 0.549683
vt 0.254349 0.554062
vt 0.254263 0.492537
vt 0.189020 0.555759
vt 0.189827 0.498421
vt 0.093769 0.557997
vt 0.095630 0.499498
vt 0.009261 0.559362
vt 0.010208 0.501920
vt -0.062899 0.558268
vt -0.063024 0.497393
vt -0.131556 0.560419
vt -0.130992 0.495591
vt 0.864388 0.491842
vt 0.867117 0.553414
vt 0.749396 0.544297
vt 0.755582 0.486913
vt 0.724552 0.544070
vt 0.712541 0.545539
vt 0.703091 0.544412
vt 0.680362 0.544099
vt 0.679798 0.486603
vt -0.061091 0.566634
vt 0.009752 0.568348
vt 0.009553 0.572100
vt -0.058694 0.572170
vt 0.583331 0.544306
vt 0.586076 0.488762
vt 0.542726 0.546091
vt 0.529994 0.545881
vt 0.520739 0.545976
vt 0.587165 0.446127
vt 0.507977 0.446904
vt 0.675865 0.444356
vt 0.761116 0.445165
vt 0.866326 0.451037
vt -0.062825 0.453694
vt -0.131677 0.452259
vt 0.011407 0.457971
vt 0.096700 0.455907
vt 0.188343 0.454507
vt 0.252099 0.448764
vt 0.338951 0.445773
vt 0.422783 0.446539
vt 0.508380 0.422064
vt 0.422484 0.421522
vt 0.339999 0.420645
vt 0.250993 0.423520
vt 0.187577 0.429061
vt 0.097326 0.430390
vt 0.011993 0.432451
vt -0.063735 0.428397
vt -0.135318 0.427449
vt 0.871049 0.427021
vt 0.764964 0.420839
vt 0.674422 0.419908
vt 0.587947 0.421504
vt 0.506937 0.551533
vt 0.425760 0.553959
vt 0.360907 0.553741
vt 0.330739 0.555868
vt 0.286647 0.555386
vt 0.254051 0.557988
vt 0.188577 0.560519
vt 0.093696 0.562283
vt 0.009613 0.564353
vt -0.062021 0.562884
vt -0.131616 0.564524
vt 0.864299 0.558337
vt 0.748579 0.549160
vt 0.702150 0.548945
vt 0.680388 0.548192
vt 0.583808 0.549076
vt 0.521924 0.551386
vt 0.507394 0.555397
vt 0.426902 0.558025
vt 0.360357 0.558098
vt 0.330672 0.559360
vt 0.285247 0.560128
vt 0.253871 0.561081
vt 0.188011 0.564377
vt 0.093560 0.565619
vt -0.131732 0.568447
vt 0.861108 0.561810
vt 0.747722 0.553197
vt 0.702315 0.552695
vt 0.680234 0.551433
vt 0.583784 0.553192
vt 0.523597 0.556203
vt 0.253782 0.565730
vt 0.188089 0.567520
vt 0.679930 0.557339
vt 0.583794 0.554222
vt 0.509027 0.560887
vt 0.468821 0.561616
vt 0.428616 0.562344
vt -0.095431 0.572432
vt -0.132168 0.572695
vt 0.093568 0.571003
vt 0.533171 0.555725
vt 0.546393 0.555697
vt 0.404210 0.562561
vt 0.379804 0.562778
vt 0.330992 0.563212
vt 0.860472 0.563273
vt 0.803657 0.559519
vt 0.789454 0.558581
vt 0.775250 0.557643
vt 0.761046 0.556704
vt 0.746843 0.555766
vt 0.292387 0.564471
vt 0.710282 0.552169
vt 0.721526 0.554006
vt 0.543893 0.551050
vt 0.531492 0.551239
vt 0.722829 0.549381
vt 0.710792 0.549491
vt 1.009977 0.505174
vt 0.066495 0.238951
vt 0.132890 0.122112
vt 0.348417 0.000454
vt 0.615452 0.000100
vt 0.875348 0.140090
vt 1.009977 0.370788
vt 0.943582 0.756399
vt 0.000100 0.490175
vt 0.000100 0.355789
vt 1.009977 0.639560
vt 0.761673 0.940267
vt 0.646158 1.007297
vt 0.379123 1.007651
vt 0.147131 0.875411
vt 0.000100 0.624561
vt 0.000100 0.590965
vt 0.910385 0.814818
vt 0.877187 0.873237
vt 0.000100 0.557368
vt 0.000100 0.523772
vn -0.0003 0.0613 -0.9981
vn -0.0472 0.5097 -0.8591
vn 0.4252 0.5019 -0.7532
vn 0.4988 0.0598 -0.8646
vn 0.5767 0.5211 -0.6291
vn 0.7296 0.5316 -0.4302
vn 0.8645 0.0587 -0.4992
vn 0.8191 0.5235 -0.2344
vn 0.8466 0.5317 -0.0213
vn 0.9982 0.0599 0.0004
vn 0.7633 0.4724 0.4407
vn 0.8644 0.0610 0.4990
vn 0.4277 0.5198 0.7396
vn 0.4991 0.0610 0.8644
vn 0.0000 0.4732 0.8809
vn 0.0000 0.0610 0.9981
vn -0.4274 0.5195 0.7399
vn -0.4991 0.0610 0.8644
vn -0.7625 0.4690 0.4455
vn -0.8643 0.0609 0.4992
vn -0.8632 0.5036 0.0357
vn -0.9982 0.0602 0.0004
vn -0.7444 0.5665 -0.3534
vn -0.7784 0.5265 -0.3418
vn -0.8374 0.5180 -0.1744
vn -0.7420 0.5253 -0.4164
vn -0.8642 0.0604 -0.4995
vn 0.3158 0.7759 -0.5461
vn 0.0000 0.7598 -0.6501
vn -0.0022 0.6537 -0.7567
vn 0.3811 0.6448 -0.6625
vn -0.4391 0.4733 -0.7637
vn -0.4988 0.0612 -0.8645
vn -0.1718 0.5586 -0.8114
vn -0.1646 0.5328 -0.8300
vn -0.2684 0.5211 -0.8101
vn -0.4953 0.1374 -0.8578
vn 0.0000 0.1374 -0.9905
vn -0.8578 0.1374 -0.4952
vn -0.9905 0.1374 0.0000
vn -0.8578 0.1374 0.4952
vn -0.4952 0.1374 0.8578
vn 0.0000 0.1374 0.9905
vn 0.4952 0.1374 0.8578
vn 0.8578 0.1374 0.4952
vn 0.9905 0.1374 0.0000
vn 0.8578 0.1374 -0.4952
vn 0.4952 0.1374 -0.8578
vn 0.0000 0.1901 -0.9817
vn 0.4909 0.1901 -0.8502
vn 0.8502 0.1901 -0.4909
vn 0.9817 0.1901 0.0000
vn 0.8502 0.1901 0.4909
vn 0.4909 0.1901 0.8502
vn 0.0000 0.1901 0.9817
vn -0.4909 0.1901 0.8502
vn -0.8502 0.1901 0.4909
vn -0.9817 0.1901 0.0000
vn -0.8502 0.1901 -0.4909
vn -0.4909 0.1901 -0.8502
vn -0.1073 0.9545 -0.2782
vn 0.1223 0.9611 -0.2474
vn 0.1325 0.9606 -0.2441
vn 0.2130 0.9662 -0.1447
vn 0.2595 0.9598 -0.1067
vn 0.2534 0.9661 -0.0500
vn 0.2625 0.9529 0.1516
vn 0.1310 0.9657 0.2242
vn 0.0000 0.9532 0.3024
vn -0.1303 0.9656 0.2249
vn -0.2589 0.9519 0.1635
vn -0.2690 0.9595 0.0830
vn -0.2828 0.9589 0.0222
vn -0.2385 0.9649 -0.1097
vn -0.1462 0.9541 -0.2614
vn -0.1608 0.9572 -0.2407
vn -0.1103 0.7758 0.6212
vn -0.3317 0.7729 0.5408
vn -0.5109 0.7499 0.4202
vn -0.5240 0.8067 0.2731
vn -0.6044 0.7870 0.1233
vn -0.6010 0.7971 -0.0577
vn -0.5634 0.7594 -0.3253
vn -0.3128 0.7783 -0.5444
vn 0.5689 0.7607 -0.3125
vn 0.6309 0.7718 0.0784
vn 0.6421 0.7275 0.2416
vn 0.5214 0.7873 0.3289
vn 0.3295 0.7590 0.5615
vn 0.1141 0.7397 0.6632
vn -0.7416 0.6708 -0.0067
vn -0.6543 0.6537 -0.3803
vn 0.6518 0.6601 0.3733
vn 0.3769 0.6581 0.6518
vn -0.0023 0.6529 0.7575
vn -0.0593 0.6320 0.7727
vn -0.4027 0.7218 0.5629
vn 0.3583 0.6849 -0.6344
vn 0.5726 0.7419 -0.3488
vn -0.3796 0.6508 -0.6575
vn 0.2731 0.7275 0.6294
vn 0.2335 0.7415 0.6289
vn -0.5350 0.7569 0.3752
vn -0.3531 0.7123 0.6066
vn -0.5687 0.7583 0.3186
vn 0.7029 0.7113 0.0029
vn 0.5781 0.7764 -0.2510
vn 0.5599 0.8036 -0.2015
vn 0.7048 0.7089 -0.0276
vn 0.7515 0.6597 -0.0034
vn -0.6774 0.7353 -0.0215
vn 0.6596 0.7498 -0.0524
vn 0.6596 0.7483 -0.0699
vn 0.0151 0.9691 -0.2459
vn 0.0549 0.9616 -0.2689
vn -0.1729 0.9378 -0.3009
vn -0.1903 0.9205 -0.3412
vn -0.0024 1.0000 -0.0042
vn 0.2157 0.9021 0.3736
vn -0.2339 0.8838 -0.4051
vn -0.0024 1.0000 -0.0061
vn -0.2107 0.9324 -0.2938
vn 0.2230 0.9256 0.3059
vn 0.0097 0.9998 0.0163
usemtl Bark_Stump
s 1
f 25/1/1 50/2/2 49/3/3 26/4/4
f 26/4/4 49/3/3 94/5/5 51/6/6 27/7/7
f 27/7/7 51/6/6 91/8/8 52/9/9 28/10/10
f 28/10/10 52/9/9 53/11/11 29/12/12
f 29/12/12 53/11/11 54/13/13 30/14/14
f 30/14/14 54/13/13 55/15/15 31/16/16
f 31/16/16 55/15/15 56/17/17 32/18/18
f 32/18/18 56/17/17 57/19/19 33/20/20
f 33/21/20 57/22/19 58/23/21 34/24/22
f 34/24/22 58/23/21 102/25/23 101/26/24 100/27/25 59/28/26 35/29/27
f 16/30/28 14/31/29 79/32/30 80/33/31
f 35/29/27 59/28/26 60/34/32 36/35/33
f 36/35/33 60/34/32 85/36/34 88/37/35 97/38/36 50/2/2 25/1/1
f 47/39/37 36/35/33 25/1/1 48/40/38
f 46/41/39 35/29/27 36/35/33 47/39/37
f 45/42/40 34/24/22 35/29/27 46/41/39
f 44/43/41 33/21/20 34/24/22 45/42/40
f 43/44/42 32/18/18 33/20/20 44/45/41
f 42/46/43 31/16/16 32/18/18 43/44/42
f 41/47/44 30/14/14 31/16/16 42/46/43
f 40/48/45 29/12/12 30/14/14 41/47/44
f 39/49/46 28/10/10 29/12/12 40/48/45
f 38/50/47 27/7/7 28/10/10 39/49/46
f 37/51/48 26/4/4 27/7/7 38/50/47
f 48/40/38 25/1/1 26/4/4 37/51/48
f 1/52/49 48/40/38 37/51/48 3/53/50
f 3/53/50 37/51/48 38/50/47 5/54/51
f 5/54/51 38/50/47 39/49/46 7/55/52
f 7/55/52 39/49/46 40/48/45 9/56/53
f 9/56/53 40/48/45 41/47/44 11/57/54
f 11/57/54 41/47/44 42/46/43 13/58/55
f 13/58/55 42/46/43 43/44/42 15/59/56
f 15/59/56 43/44/42 44/45/41 17/60/57
f 17/61/57 44/43/41 45/42/40 19/62/58
f 19/62/58 45/42/40 46/41/39 21/63/59
f 21/63/59 46/41/39 47/39/37 23/64/60
f 23/64/60 47/39/37 48/40/38 1/52/49
f 62/65/61 61/66/62 49/3/3 50/2/2
f 95/67/63 63/68/64 51/6/6 94/5/5
f 92/69/65 64/70/66 52/9/9 91/8/8
f 64/70/66 65/71/67 53/11/11 52/9/9
f 65/71/67 66/72/68 54/13/13 53/11/11
f 66/72/68 67/73/69 55/15/15 54/13/13
f 67/73/69 68/74/70 56/17/17 55/15/15
f 68/74/70 69/75/71 57/19/19 56/17/17
f 69/76/71 70/77/72 58/23/21 57/22/19
f 103/78/73 71/79/74 59/28/26 100/27/25
f 71/79/74 72/80/75 60/34/32 59/28/26
f 98/81/76 62/65/61 50/2/2 97/38/36
f 2/82/77 4/83/78 61/66/62 62/65/61
f 96/84/79 6/85/80 63/68/64 95/67/63
f 93/86/81 8/87/82 64/70/66 92/69/65
f 8/87/82 10/88/83 65/71/67 64/70/66
f 10/88/83 12/89/84 66/72/68 65/71/67
f 12/89/84 14/31/29 67/73/69 66/72/68
f 14/31/29 16/30/28 68/74/70 67/73/69
f 16/30/28 18/90/85 69/75/71 68/74/70
f 18/91/85 20/92/86 70/77/72 69/76/71
f 106/93/87 22/94/88 71/79/74 103/78/73
f 22/94/88 24/95/89 72/80/75 71/79/74
f 99/96/90 2/82/77 62/65/61 98/81/76
f 10/88/83 8/87/82 76/97/91 77/98/92
f 24/95/89 22/94/88 83/99/93 84/100/94
f 4/83/78 2/82/77 74/101/95 116/102/96 73/103/97
f 18/90/85 16/30/28 80/33/31 110/104/98 81/105/99
f 12/89/84 10/88/83 77/98/92 78/106/100
f 2/82/77 99/96/90 90/107/101 87/108/102 24/95/89 84/100/94 74/101/95
f 6/85/80 96/84/79 4/83/78 73/103/97 117/109/103 111/110/104 75/111/105
f 20/92/86 18/91/85 81/112/99 112/113/106 115/114/107 114/115/108 113/116/109 82/117/110
f 14/31/29 12/89/84 78/106/100 79/32/30
f 8/87/82 93/86/81 6/85/80 75/111/105 109/118/111 76/97/91
f 22/94/88 106/93/87 107/119/112 108/120/113 20/92/86 82/117/110 83/99/93
f 24/95/89 87/108/102 86/121/114 72/80/75
f 72/80/75 86/121/114 85/36/34 60/34/32
f 87/108/102 90/107/101 89/122/115 86/121/114
f 86/121/114 89/122/115 88/37/35 85/36/34
f 6/85/80 93/86/81 92/69/65 63/68/64
f 63/68/64 92/69/65 91/8/8 51/6/6
f 4/83/78 96/84/79 95/67/63 61/66/62
f 61/66/62 95/67/63 94/5/5 49/3/3
f 90/107/101 99/96/90 98/81/76 89/122/115
f 89/122/115 98/81/76 97/38/36 88/37/35
f 20/92/86 108/120/113 105/123/116 70/77/72
f 108/120/113 107/119/112 104/124/117 105/123/116
f 107/119/112 106/93/87 103/78/73 104/124/117
f 70/77/72 105/123/116 102/25/23 58/23/21
f 105/123/116 104/124/117 101/26/24 102/25/23
f 104/124/117 103/78/73 100/27/25 101/26/24
usemtl Wood_End
s off
f 109/125/118 110/126/118 80/127/118 79/128/118 78/129/118 77/130/118 76/131/118
f 111/132/119 112/133/119 81/134/119 75/135/119
f 75/135/120 81/134/120 110/126/120 109/125/120
f 116/136/121 74/137/121 84/138/121 83/139/121 82/140/121 113/141/121
f 117/142/122 73/143/122 114/144/122 115/145/122
f 73/143/123 116/136/123 113/141/123 114/144/123
f 111/132/124 117/142/124 115/145/124 112/133/124
