# Blender v2.90.0 OBJ File: 'Nature Kit.blend'
# www.blender.org
mtllib Timber_Cut_3.mtl
o Cylinder.080_Cylinder.139
v -0.405250 0.049136 -0.079601
v 0.405250 0.049136 -0.079601
v -0.405250 0.034898 -0.072590
v 0.405250 0.034898 -0.072590
v -0.405250 0.012369 -0.040672
v 0.405250 0.012369 -0.040672
v -0.405250 0.003769 -0.002562
v 0.405250 0.003769 -0.002562
v -0.405250 0.010408 0.035938
v 0.405250 0.010408 0.035939
v -0.405250 0.031275 0.068968
v 0.405250 0.031275 0.068968
v -0.405250 0.063193 0.091497
v 0.405250 0.063193 0.091497
v -0.405250 0.101304 0.100097
v 0.405250 0.101304 0.100097
v -0.405250 0.116127 0.096952
v 0.405250 0.116127 0.096952
v -0.246176 0.045662 -0.088757
v 0.246176 0.045663 -0.088757
v -0.246176 0.027745 -0.080119
v 0.246176 0.027745 -0.080119
v -0.246175 0.002879 -0.044890
v 0.246176 0.002879 -0.044890
v -0.246176 -0.006612 -0.002827
v 0.246176 -0.006612 -0.002827
v -0.246176 0.000715 0.039666
v 0.246176 0.000715 0.039666
v -0.246175 0.023747 0.076120
v 0.246176 0.023747 0.076120
v -0.246175 0.058975 0.100986
v 0.246176 0.058975 0.100986
v -0.246176 0.101038 0.110478
v 0.246176 0.101038 0.110478
v -0.246176 0.119601 0.106108
v 0.246176 0.119601 0.106108
v 0.405250 0.107410 -0.005424
v -0.405250 0.107410 -0.005424
vt 0.800781 0.144531
vt 0.863281 0.144531
vt 0.863281 0.312500
vt 0.800781 0.312500
vt 0.738281 0.144531
vt 0.738281 0.312500
vt 0.675781 0.144531
vt 0.675781 0.312500
vt 0.613281 0.144531
vt 0.613281 0.312500
vt 0.550781 0.144531
vt 0.550781 0.312500
vt 0.488281 0.144531
vt 0.488281 0.312500
vt 0.425781 0.144531
vt 0.425781 0.312500
vt 0.363281 0.144531
vt 0.363281 0.312500
vt 0.863281 -0.023438
vt 0.800781 -0.023438
vt 0.863281 -0.187500
vt 0.800781 -0.187500
vt 0.738281 -0.023438
vt 0.738281 -0.187500
vt 0.675781 -0.023438
vt 0.675781 -0.187500
vt 0.613281 -0.023438
vt 0.613281 -0.187500
vt 0.550781 -0.023438
vt 0.550781 -0.187500
vt 0.488281 -0.023438
vt 0.488281 -0.187500
vt 0.425781 -0.023438
vt 0.425781 -0.187500
vt 0.363281 -0.023438
vt 0.363281 -0.187500
vt 0.835938 0.433594
vt 0.500000 0.500000
vt 0.164062 0.566406
vt 0.164062 0.433594
vt 0.214844 0.308594
vt 0.308594 0.214844
vt 0.433594 0.164062
vt 0.566406 0.164062
vt 0.691406 0.214844
vt 0.785156 0.308594
vt 0.562500 0.820312
vt 0.500000 0.500000
vt 0.437500 0.179688
vt 0.562500 0.179688
vt 0.679688 0.226562
vt 0.773438 0.320312
vt 0.820312 0.437500
vt 0.820312 0.562500
vt 0.773438 0.679688
vt 0.679688 0.773438
vt 0.707031 0.082031
vt 0.707031 1.082031
vt 0.531250 1.082031
vt 0.515625 0.886719
vt 0.515625 0.277344
vt 0.531250 0.082031
vt 0.882812 0.082031
vt 0.898438 0.277344
vt 0.898438 0.886719
vt 0.882812 1.082031
vn 0.0323 -0.6468 -0.7619
vn 0.0201 0.2293 -0.9731
vn 0.6049 0.1985 -0.7711
vn 0.6796 -0.4748 -0.5592
vn 0.0324 -0.9133 -0.4060
vn 0.6895 -0.6618 -0.2942
vn 0.0324 -0.9991 -0.0255
vn 0.6895 -0.7240 -0.0185
vn 0.0324 -0.9329 0.3587
vn 0.6895 -0.6760 0.2599
vn 0.0324 -0.7246 0.6884
vn 0.6895 -0.5250 0.4988
vn 0.0324 -0.4060 0.9133
vn 0.6895 -0.2942 0.6618
vn 0.0321 0.0020 0.9995
vn 0.6861 -0.0001 0.7275
vn 0.0208 0.8095 0.5867
vn 0.5990 0.6573 0.4573
vn -0.0201 0.2293 -0.9731
vn -0.0323 -0.6468 -0.7619
vn -0.6049 0.1985 -0.7711
vn -0.6796 -0.4748 -0.5592
vn -0.0324 -0.9133 -0.4060
vn -0.6895 -0.6618 -0.2942
vn -0.0324 -0.9991 -0.0255
vn -0.6895 -0.7240 -0.0185
vn -0.0324 -0.9329 0.3587
vn -0.6895 -0.6760 0.2599
vn -0.0324 -0.7246 0.6884
vn -0.6895 -0.5250 0.4988
vn -0.0324 -0.4060 0.9133
vn -0.6895 -0.2942 0.6618
vn -0.0321 0.0020 0.9995
vn -0.6861 -0.0001 0.7275
vn -0.0208 0.8095 0.5867
vn -0.5990 0.6573 0.4573
vn 1.0000 -0.0000 0.0000
vn -1.0000 -0.0000 0.0000
vn -0.0000 0.9945 -0.1043
vn -0.0000 0.8004 -0.5995
usemtl Bark_Firewood
s 1
f 22/1/1 20/2/2 2/3/3 4/4/4
f 24/5/5 22/1/1 4/4/4 6/6/6
f 26/7/7 24/5/5 6/6/6 8/8/8
f 28/9/9 26/7/7 8/8/8 10/10/10
f 30/11/11 28/9/9 10/10/10 12/12/12
f 32/13/13 30/11/11 12/12/12 14/14/14
f 34/15/15 32/13/13 14/14/14 16/16/16
f 36/17/17 34/15/15 16/16/16 18/18/18
f 19/19/19 20/2/2 22/1/1 21/20/20
f 1/21/21 19/19/19 21/20/20 3/22/22
f 21/20/20 22/1/1 24/5/5 23/23/23
f 3/22/22 21/20/20 23/23/23 5/24/24
f 23/23/23 24/5/5 26/7/7 25/25/25
f 5/24/24 23/23/23 25/25/25 7/26/26
f 25/25/25 26/7/7 28/9/9 27/27/27
f 7/26/26 25/25/25 27/27/27 9/28/28
f 27/27/27 28/9/9 30/11/11 29/29/29
f 9/28/28 27/27/27 29/29/29 11/30/30
f 29/29/29 30/11/11 32/13/13 31/31/31
f 11/30/30 29/29/29 31/31/31 13/32/32
f 31/31/31 32/13/13 34/15/15 33/33/33
f 13/32/32 31/31/31 33/33/33 15/34/34
f 33/33/33 34/15/15 36/17/17 35/35/35
f 15/34/34 33/33/33 35/35/35 17/36/36
usemtl Wood_End
s off
f 2/37/37 37/38/37 18/39/37 16/40/37 14/41/37 12/42/37 10/43/37 8/44/37 6/45/37 4/46/37
f 17/47/38 38/48/38 1/49/38 3/50/38 5/51/38 7/52/38 9/53/38 11/54/38 13/55/38 15/56/38
usemtl Wood
f 37/57/39 38/58/39 17/59/39 35/60/39 36/61/39 18/62/39
f 2/63/40 20/64/40 19/65/40 1/66/40 38/58/40 37/57/40
