# Blender v2.90.0 OBJ File: 'Nature Kit.blend'
# www.blender.org
mtllib Timber_Cut_4.mtl
o Cylinder.083_Cylinder.141
v 0.449418 0.036341 0.068725
v -0.455426 0.036341 0.075479
v 0.452174 0.015192 0.037193
v -0.455426 0.015192 0.043828
v 0.455426 0.007766 -0.000000
v -0.455426 0.007766 0.006493
v 0.458677 0.015192 -0.037193
v -0.455426 0.015192 -0.030842
v 0.461433 0.036341 -0.068725
v -0.455426 0.036341 -0.062494
v 0.463276 0.067992 -0.089793
v -0.455426 0.067992 -0.083642
v 0.278971 0.024958 0.071922
v -0.274278 0.031310 0.082393
v 0.277850 0.000320 0.035065
v -0.275310 0.008619 0.048449
v 0.276528 -0.008331 -0.008410
v -0.276528 0.000651 0.008410
v 0.275206 0.000320 -0.051885
v -0.277746 0.008619 -0.031629
v 0.274085 0.024958 -0.088741
v -0.278778 0.031310 -0.065573
v 0.273336 0.061832 -0.113368
v -0.279468 0.065269 -0.088254
v -0.455426 0.045855 0.081837
v -0.274084 0.040861 0.088772
v 0.463490 0.080368 -0.092245
v 0.448672 0.049155 0.077254
v 0.273268 0.073064 -0.115602
v -0.279561 0.080660 -0.091314
v -0.455426 0.082176 -0.086464
v 0.279356 0.043890 0.084565
v 0.455800 0.107876 -0.004284
v -0.455426 0.107876 -0.004284
vt 0.503906 0.687500
vt 0.521484 0.687500
vt 0.522694 0.855469
vt 0.503906 0.855469
vt 0.441406 0.687500
vt 0.441406 0.855469
vt 0.378906 0.687500
vt 0.378906 0.855469
vt 0.316406 0.687500
vt 0.316406 0.855469
vt 0.253906 0.687500
vt 0.253906 0.855469
vt 0.191406 0.687500
vt 0.191406 0.855469
vt 0.503906 0.523438
vt 0.441406 0.523438
vt 0.503906 0.355469
vt 0.441406 0.355469
vt 0.378906 0.523438
vt 0.378906 0.355469
vt 0.316406 0.523438
vt 0.316406 0.355469
vt 0.253906 0.523438
vt 0.253906 0.355469
vt 0.191406 0.523438
vt 0.191406 0.355469
vt 0.167393 0.687500
vt 0.175266 0.523438
vt 0.170688 0.355469
vt 0.529210 0.355469
vt 0.535995 0.523438
vt 0.167661 0.855469
vt 0.777344 0.480254
vt 0.510838 0.509727
vt 0.310538 0.294930
vt 0.343750 0.261719
vt 0.441406 0.222656
vt 0.558594 0.222656
vt 0.656250 0.261719
vt 0.738281 0.343750
vt 0.777344 0.441406
vt 0.769531 0.478190
vt 0.470683 0.489071
vt 0.317975 0.299212
vt 0.347656 0.269531
vt 0.445312 0.230469
vt 0.554688 0.230469
vt 0.652344 0.269531
vt 0.730469 0.347656
vt 0.769531 0.445312
vt 0.300781 0.925781
vt 0.292969 0.039062
vt 0.472656 0.039062
vt 0.484375 0.210938
vt 0.484375 0.753906
vt 0.472656 0.917969
vt 0.109375 0.750000
vt 0.140625 0.207031
vt 0.148438 0.039062
vt 0.152344 0.929688
vn -0.0205 -0.7054 0.7085
vn -0.0130 0.1693 0.9855
vn -0.5911 0.1558 0.7914
vn -0.6828 -0.5168 0.5164
vn -0.0240 -0.9225 0.3852
vn -0.6817 -0.6761 0.2796
vn -0.0280 -0.9996 0.0031
vn -0.6803 -0.7329 -0.0005
vn -0.0318 -0.9245 -0.3798
vn -0.6789 -0.6781 -0.2815
vn -0.0351 -0.7082 -0.7051
vn -0.6776 -0.5196 -0.5204
vn -0.0372 -0.3835 -0.9228
vn -0.6768 -0.2814 -0.6803
vn 0.0327 -0.7085 0.7050
vn 0.0346 -0.9245 0.3795
vn 0.6639 -0.5017 0.5545
vn 0.6787 -0.6582 0.3257
vn 0.0366 -0.9993 -0.0034
vn 0.6962 -0.7159 0.0533
vn 0.0384 -0.9219 -0.3854
vn 0.7138 -0.6644 -0.2217
vn 0.0396 -0.7048 -0.7083
vn 0.7288 -0.5103 -0.4566
vn 0.0405 -0.3811 -0.9236
vn 0.7389 -0.2768 -0.6144
vn -0.0250 0.5086 -0.8606
vn 0.0281 0.4874 -0.8727
vn 0.6440 0.4292 -0.6333
vn 0.5554 0.1583 0.8163
vn 0.0219 0.1716 0.9849
vn -0.5903 0.4184 -0.6903
vn 0.9962 0.0000 0.0871
vn -1.0000 0.0000 0.0000
vn -0.0000 0.8115 0.5844
vn -0.0000 0.9544 -0.2985
usemtl Bark_Firewood
s 1
f 14/1/1 26/2/2 25/3/3 2/4/4
f 16/5/5 14/1/1 2/4/4 4/6/6
f 18/7/7 16/5/5 4/6/6 6/8/8
f 20/9/9 18/7/7 6/8/8 8/10/10
f 22/11/11 20/9/9 8/10/10 10/12/12
f 24/13/13 22/11/11 10/12/12 12/14/14
f 13/15/15 14/1/1 16/5/5 15/16/16
f 1/17/17 13/15/15 15/16/16 3/18/18
f 15/16/16 16/5/5 18/7/7 17/19/19
f 3/18/18 15/16/16 17/19/19 5/20/20
f 17/19/19 18/7/7 20/9/9 19/21/21
f 5/20/20 17/19/19 19/21/21 7/22/22
f 19/21/21 20/9/9 22/11/11 21/23/23
f 7/22/22 19/21/21 21/23/23 9/24/24
f 21/23/23 22/11/11 24/13/13 23/25/25
f 9/24/24 21/23/23 23/25/25 11/26/26
f 23/25/25 24/13/13 30/27/27 29/28/28
f 11/26/26 23/25/25 29/28/28 27/29/29
f 28/30/30 32/31/31 13/15/15 1/17/17
f 31/32/32 30/27/27 24/13/13 12/14/14
f 32/31/31 26/2/2 14/1/1 13/15/15
usemtl Wood_End
s off
f 27/33/33 33/34/33 28/35/33 1/36/33 3/37/33 5/38/33 7/39/33 9/40/33 11/41/33
f 25/42/34 34/43/34 31/44/34 12/45/34 10/46/34 8/47/34 6/48/34 4/49/34 2/50/34
usemtl Wood
f 33/51/35 34/52/35 25/53/35 26/54/35 32/55/35 28/56/35
f 29/57/36 30/58/36 31/59/36 34/52/36 33/51/36 27/60/36
