# Blender v2.90.0 OBJ File: 'Nature Kit.blend'
# www.blender.org
mtllib Tree_Pine_2.mtl
o Cone.080_Cone.143
v 0.001716 3.526643 -0.828766
v 0.704550 3.523190 -0.423553
v 0.705064 3.527321 0.387707
v 0.002745 3.534904 0.793754
v 0.027293 6.723417 -0.033776
v -0.700090 3.538356 0.388542
v -0.700604 3.534226 -0.422718
v 0.002230 3.530773 -0.017506
vt 0.500000 0.500000
vt 1.000000 0.000000
vt 0.000000 0.000000
vt 0.000000 0.000000
vt 1.000000 0.000000
vt -0.000000 0.000000
vt 1.000000 0.000000
vt 0.000000 0.000000
vt 1.000000 0.000000
vt 0.000000 0.000000
vt 1.000000 0.000000
vt 0.750000 0.000000
vt 0.500000 1.000000
vt 0.250000 0.000000
vt 0.750000 0.000000
vt 0.250000 0.000000
vt 0.750000 0.000000
vt 0.250000 0.000000
vt 0.750000 0.000000
vt 0.250000 0.000000
vt 0.750000 0.000000
vt 0.250000 0.000000
vt 0.750000 0.000000
vt 0.250000 0.000000
vn -0.0079 -1.0000 0.0051
vn -0.0078 -1.0000 0.0051
vn -0.0046 -0.5197 -0.8543
vn 0.0078 0.9999 -0.0051
vn 0.7378 -0.5233 -0.4263
vn 0.7384 -0.5190 0.4306
vn -0.0035 -0.5109 0.8596
vn -0.7459 -0.5073 0.4315
vn -0.7465 -0.5117 -0.4254
usemtl Leaves_Pine
s off
f 8/1/1 3/2/1 4/3/1
f 7/4/2 1/5/2 8/1/2
f 6/6/2 7/7/2 8/1/2
f 2/8/1 3/2/1 8/1/1
f 4/3/2 6/9/2 8/1/2
f 1/10/1 2/11/1 8/1/1
s 1
f 1/12/3 5/13/4 2/14/5
f 2/15/5 5/13/4 3/16/6
f 3/17/6 5/13/4 4/18/7
f 4/19/7 5/13/4 6/20/8
f 6/21/8 5/13/4 7/22/9
f 7/23/9 5/13/4 1/24/3
o Cone.081_Cone.144
v 0.003009 2.260362 -1.018797
v 0.880811 2.287822 -0.507573
v 0.876744 2.320392 0.508550
v -0.005125 2.325503 1.013448
v -0.045438 5.819338 -0.115886
v -0.882928 2.298043 0.502223
v -0.878861 2.265473 -0.513899
v -0.001058 2.292933 -0.002674
vt 0.500000 0.500000
vt 1.000000 0.000000
vt 0.000000 0.000000
vt 0.000000 0.000000
vt 1.000000 0.000000
vt -0.000000 0.000000
vt 1.000000 0.000000
vt 0.000000 0.000000
vt 1.000000 0.000000
vt 0.000000 0.000000
vt 1.000000 0.000000
vt 0.750000 0.000000
vt 0.500000 1.000000
vt 0.250000 0.000000
vt 0.750000 0.000000
vt 0.250000 0.000000
vt 0.750000 0.000000
vt 0.250000 0.000000
vt 0.750000 0.000000
vt 0.250000 0.000000
vt 0.750000 0.000000
vt 0.250000 0.000000
vt 0.750000 0.000000
vt 0.250000 0.000000
vn 0.0126 -0.9994 0.0321
vn 0.0098 -0.5305 -0.8476
vn -0.0126 0.9994 -0.0321
vn 0.7564 -0.5072 -0.4129
vn 0.7530 -0.4796 0.4506
vn 0.0029 -0.4751 0.8799
vn -0.7437 -0.4986 0.4452
vn -0.7403 -0.5263 -0.4183
usemtl Leaves_Pine
s off
f 16/25/10 11/26/10 12/27/10
f 15/28/10 9/29/10 16/25/10
f 14/30/10 15/31/10 16/25/10
f 10/32/10 11/26/10 16/25/10
f 12/27/10 14/33/10 16/25/10
f 9/34/10 10/35/10 16/25/10
s 1
f 9/36/11 13/37/12 10/38/13
f 10/39/13 13/37/12 11/40/14
f 11/41/14 13/37/12 12/42/15
f 12/43/15 13/37/12 14/44/16
f 14/45/16 13/37/12 15/46/17
f 15/47/17 13/37/12 9/48/11
o Cone.082_Cone.145
v 0.000000 0.930917 -1.272321
v 1.101862 0.930917 -0.636160
v 1.101862 0.930917 0.636160
v -0.000000 0.930917 1.272321
v 0.000000 4.669256 0.000000
v -1.101862 0.930917 0.636160
v -1.101862 0.930917 -0.636160
v -0.000000 0.930917 0.000000
vt 0.500000 0.500000
vt 1.000000 0.000000
vt 0.000000 0.000000
vt 0.000000 0.000000
vt 1.000000 0.000000
vt -0.000000 0.000000
vt 1.000000 0.000000
vt 0.000000 0.000000
vt 1.000000 0.000000
vt 0.000000 0.000000
vt 1.000000 0.000000
vt 0.750000 0.000000
vt 0.500000 1.000000
vt 0.250000 0.000000
vt 0.750000 0.000000
vt 0.250000 0.000000
vt 0.750000 0.000000
vt 0.250000 0.000000
vt 0.750000 0.000000
vt 0.250000 0.000000
vt 0.750000 0.000000
vt 0.250000 0.000000
vt 0.750000 0.000000
vt 0.250000 0.000000
vn 0.0000 -1.0000 0.0000
vn 0.0000 -0.4848 -0.8746
vn 0.0000 1.0000 0.0000
vn 0.7574 -0.4848 -0.4373
vn 0.7574 -0.4848 0.4373
vn 0.0000 -0.4848 0.8746
vn -0.7574 -0.4848 0.4373
vn -0.7574 -0.4848 -0.4373
usemtl Leaves_Pine
s off
f 24/49/18 19/50/18 20/51/18
f 23/52/18 17/53/18 24/49/18
f 22/54/18 23/55/18 24/49/18
f 18/56/18 19/50/18 24/49/18
f 20/51/18 22/57/18 24/49/18
f 17/58/18 18/59/18 24/49/18
s 1
f 17/60/19 21/61/20 18/62/21
f 18/63/21 21/61/20 19/64/22
f 19/65/22 21/61/20 20/66/23
f 20/67/23 21/61/20 22/68/24
f 22/69/24 21/61/20 23/70/25
f 23/71/25 21/61/20 17/72/19
o Cube.080_Cube.278
v 0.227947 0.000000 0.096628
v 0.104285 -0.000000 0.215332
v -0.104285 0.000000 0.215332
v -0.227947 -0.000000 0.096628
v -0.227947 0.000000 -0.096628
v -0.104285 -0.000000 -0.215332
v 0.104285 0.000000 -0.215332
v 0.227947 -0.000000 -0.096628
v 0.185310 0.149013 0.093661
v 0.093661 0.149013 0.185310
v -0.093661 0.149013 0.185310
v -0.185310 0.149013 0.093661
v -0.185310 0.149013 -0.093661
v -0.093661 0.149013 -0.185310
v 0.093661 0.149013 -0.185310
v 0.185310 0.149013 -0.093661
v 0.065820 1.423061 0.157345
v 0.157345 1.423061 0.065820
v -0.157345 1.423061 0.065820
v -0.065820 1.423061 0.157345
v -0.065820 1.423061 -0.157345
v -0.157345 1.423061 -0.065820
v 0.157345 1.423061 -0.065820
v 0.065820 1.423061 -0.157345
vt 0.196880 0.174913
vt 0.079815 0.175887
vt 0.027544 0.002373
vt 0.162650 0.003532
vt 0.706705 0.174493
vt 0.828507 0.175101
vt 0.748243 0.998335
vt 0.666624 0.998701
vt 0.736258 0.003968
vt 0.856904 0.003292
vt 0.621332 0.174170
vt 0.495340 0.174081
vt 0.501271 0.004363
vt 0.629720 0.004193
vt 0.422158 0.998923
vt 0.408529 0.174139
vt 0.503036 0.998999
vt 0.585581 0.998916
vt 0.259197 0.998345
vt 0.177321 0.997846
vt 0.271270 0.004133
vt 0.282216 0.174535
vt 0.960737 0.002289
vt 0.908982 0.175729
vt 0.394419 0.004394
vt 0.339958 0.998708
vt 0.828255 0.997846
vn 0.3794 0.1247 0.9168
vn -0.3794 0.1247 0.9168
vn -0.3664 0.2138 0.9055
vn 0.3664 0.2138 0.9055
vn -0.9074 0.1466 -0.3939
vn -0.9074 0.1466 0.3939
vn -0.9246 0.0286 0.3798
vn -0.9246 0.0286 -0.3798
vn -0.8975 0.2589 -0.3569
vn -0.8975 0.2589 0.3569
vn -0.3794 0.1247 -0.9168
vn 0.3794 0.1247 -0.9168
vn 0.3664 0.2138 -0.9055
vn -0.3664 0.2138 -0.9055
vn 0.9246 0.0286 -0.3798
vn 0.9074 0.1466 -0.3939
vn 0.3798 0.0286 -0.9246
vn -0.3798 0.0286 -0.9246
vn 0.3798 0.0286 0.9246
vn -0.3798 0.0286 0.9246
vn 0.8975 0.2589 0.3569
vn 0.9074 0.1466 0.3939
vn 0.8975 0.2589 -0.3569
vn 0.9246 0.0286 0.3798
usemtl Bark_Pine
s 1
f 34/73/26 35/74/27 27/75/28 26/76/29
f 37/77/30 36/78/31 43/79/32 46/80/33
f 36/78/31 37/77/30 29/81/34 28/82/35
f 38/83/36 39/84/37 31/85/38 30/86/39
f 47/87/40 40/88/41 39/84/37 48/89/42
f 39/84/37 38/83/36 45/90/43 48/89/42
f 35/74/27 34/73/26 41/91/44 44/92/45
f 25/93/46 33/94/47 34/73/26 26/76/29
f 36/78/31 28/82/35 27/95/28 35/96/27
f 38/83/36 30/86/39 29/81/34 37/77/30
f 40/88/41 32/97/48 31/85/38 39/84/37
f 33/94/47 40/88/41 47/87/40 42/98/49
f 33/94/47 42/98/49 41/91/44 34/73/26
f 45/90/43 38/83/36 37/77/30 46/80/33
f 43/79/32 36/78/31 35/96/27 44/99/45
f 40/88/41 33/94/47 25/93/46 32/97/48
