# Blender v2.90.0 OBJ File: 'Nature Kit.blend'
# www.blender.org
mtllib Tree_Bare_3.mtl
o Cube.081_Cube.220
v 0.308760 -0.007231 0.022582
v -0.027240 -0.011965 0.350906
v -0.362603 0.019255 0.015208
v -0.019782 0.012460 -0.316613
v 0.114223 4.049555 0.331249
v 0.057037 4.049042 0.288617
v 0.096146 4.066846 0.235614
v 0.152671 4.068822 0.272235
v 0.340979 5.168609 0.079399
v 0.478447 4.188840 -0.031444
v 0.435182 4.184737 0.028942
v 0.376129 4.185927 -0.011200
v 0.414750 4.190586 -0.073300
v 0.185601 0.373488 0.049923
v -0.177339 0.383321 0.049522
v 0.005719 0.377567 -0.132479
v 0.025939 4.930219 0.398092
v 0.800396 2.904885 0.290485
v 0.764353 2.907986 0.360176
v 0.709379 2.953032 0.327412
v 0.746238 2.948031 0.259112
v 1.204316 3.709893 0.413184
v -0.112972 2.057455 -0.770441
v -0.019348 2.057033 -0.783982
v -0.023152 2.094988 -0.733194
v -0.094111 2.096147 -0.722946
v -0.174285 2.557966 -1.134568
v -0.107325 2.557623 -1.145800
v -0.093988 2.579916 -1.086881
v -0.164312 2.581115 -1.073453
v -0.216731 3.509255 -1.319665
v 0.338187 3.326540 0.040844
v 0.253544 3.328719 -0.021163
v 0.315055 3.364475 -0.124861
v 0.399151 3.367390 -0.003129
v 0.293267 3.452434 -0.050743
v 0.377910 3.445101 0.004113
v 0.417669 3.360587 -0.091449
v 0.241981 2.491894 -0.115043
v 0.251480 2.533522 -0.003758
v 0.120593 2.473388 -0.010440
v 0.114841 2.472151 -0.114395
v 0.350556 3.045832 -0.113805
v 0.352231 3.046481 -0.011467
v 0.256182 3.067591 -0.007765
v 0.252342 3.066406 -0.111201
v 0.086094 1.683607 -0.145337
v 0.166533 1.673600 -0.009139
v 0.026190 1.704174 0.032065
v -0.012568 1.681316 -0.116591
v 0.165155 2.204926 -0.130652
v 0.196126 2.209145 -0.023886
v 0.087971 2.214407 0.004689
v 0.062205 2.211763 -0.105640
v 0.169150 1.408408 -0.039053
v 0.030107 1.421592 0.084556
v -0.062161 1.415210 -0.042901
v 0.051245 1.410401 -0.156670
v 0.314181 2.407500 -0.028703
v 0.252261 2.417388 0.069949
v -0.073248 1.593301 -0.192221
v 0.094208 1.594332 -0.226208
v -0.219119 3.361893 -1.262735
v -0.183957 3.361294 -1.269449
v -0.190625 3.350147 -1.298909
v -0.224105 3.350319 -1.293293
v 1.164723 3.572632 0.391354
v 1.146701 3.574183 0.426199
v 1.119214 3.596706 0.409817
v 1.137644 3.594205 0.375667
v 0.377350 5.049975 0.067645
v 0.345502 5.050848 0.046717
v 0.326191 5.048518 0.077767
v 0.355718 5.047923 0.097838
v 0.044939 4.822281 0.409441
v 0.064163 4.831914 0.379934
v 0.035901 4.830926 0.361624
v 0.016347 4.822025 0.388125
vt 0.213178 0.625031
vt 0.290139 0.664126
vt 0.376284 0.639543
vt 0.303967 0.620365
vt 0.371780 0.536592
vt 0.390107 0.605021
vt 0.191217 0.403661
vt 0.290768 0.347728
vt 0.290963 0.506255
vt 0.169905 0.515070
vt 0.251328 0.152394
vt 0.385679 0.077482
vt 0.386781 0.165550
vt 0.216968 -0.098445
vt 0.425360 -0.148018
vt 0.424478 -0.294738
vt 0.205886 -0.192415
vt 0.275368 0.116950
vt 0.047902 0.107358
vt 0.183067 0.146179
vt 0.303642 0.312594
vt 0.363945 0.398543
vt 0.448649 0.352915
vt 0.201152 -0.295188
vt 0.156151 0.083873
vt 0.067077 0.171480
vt 0.147143 0.375541
vt 0.102712 0.303412
vt 0.209223 0.384948
vt 0.140988 0.315194
vt -0.044953 -0.104584
vt -0.059961 -0.202581
vt 0.434488 0.542753
vt 0.282945 0.550517
vt 0.476054 0.635665
vt 0.246007 0.298442
vt 0.219692 0.544615
vt 0.387691 0.658855
vt 0.161088 0.766292
vt 0.227285 0.762783
vt 0.224687 0.836534
vt 0.317658 0.343776
vt 0.124777 0.184510
vt 0.313525 0.348327
vt 0.205815 0.771557
vt 0.433155 1.224916
vt 0.392923 1.222135
vt 0.395280 1.271530
vt 0.387725 0.904539
vt 0.466349 0.905122
vt 0.371078 1.226496
vt 0.303513 0.181856
vt 0.407994 0.347025
vt 0.334531 1.223739
vt 0.281569 0.903888
vt 0.352836 0.904600
vt 0.395865 1.236476
vt 0.362142 1.234819
vt 0.340691 1.279476
vt 0.305741 0.679688
vt 0.351312 0.679438
vt 0.333229 0.716128
vt 0.354653 0.938475
vt 0.239372 0.936463
vt 0.296610 0.935200
vt 0.368024 0.520098
vt 0.389365 0.486973
vt 0.297957 0.487752
vt 0.358492 0.677557
vt 0.315754 0.677719
vt 0.250669 0.528081
vt 0.440985 0.342324
vt 0.417520 0.937567
vt 0.318006 0.486086
vt 0.403256 0.485445
vt 0.300334 1.235150
vt 0.331322 1.236881
vt 0.270239 0.768388
vn -0.9996 -0.0212 0.0184
vn -0.8253 0.2338 -0.5139
vn -0.4523 0.0737 -0.8888
vn 0.1629 -0.1841 0.9693
vn 0.7011 -0.1829 0.6891
vn 0.8560 -0.0758 0.5113
vn -0.1989 0.5542 0.8082
vn -0.0041 -0.2262 0.9741
vn 0.1202 -0.3636 0.9238
vn -0.7684 0.5307 0.3576
vn 0.9202 0.0480 0.3884
vn 0.9972 -0.0304 0.0683
vn 0.6530 -0.2744 -0.7059
vn 0.0262 0.2451 -0.9691
vn 0.9844 0.1635 -0.0649
vn 0.9644 0.2645 -0.0039
vn 0.0180 0.4478 -0.8939
vn 0.0340 -0.3229 -0.9458
vn -0.9998 0.0006 0.0180
vn -0.9206 -0.2245 -0.3195
vn 0.4251 -0.1148 -0.8978
vn 0.3955 0.0315 -0.9179
vn 0.8401 -0.5000 -0.2104
vn -0.0394 0.2103 0.9768
vn -0.1101 0.1520 0.9822
vn -0.4477 0.1554 0.8806
vn -0.7706 0.2391 0.5907
vn -0.5618 0.0167 0.8271
vn -0.7472 0.1578 -0.6455
vn -0.8270 0.1412 -0.5442
vn -0.9560 0.2656 -0.1242
vn -0.9268 0.3709 -0.0581
vn 0.7236 -0.1324 -0.6774
vn -0.6710 0.0910 -0.7358
vn 0.8803 -0.0935 -0.4650
vn 0.8413 -0.3798 0.3845
vn -0.6873 0.0179 0.7261
vn 0.7598 0.1584 0.6306
vn -0.7836 0.5152 0.3471
vn 0.3036 -0.1621 0.9389
vn 0.4450 0.8909 0.0912
vn -0.8026 -0.4550 -0.3857
vn -0.8517 0.5156 0.0933
vn -0.5600 0.5621 0.6086
vn -0.1695 0.3348 -0.9269
vn 0.9648 0.2117 -0.1559
vn -0.2228 0.1815 -0.9578
vn -0.0842 0.9947 0.0588
vn -0.2253 0.1098 -0.9681
vn 0.9686 0.0482 -0.2440
vn 0.1671 0.0479 0.9847
vn 0.7713 0.4635 -0.4360
vn 0.7685 0.5321 0.3554
vn -0.9755 0.0167 0.2192
vn -0.9744 0.0135 0.2244
vn 0.2430 -0.0529 0.9686
vn 0.9498 0.2603 -0.1733
vn -0.1914 0.2309 -0.9539
vn -0.1384 0.9822 0.1270
vn -0.5765 0.2302 0.7840
vn 0.8216 0.2771 0.4981
vn -0.0767 0.9663 -0.2455
vn -0.2465 0.2544 -0.9351
vn -0.9676 -0.1920 0.1638
vn 0.1167 -0.2140 0.9698
vn 0.8166 -0.5287 -0.2315
vn 0.8411 0.3246 0.4327
vn -0.6177 0.2833 0.7336
vn 0.5500 -0.0644 -0.8326
vn -0.8154 -0.1146 -0.5674
vn -0.0408 0.4172 -0.9079
vn 0.6277 -0.4616 -0.6268
vn 0.9662 0.2424 -0.0869
vn -0.7711 -0.3086 -0.5569
vn 0.5430 -0.2702 -0.7950
vn -0.9872 -0.0056 0.1594
vn 0.1722 0.0139 0.9850
vn 0.8950 -0.3253 -0.3053
usemtl Bark_Oak
s 1
f 33/1/1 36/2/2 34/3/3
f 32/4/4 44/5/5 35/6/6
f 40/7/7 60/8/8 19/9/9 20/10/10
f 48/11/11 55/12/12 62/13/13
f 16/14/14 14/15/15 1/16/16 4/17/17
f 58/18/18 57/19/19 61/20/20
f 51/21/21 39/22/22 59/23/23
f 36/2/2 34/3/3 35/6/6
f 2/24/24 1/16/16 14/15/15 55/12/12 56/25/25
f 56/25/25 49/26/26 57/19/19
f 41/27/27 53/28/28 60/8/8
f 56/25/25 55/12/12 48/11/11 49/26/26
f 57/19/19 49/26/26 61/20/20
f 58/18/18 61/20/20 62/13/13
f 42/29/29 39/22/22 51/21/21 54/30/30
f 15/31/31 3/32/32 2/24/24 56/25/25 57/19/19
f 42/29/29 54/30/30 53/28/28 41/27/27
f 55/12/12 58/18/18 62/13/13
f 43/33/33 46/34/34 34/3/3 38/35/35
f 60/8/8 53/28/28 52/36/36 59/23/23
f 35/6/6 44/5/5 43/33/33 38/35/35
f 44/5/5 32/4/4 45/37/37
f 32/4/4 33/1/1 45/37/37
f 36/2/2 37/38/38 35/6/6 34/3/3
f 49/26/26 48/11/11 52/36/36 53/28/28
f 42/29/29 41/27/27 45/37/37 46/34/34
f 69/39/39 68/40/40 22/41/41
f 23/42/42 61/20/20 50/43/43 26/44/44
f 70/45/45 69/39/39 22/41/41
f 71/46/46 72/47/47 9/48/48
f 13/49/49 10/50/50 38/35/35 34/3/3
f 16/14/14 15/31/31 57/19/19 58/18/18
f 71/46/46 9/48/48 74/51/51
f 50/43/43 47/52/52 25/53/53 26/44/44
f 37/38/38 36/2/2 35/6/6
f 44/5/5 45/37/37 41/27/27 40/7/7
f 73/54/54 12/55/55 11/56/56 74/51/51
f 76/57/57 77/58/58 17/59/59
f 63/60/60 64/61/61 31/62/62
f 39/22/22 42/29/29 46/34/34 43/33/33
f 7/63/63 36/2/2 34/3/3 33/1/1 6/64/64
f 48/11/11 47/52/52 51/21/21 52/36/36
f 14/15/15 16/14/14 58/18/18 55/12/12
f 33/1/1 32/4/4 5/65/65 6/64/64
f 60/8/8 59/23/23 18/66/66 19/9/9
f 72/47/47 73/54/54 9/48/48
f 40/7/7 39/22/22 43/33/33 44/5/5
f 26/44/44 25/53/53 29/67/67 30/68/68
f 65/69/69 66/70/70 31/62/62
f 39/22/22 40/7/7 20/10/10 21/71/71
f 62/13/13 61/20/20 23/42/42 24/72/72
f 54/30/30 51/21/21 47/52/52 50/43/43
f 5/65/65 32/4/4 35/6/6 37/38/38 8/73/73
f 24/72/72 23/42/42 27/74/74 28/75/75
f 78/76/76 75/77/77 17/59/59
f 68/40/40 67/78/78 22/41/41
f 67/78/78 70/45/45 22/41/41
f 59/23/23 39/22/22 21/71/71 18/66/66
f 37/38/38 36/2/2 7/63/63 8/73/73
f 15/31/31 16/14/14 4/17/17 3/32/32
f 36/2/2 37/38/38 11/56/56 12/55/55
f 53/28/28 54/30/30 50/43/43 49/26/26
f 25/53/53 47/52/52 62/13/13 24/72/72
f 29/67/67 25/53/53 24/72/72 28/75/75
f 27/74/74 23/42/42 26/44/44 30/68/68
f 66/70/70 27/74/74 30/68/68 63/60/60
f 64/61/61 29/67/67 28/75/75 65/69/69
f 45/37/37 33/1/1 46/34/34
f 33/1/1 34/3/3 46/34/34
f 52/36/36 51/21/21 59/23/23
f 40/7/7 41/27/27 60/8/8
f 47/52/52 48/11/11 62/13/13
f 49/26/26 50/43/43 61/20/20
f 31/62/62 64/61/61 65/69/69
f 31/62/62 66/70/70 63/60/60
f 28/75/75 27/74/74 66/70/70 65/69/69
f 30/68/68 29/67/67 64/61/61 63/60/60
f 18/66/66 21/71/71 70/45/45 67/78/78
f 19/9/9 18/66/66 67/78/78 68/40/40
f 21/71/71 20/10/10 69/39/39 70/45/45
f 20/10/10 19/9/9 68/40/40 69/39/39
f 38/35/35 10/50/50 11/56/56 37/38/38 35/6/6
f 75/77/77 5/65/65 8/73/73 76/57/57
f 77/58/58 7/63/63 6/64/64 78/76/76
f 34/3/3 36/2/2 12/55/55 13/49/49
f 13/49/49 12/55/55 73/54/54 72/47/47
f 9/48/48 73/54/54 74/51/51
f 10/50/50 71/46/46 74/51/51 11/56/56
f 10/50/50 13/49/49 72/47/47 71/46/46
f 17/59/59 77/58/58 78/76/76
f 17/59/59 75/77/77 76/57/57
f 6/64/64 5/65/65 75/77/77 78/76/76
f 8/73/73 7/63/63 77/58/58 76/57/57
