# Blender v2.90.0 OBJ File: 'Nature Kit.blend'
# www.blender.org
mtllib Tree_Oak_2.mtl
o Cube.080_Cube.211
v 0.199643 0.000000 0.084630
v 0.091336 -0.000000 0.188594
v -0.091336 0.000000 0.188594
v -0.199643 -0.000000 0.084630
v -0.199643 0.000000 -0.084630
v -0.091336 -0.000000 -0.188594
v 0.091336 0.000000 -0.188594
v 0.199643 -0.000000 -0.084630
v 0.147844 0.200000 0.074725
v 0.074725 0.200000 0.147844
v -0.074725 0.200000 0.147844
v -0.147844 0.200000 0.074725
v -0.147844 0.200000 -0.074725
v -0.074725 0.200000 -0.147844
v 0.074725 0.200000 -0.147844
v 0.147844 0.200000 -0.074725
v 0.052512 1.280758 0.125533
v 0.125533 1.280758 0.052512
v -0.125533 1.280758 0.052512
v -0.052512 1.280758 0.125533
v -0.052512 1.280758 -0.125533
v -0.125533 1.280758 -0.052512
v 0.125533 1.280758 -0.052512
v 0.052512 1.280758 -0.125533
vt 0.128906 0.187500
vt 0.000000 0.187500
vt 0.000000 0.097656
vt 0.140625 0.097656
vt 0.757812 0.187500
vt 0.902344 0.187500
vt 0.882812 0.613281
vt 0.757812 0.613281
vt 0.753906 0.097656
vt 0.882812 0.097656
vt 0.648438 0.187500
vt 0.496094 0.187500
vt 0.500000 0.097656
vt 0.640625 0.097656
vt 0.378906 0.613281
vt 0.390625 0.187500
vt 0.503906 0.613281
vt 0.628906 0.613281
vt 0.125000 0.613281
vt 0.000000 0.613281
vt 0.257812 0.097656
vt 0.238281 0.187500
vt 1.000000 0.097656
vt 1.000000 0.187500
vt 0.386719 0.097656
vt 0.250000 0.613281
vt 1.000000 0.613281
vn 0.3780 0.1261 0.9171
vn -0.3780 0.1261 0.9171
vn -0.3680 0.2180 0.9039
vn 0.3680 0.2180 0.9039
vn -0.9101 0.1409 -0.3895
vn -0.9101 0.1409 0.3895
vn -0.9246 0.0269 0.3800
vn -0.9246 0.0269 -0.3800
vn -0.8974 0.2473 -0.3654
vn -0.8974 0.2473 0.3654
vn -0.3780 0.1261 -0.9171
vn 0.3780 0.1261 -0.9171
vn 0.3680 0.2180 -0.9039
vn -0.3680 0.2180 -0.9039
vn 0.9246 0.0269 -0.3800
vn 0.9101 0.1409 -0.3895
vn 0.3800 0.0269 -0.9246
vn -0.3800 0.0269 -0.9246
vn 0.3800 0.0269 0.9246
vn -0.3800 0.0269 0.9246
vn 0.8974 0.2473 0.3654
vn 0.9101 0.1409 0.3895
vn 0.8974 0.2473 -0.3654
vn 0.9246 0.0269 0.3800
usemtl Bark_Oak
s 1
f 10/1/1 11/2/2 3/3/3 2/4/4
f 13/5/5 12/6/6 19/7/7 22/8/8
f 12/6/6 13/5/5 5/9/9 4/10/10
f 14/11/11 15/12/12 7/13/13 6/14/14
f 23/15/15 16/16/16 15/12/12 24/17/17
f 15/12/12 14/11/11 21/18/18 24/17/17
f 11/2/2 10/1/1 17/19/19 20/20/20
f 1/21/21 9/22/22 10/1/1 2/4/4
f 12/6/6 4/10/10 3/23/3 11/24/2
f 14/11/11 6/14/14 5/9/9 13/5/5
f 16/16/16 8/25/23 7/13/13 15/12/12
f 9/22/22 16/16/16 23/15/15 18/26/24
f 9/22/22 18/26/24 17/19/19 10/1/1
f 21/18/18 14/11/11 13/5/5 22/8/8
f 19/7/7 12/6/6 11/24/2 20/27/20
f 16/16/16 9/22/22 1/21/21 8/25/23
o Icosphere.083_Icosphere.105
v 0.009535 1.151651 0.027581
v 0.841293 2.035495 0.601467
v -0.376133 2.061634 1.018073
v -1.106477 2.003831 -0.018402
v -0.342103 2.046245 -1.045340
v 0.865822 2.023689 -0.622498
v 0.364099 3.860042 1.009691
v -0.887362 3.882835 0.653652
v -0.921714 4.017093 -0.702692
v 0.338489 3.938844 -1.049122
v 1.079849 3.840282 0.001823
v 0.036278 5.206730 0.013128
v -0.248387 1.530689 0.733015
v 0.551287 1.491441 0.417700
v 0.323633 1.868677 0.970454
v 0.967132 1.941952 -0.002952
v 0.540449 1.481881 -0.371526
v -0.723755 1.448872 -0.038661
v -0.842070 1.867163 0.605066
v -0.215493 1.427022 -0.661106
v -0.846042 1.863639 -0.623436
v 0.303376 1.901467 -0.969246
v 1.103278 2.836463 0.346830
v 1.156076 2.857898 -0.370214
v 0.012497 2.775563 1.214590
v 0.683903 2.818290 0.905255
v -1.194509 2.794939 0.388562
v -0.716582 2.796764 0.973100
v -0.758484 2.906769 -1.043954
v -1.209981 2.855535 -0.410489
v 0.754259 2.858536 -1.024214
v -0.023937 2.892408 -1.232527
v 0.827558 3.995648 0.590075
v -0.295632 4.024642 0.939893
v -1.079221 4.143779 -0.007630
v -0.335361 4.166791 -1.033862
v 0.836220 4.043220 -0.585071
v 0.184580 4.864223 0.538449
v 0.617359 4.716497 0.009754
v -0.458253 4.913785 0.356190
v -0.405747 5.013153 -0.326834
v 0.201019 4.851494 -0.543105
vt 0.816406 0.000000
vt 0.773438 0.117188
vt 0.863281 0.117188
vt 0.726562 0.234375
vt 0.683594 0.117188
vt 0.636719 0.234375
vt 0.089844 0.000000
vt 0.046875 0.117188
vt 0.136719 0.117188
vt 0.273438 0.000000
vt 0.226562 0.117188
vt 0.316406 0.117188
vt 0.453125 0.000000
vt 0.410156 0.117188
vt 0.500000 0.117188
vt 0.683594 0.355469
vt 0.910156 0.234375
vt 0.816406 0.234375
vt 0.863281 0.355469
vt 0.183594 0.234375
vt 0.089844 0.234375
vt 0.136719 0.355469
vt 0.363281 0.234375
vt 0.273438 0.234375
vt 0.316406 0.355469
vt 0.546875 0.234375
vt 0.453125 0.234375
vt 0.500000 0.355469
vt 0.773438 0.355469
vt 0.953125 0.355469
vt 0.226562 0.355469
vt 0.410156 0.355469
vt 0.589844 0.355469
vt 0.816406 0.472656
vt 0.726562 0.472656
vt 0.773438 0.589844
vt 1.000000 0.472656
vt 0.910156 0.472656
vt 0.953125 0.589844
vt 0.273438 0.472656
vt 0.183594 0.472656
vt 0.226562 0.589844
vt 0.453125 0.472656
vt 0.363281 0.472656
vt 0.410156 0.589844
vt 0.636719 0.472656
vt 0.546875 0.472656
vt 0.589844 0.589844
vt 0.500000 0.589844
vt 0.546875 0.707031
vt 0.316406 0.589844
vt 0.363281 0.707031
vt 0.136719 0.589844
vt 0.183594 0.707031
vt 0.089844 0.472656
vt 0.863281 0.589844
vt 0.910156 0.707031
vt 0.683594 0.589844
vt 0.726562 0.707031
vt 0.046875 0.355469
vt 0.000000 0.234375
vt 0.589844 0.117188
vt 0.636719 0.000000
vn 0.0429 -0.9980 0.0456
vn 0.5438 -0.7591 0.3577
vn -0.1957 -0.7472 0.6350
vn 0.7923 -0.3295 0.5135
vn 0.8993 -0.4369 0.0206
vn -0.6107 -0.7918 -0.0044
vn -0.1440 -0.7929 -0.5920
vn 0.5450 -0.7698 -0.3321
vn 0.9404 -0.0398 0.3378
vn -0.3092 -0.3258 0.8934
vn 0.3122 -0.4516 0.8358
vn 0.0435 -0.0190 0.9989
vn -0.9272 -0.3744 -0.0006
vn -0.7055 -0.4681 0.5320
vn -0.9382 -0.0373 0.3440
vn -0.2507 -0.3587 -0.8991
vn -0.7021 -0.4673 -0.5372
vn -0.5656 -0.0369 -0.8238
vn 0.7673 -0.4078 -0.4949
vn 0.2872 -0.4658 -0.8369
vn 0.5994 -0.0320 -0.7998
vn 0.6289 -0.0210 0.7772
vn -0.5647 -0.0139 0.8251
vn -0.9534 -0.0385 -0.2991
vn 0.0102 -0.0328 -0.9994
vn 0.9691 -0.0348 -0.2441
vn 0.3215 0.2707 0.9074
vn 0.7728 0.3245 0.5455
vn 0.2800 0.6814 0.6762
vn -0.7229 0.2771 0.6329
vn -0.2543 0.3341 0.9076
vn -0.5171 0.7110 0.4765
vn -0.7644 0.3216 -0.5587
vn -0.9251 0.3765 0.0492
vn -0.4601 0.8007 -0.3837
vn 0.3446 0.3070 -0.8871
vn -0.2250 0.3896 -0.8931
vn 0.3396 0.7019 -0.6261
vn 0.9603 0.2777 0.0273
vn 0.7815 0.3713 -0.5013
vn 0.7714 0.6361 0.0182
vn 0.1527 0.9877 0.0343
usemtl Leaves_Oak
s 1
f 25/28/25 38/29/26 37/30/27
f 26/31/28 38/32/26 40/33/29
f 25/34/25 37/35/27 42/36/30
f 25/37/25 42/38/30 44/39/31
f 25/40/25 44/41/31 41/42/32
f 26/31/28 40/33/29 47/43/33
f 27/44/34 39/45/35 49/46/36
f 28/47/37 43/48/38 51/49/39
f 29/50/40 45/51/41 53/52/42
f 30/53/43 46/54/44 55/55/45
f 26/31/28 47/43/33 50/56/46
f 27/44/34 49/46/36 52/57/47
f 28/47/37 51/49/39 54/58/48
f 29/50/40 53/52/42 56/59/49
f 30/53/43 55/55/45 48/60/50
f 31/61/51 57/62/52 62/63/53
f 32/64/54 58/65/55 64/66/56
f 33/67/57 59/68/58 65/69/59
f 34/70/60 60/71/61 66/72/62
f 35/73/63 61/74/64 63/75/65
f 63/75/65 66/76/62 36/77/66
f 63/75/65 61/74/64 66/76/62
f 61/74/64 34/70/60 66/76/62
f 66/72/62 65/78/59 36/79/66
f 66/72/62 60/71/61 65/78/59
f 60/71/61 33/67/57 65/78/59
f 65/69/59 64/80/56 36/81/66
f 65/69/59 59/68/58 64/80/56
f 59/68/58 32/82/54 64/80/56
f 64/66/56 62/83/53 36/84/66
f 64/66/56 58/65/55 62/83/53
f 58/65/55 31/61/51 62/83/53
f 62/63/53 63/85/65 36/86/66
f 62/63/53 57/62/52 63/85/65
f 57/62/52 35/73/63 63/85/65
f 48/60/50 61/74/64 35/73/63
f 48/60/50 55/55/45 61/74/64
f 55/55/45 34/70/60 61/74/64
f 56/59/49 60/71/61 34/70/60
f 56/59/49 53/52/42 60/71/61
f 53/52/42 33/67/57 60/71/61
f 54/58/48 59/68/58 33/67/57
f 54/58/48 51/49/39 59/68/58
f 51/49/39 32/82/54 59/68/58
f 52/57/47 58/65/55 32/64/54
f 52/57/47 49/46/36 58/65/55
f 49/46/36 31/61/51 58/65/55
f 50/56/46 57/62/52 31/61/51
f 50/56/46 47/43/33 57/62/52
f 47/43/33 35/73/63 57/62/52
f 55/55/45 56/59/49 34/70/60
f 55/55/45 46/54/44 56/59/49
f 46/54/44 29/50/40 56/59/49
f 53/52/42 54/58/48 33/67/57
f 53/52/42 45/51/41 54/58/48
f 45/51/41 28/47/37 54/58/48
f 51/49/39 52/87/47 32/82/54
f 51/49/39 43/48/38 52/87/47
f 43/48/38 27/88/34 52/87/47
f 49/46/36 50/56/46 31/61/51
f 49/46/36 39/45/35 50/56/46
f 39/45/35 26/31/28 50/56/46
f 47/43/33 48/60/50 35/73/63
f 47/43/33 40/33/29 48/60/50
f 40/33/29 30/53/43 48/60/50
f 41/42/32 46/54/44 30/53/43
f 41/42/32 44/41/31 46/54/44
f 44/41/31 29/50/40 46/54/44
f 44/39/31 45/51/41 29/50/40
f 44/39/31 42/38/30 45/51/41
f 42/38/30 28/47/37 45/51/41
f 42/36/30 43/48/38 28/47/37
f 42/36/30 37/35/27 43/48/38
f 37/35/27 27/88/34 43/48/38
f 40/33/29 41/89/32 30/53/43
f 40/33/29 38/32/26 41/89/32
f 38/32/26 25/90/25 41/89/32
f 37/30/27 39/45/35 27/44/34
f 37/30/27 38/29/26 39/45/35
f 38/29/26 26/31/28 39/45/35
