# Blender v2.90.0 OBJ File: 'Nature Kit.blend'
# www.blender.org
mtllib Tree_Pine_5.mtl
o Cone.099_Cone.162
v 0.240767 5.504396 -1.646554
v 1.540265 5.511762 -0.693348
v 1.366469 5.429001 0.906876
v -0.106827 5.338874 1.553893
v -0.138743 10.515172 0.194758
v -1.406325 5.331508 0.600686
v -1.232529 5.414269 -0.999537
v 0.066970 5.421635 -0.046330
vt 0.500000 0.500000
vt 1.000000 0.000000
vt 0.000000 0.000000
vt 0.000000 0.000000
vt 1.000000 0.000000
vt -0.000000 0.000000
vt 1.000000 0.000000
vt 0.000000 0.000000
vt 1.000000 0.000000
vt 0.000000 0.000000
vt 1.000000 0.000000
vt 0.750000 0.000000
vt 0.500000 1.000000
vt 0.250000 0.000000
vt 0.750000 0.000000
vt 0.250000 0.000000
vt 0.750000 0.000000
vt 0.250000 0.000000
vt 0.750000 0.000000
vt 0.250000 0.000000
vt 0.750000 0.000000
vt 0.250000 0.000000
vt 0.750000 0.000000
vt 0.250000 0.000000
vn 0.0403 -0.9981 -0.0472
vn 0.1137 -0.4477 -0.8869
vn -0.0403 0.9980 0.0472
vn 0.8150 -0.4438 -0.3724
vn 0.7212 -0.4884 0.4911
vn -0.0739 -0.5371 0.8403
vn -0.7753 -0.5411 0.3258
vn -0.6815 -0.4964 -0.5377
usemtl Leaves_Pine
s off
f 8/1/1 3/2/1 4/3/1
f 7/4/1 1/5/1 8/1/1
f 6/6/1 7/7/1 8/1/1
f 2/8/1 3/2/1 8/1/1
f 4/3/1 6/9/1 8/1/1
f 1/10/1 2/11/1 8/1/1
s 1
f 1/12/2 5/13/3 2/14/4
f 2/15/4 5/13/3 3/16/5
f 3/17/5 5/13/3 4/18/6
f 4/19/6 5/13/3 6/20/7
f 6/21/7 5/13/3 7/22/8
f 7/23/8 5/13/3 1/24/2
o Cone.100_Cone.163
v 0.171685 3.469134 -2.028231
v 1.837954 3.497936 -0.933934
v 1.724201 3.464096 1.056112
v -0.055819 3.401454 1.951862
v -0.097588 9.106357 0.049360
v -1.722088 3.372652 0.857565
v -1.608335 3.406492 -1.132481
v 0.057933 3.435294 -0.038184
vt 0.500000 0.500000
vt 1.000000 0.000000
vt 0.000000 0.000000
vt 0.000000 0.000000
vt 1.000000 0.000000
vt -0.000000 0.000000
vt 1.000000 0.000000
vt 0.000000 0.000000
vt 1.000000 0.000000
vt 0.000000 0.000000
vt 1.000000 0.000000
vt 0.750000 0.000000
vt 0.500000 1.000000
vt 0.250000 0.000000
vt 0.750000 0.000000
vt 0.250000 0.000000
vt 0.750000 0.000000
vt 0.250000 0.000000
vt 0.750000 0.000000
vt 0.250000 0.000000
vt 0.750000 0.000000
vt 0.250000 0.000000
vt 0.750000 0.000000
vt 0.250000 0.000000
vn 0.0274 -0.9995 -0.0154
vn 0.0632 -0.4659 -0.8825
vn -0.0274 0.9995 0.0154
vn 0.7959 -0.4532 -0.4013
vn 0.7459 -0.4681 0.4738
vn -0.0368 -0.4957 0.8677
vn -0.7695 -0.5083 0.3865
vn -0.7195 -0.4935 -0.4886
usemtl Leaves_Pine
s off
f 16/25/9 11/26/9 12/27/9
f 15/28/9 9/29/9 16/25/9
f 14/30/9 15/31/9 16/25/9
f 10/32/9 11/26/9 16/25/9
f 12/27/9 14/33/9 16/25/9
f 9/34/9 10/35/9 16/25/9
s 1
f 9/36/10 13/37/11 10/38/12
f 10/39/12 13/37/11 11/40/13
f 11/41/13 13/37/11 12/42/14
f 12/43/14 13/37/11 14/44/15
f 14/45/15 13/37/11 15/46/16
f 15/47/16 13/37/11 9/48/10
o Cone.101_Cone.164
v 0.000000 1.146407 -2.561223
v 2.218085 1.146407 -1.280612
v 2.218084 1.146407 1.280612
v -0.000000 1.146407 2.561223
v 0.000000 7.366429 -0.000000
v -2.218085 1.146407 1.280611
v -2.218085 1.146407 -1.280611
v -0.000000 1.146407 0.000000
vt 0.500000 0.500000
vt 1.000000 0.000000
vt 0.000000 0.000000
vt 0.000000 0.000000
vt 1.000000 0.000000
vt -0.000000 0.000000
vt 1.000000 0.000000
vt 0.000000 0.000000
vt 1.000000 0.000000
vt 0.000000 0.000000
vt 1.000000 0.000000
vt 0.750000 0.000000
vt 0.500000 1.000000
vt 0.250000 0.000000
vt 0.750000 0.000000
vt 0.250000 0.000000
vt 0.750000 0.000000
vt 0.250000 0.000000
vt 0.750000 0.000000
vt 0.250000 0.000000
vt 0.750000 0.000000
vt 0.250000 0.000000
vt 0.750000 0.000000
vt 0.250000 0.000000
vn 0.0000 -1.0000 0.0000
vn 0.0000 -0.4606 -0.8876
vn 0.0000 1.0000 0.0000
vn 0.7686 -0.4606 -0.4438
vn 0.7686 -0.4606 0.4438
vn 0.0000 -0.4606 0.8876
vn -0.7686 -0.4606 0.4438
vn -0.7686 -0.4606 -0.4438
usemtl Leaves_Pine
s off
f 24/49/17 19/50/17 20/51/17
f 23/52/17 17/53/17 24/49/17
f 22/54/17 23/55/17 24/49/17
f 18/56/17 19/50/17 24/49/17
f 20/51/17 22/57/17 24/49/17
f 17/58/17 18/59/17 24/49/17
s 1
f 17/60/18 21/61/19 18/62/20
f 18/63/20 21/61/19 19/64/21
f 19/65/21 21/61/19 20/66/22
f 20/67/22 21/61/19 22/68/23
f 22/69/23 21/61/19 23/70/24
f 23/71/24 21/61/19 17/72/18
o Cone.102_Cone.165
v 0.040376 7.277637 -1.277915
v 1.149764 7.270248 -0.565169
v 1.087175 7.260153 0.751952
v -0.084801 7.257447 1.356325
v -0.014584 11.794074 0.074262
v -1.194188 7.264836 0.643579
v -1.131600 7.274932 -0.673541
v -0.022212 7.267542 0.039205
vt 0.500000 0.500000
vt 1.000000 0.000000
vt 0.000000 0.000000
vt 0.000000 0.000000
vt 1.000000 0.000000
vt -0.000000 0.000000
vt 1.000000 0.000000
vt 0.000000 0.000000
vt 1.000000 0.000000
vt 0.000000 0.000000
vt 1.000000 0.000000
vt 0.750000 0.000000
vt 0.500000 1.000000
vt 0.250000 0.000000
vt 0.750000 0.000000
vt 0.250000 0.000000
vt 0.750000 0.000000
vt 0.250000 0.000000
vt 0.750000 0.000000
vt 0.250000 0.000000
vt 0.750000 0.000000
vt 0.250000 0.000000
vt 0.750000 0.000000
vt 0.250000 0.000000
vn -0.0017 -1.0000 -0.0077
vn 0.0402 -0.4954 -0.8677
vn 0.0017 0.9999 0.0077
vn 0.7678 -0.5002 -0.4003
vn 0.7267 -0.5069 0.4635
vn -0.0419 -0.5086 0.8600
vn -0.7695 -0.5038 0.3925
vn -0.7284 -0.4971 -0.4713
usemtl Leaves_Pine
s off
f 32/73/25 27/74/25 28/75/25
f 31/76/25 25/77/25 32/73/25
f 30/78/25 31/79/25 32/73/25
f 26/80/25 27/74/25 32/73/25
f 28/75/25 30/81/25 32/73/25
f 25/82/25 26/83/25 32/73/25
s 1
f 25/84/26 29/85/27 26/86/28
f 26/87/28 29/85/27 27/88/29
f 27/89/29 29/85/27 28/90/30
f 28/91/30 29/85/27 30/92/31
f 30/93/31 29/85/27 31/94/32
f 31/95/32 29/85/27 25/96/26
o Cone.103_Cone.166
v -0.040625 9.013427 -0.964554
v 0.855825 9.060232 -0.442533
v 0.852311 9.059423 0.595353
v -0.047654 9.011808 1.111218
v -0.269313 13.296558 0.075908
v -0.944104 8.965003 0.589196
v -0.940590 8.965812 -0.448690
v -0.044140 9.012618 0.073332
vt 0.500000 0.500000
vt 1.000000 0.000000
vt 0.000000 0.000000
vt 0.000000 0.000000
vt 1.000000 0.000000
vt -0.000000 0.000000
vt 1.000000 0.000000
vt 0.000000 0.000000
vt 1.000000 0.000000
vt 0.000000 0.000000
vt 1.000000 0.000000
vt 0.750000 0.000000
vt 0.500000 1.000000
vt 0.250000 0.000000
vt 0.750000 0.000000
vt 0.250000 0.000000
vt 0.750000 0.000000
vt 0.250000 0.000000
vt 0.750000 0.000000
vt 0.250000 0.000000
vt 0.750000 0.000000
vt 0.250000 0.000000
vt 0.750000 0.000000
vt 0.250000 0.000000
vn 0.0525 -0.9986 -0.0006
vn 0.0302 -0.5184 -0.8546
vn -0.0525 0.9986 0.0006
vn 0.7675 -0.4798 -0.4250
vn 0.7646 -0.4805 0.4295
vn 0.0244 -0.5197 0.8540
vn -0.7130 -0.5581 0.4244
vn -0.7101 -0.5575 -0.4301
usemtl Leaves_Pine
s off
f 40/97/33 35/98/33 36/99/33
f 39/100/33 33/101/33 40/97/33
f 38/102/33 39/103/33 40/97/33
f 34/104/33 35/98/33 40/97/33
f 36/99/33 38/105/33 40/97/33
f 33/106/33 34/107/33 40/97/33
s 1
f 33/108/34 37/109/35 34/110/36
f 34/111/36 37/109/35 35/112/37
f 35/113/37 37/109/35 36/114/38
f 36/115/38 37/109/35 38/116/39
f 38/117/39 37/109/35 39/118/40
f 39/119/40 37/109/35 33/120/34
o Cube.083_Cube.281
v 0.356675 0.000000 0.151197
v 0.163177 -0.000000 0.336935
v -0.163177 0.000000 0.336935
v -0.356675 -0.000000 0.151197
v -0.356675 0.000000 -0.151197
v -0.163177 -0.000000 -0.336935
v 0.163177 0.000000 -0.336935
v 0.356675 -0.000000 -0.151197
v 0.289960 0.216866 0.146554
v 0.146554 0.216866 0.289960
v -0.146554 0.216866 0.289960
v -0.289960 0.216866 0.146554
v -0.289960 0.216866 -0.146554
v -0.146554 0.216866 -0.289960
v 0.146554 0.216866 -0.289960
v 0.289960 0.216866 -0.146554
v 0.102990 2.071048 0.246202
v 0.246202 2.071048 0.102990
v -0.246202 2.071048 0.102990
v -0.102990 2.071048 0.246202
v -0.102990 2.071048 -0.246202
v -0.246202 2.071048 -0.102990
v 0.246202 2.071048 -0.102990
v 0.102990 2.071048 -0.246202
vt 0.196880 0.174913
vt 0.079815 0.175887
vt 0.027544 0.002373
vt 0.162650 0.003532
vt 0.706705 0.174493
vt 0.828507 0.175101
vt 0.748243 0.998335
vt 0.666624 0.998701
vt 0.736258 0.003968
vt 0.856904 0.003292
vt 0.621332 0.174170
vt 0.495340 0.174081
vt 0.501271 0.004363
vt 0.629720 0.004193
vt 0.422158 0.998923
vt 0.408529 0.174139
vt 0.503036 0.998999
vt 0.585581 0.998916
vt 0.259197 0.998345
vt 0.177321 0.997846
vt 0.271270 0.004133
vt 0.282216 0.174535
vt 0.960737 0.002289
vt 0.908982 0.175729
vt 0.394419 0.004394
vt 0.339958 0.998708
vt 0.828255 0.997846
vn 0.3791 0.1339 0.9156
vn -0.3791 0.1339 0.9156
vn -0.3649 0.2291 0.9024
vn 0.3649 0.2291 0.9024
vn -0.9055 0.1573 -0.3942
vn -0.9055 0.1573 0.3942
vn -0.9246 0.0307 0.3796
vn -0.9246 0.0307 -0.3796
vn -0.8933 0.2770 -0.3540
vn -0.8933 0.2770 0.3540
vn -0.3791 0.1339 -0.9156
vn 0.3791 0.1339 -0.9156
vn 0.3649 0.2291 -0.9024
vn -0.3649 0.2291 -0.9024
vn 0.9246 0.0307 -0.3796
vn 0.9055 0.1573 -0.3942
vn 0.3796 0.0307 -0.9246
vn -0.3796 0.0307 -0.9246
vn 0.3796 0.0307 0.9246
vn -0.3796 0.0307 0.9246
vn 0.8933 0.2770 0.3540
vn 0.9055 0.1573 0.3942
vn 0.8933 0.2770 -0.3540
vn 0.9246 0.0307 0.3796
usemtl Bark_Pine
s 1
f 50/121/41 51/122/42 43/123/43 42/124/44
f 53/125/45 52/126/46 59/127/47 62/128/48
f 52/126/46 53/125/45 45/129/49 44/130/50
f 54/131/51 55/132/52 47/133/53 46/134/54
f 63/135/55 56/136/56 55/132/52 64/137/57
f 55/132/52 54/131/51 61/138/58 64/137/57
f 51/122/42 50/121/41 57/139/59 60/140/60
f 41/141/61 49/142/62 50/121/41 42/124/44
f 52/126/46 44/130/50 43/143/43 51/144/42
f 54/131/51 46/134/54 45/129/49 53/125/45
f 56/136/56 48/145/63 47/133/53 55/132/52
f 49/142/62 56/136/56 63/135/55 58/146/64
f 49/142/62 58/146/64 57/139/59 50/121/41
f 61/138/58 54/131/51 53/125/45 62/128/48
f 59/127/47 52/126/46 51/144/42 60/147/60
f 56/136/56 49/142/62 41/141/61 48/145/63
