# Blender v2.90.0 OBJ File: 'Nature Kit.blend'
# www.blender.org
mtllib Tree_Pine_6.mtl
o Cone.091_Cone.154
v 0.202275 5.956534 -2.067017
v 1.856645 5.969723 -0.842094
v 1.623237 5.949784 1.203039
v -0.264541 5.916658 2.023250
v -0.122698 12.473858 0.031400
v -1.918911 5.903470 0.798327
v -1.685503 5.923408 -1.246806
v -0.031133 5.936596 -0.021883
vt 0.500000 0.500000
vt 1.000000 0.000000
vt 0.000000 0.000000
vt 0.000000 0.000000
vt 1.000000 0.000000
vt -0.000000 0.000000
vt 1.000000 0.000000
vt 0.000000 0.000000
vt 1.000000 0.000000
vt 0.000000 0.000000
vt 1.000000 0.000000
vt 0.750000 0.000000
vt 0.500000 1.000000
vt 0.250000 0.000000
vt 0.750000 0.000000
vt 0.250000 0.000000
vt 0.750000 0.000000
vt 0.250000 0.000000
vt 0.750000 0.000000
vt 0.250000 0.000000
vt 0.750000 0.000000
vt 0.250000 0.000000
vt 0.750000 0.000000
vt 0.250000 0.000000
vn 0.0140 -0.9999 -0.0082
vn 0.0140 -0.9999 -0.0081
vn 0.1055 -0.4852 -0.8680
vn -0.0140 0.9998 0.0081
vn 0.8044 -0.4797 -0.3505
vn 0.7058 -0.4881 0.5134
vn -0.0917 -0.5021 0.8599
vn -0.7906 -0.5076 0.3425
vn -0.6919 -0.4992 -0.5215
usemtl Leaves_Pine
s off
f 8/1/1 3/2/1 4/3/1
f 7/4/2 1/5/2 8/1/2
f 6/6/2 7/7/2 8/1/2
f 2/8/2 3/2/2 8/1/2
f 4/3/2 6/9/2 8/1/2
f 1/10/2 2/11/2 8/1/2
s 1
f 1/12/3 5/13/4 2/14/5
f 2/15/5 5/13/4 3/16/6
f 3/17/6 5/13/4 4/18/7
f 4/19/7 5/13/4 6/20/8
f 6/21/8 5/13/4 7/22/9
f 7/23/9 5/13/4 1/24/3
o Cone.092_Cone.155
v 0.344826 3.862893 -2.547556
v 2.367803 3.932799 -1.116363
v 2.143544 3.851114 1.350489
v -0.103691 3.699524 2.386147
v -0.274306 11.029455 0.123408
v -2.126668 3.629618 0.954954
v -1.902409 3.711302 -1.511897
v 0.120568 3.781208 -0.080704
vt 0.500000 0.500000
vt 1.000000 0.000000
vt 0.000000 0.000000
vt 0.000000 0.000000
vt 1.000000 0.000000
vt -0.000000 0.000000
vt 1.000000 0.000000
vt 0.000000 0.000000
vt 1.000000 0.000000
vt 0.000000 0.000000
vt 1.000000 0.000000
vt 0.750000 0.000000
vt 0.500000 1.000000
vt 0.250000 0.000000
vt 0.750000 0.000000
vt 0.250000 0.000000
vt 0.750000 0.000000
vt 0.250000 0.000000
vt 0.750000 0.000000
vt 0.250000 0.000000
vt 0.750000 0.000000
vt 0.250000 0.000000
vt 0.750000 0.000000
vt 0.250000 0.000000
vn 0.0544 -0.9981 -0.0281
vn 0.1055 -0.4548 -0.8843
vn -0.0544 0.9981 0.0281
vn 0.8193 -0.4301 -0.3792
vn 0.7401 -0.4589 0.4916
vn -0.0528 -0.5124 0.8571
vn -0.7666 -0.5370 0.3520
vn -0.6874 -0.5082 -0.5188
usemtl Leaves_Pine
s off
f 16/25/10 11/26/10 12/27/10
f 15/28/10 9/29/10 16/25/10
f 14/30/10 15/31/10 16/25/10
f 10/32/10 11/26/10 16/25/10
f 12/27/10 14/33/10 16/25/10
f 9/34/10 10/35/10 16/25/10
s 1
f 9/36/11 13/37/12 10/38/13
f 10/39/13 13/37/12 11/40/14
f 11/41/14 13/37/12 12/42/15
f 12/43/15 13/37/12 14/44/16
f 14/45/16 13/37/12 15/46/17
f 15/47/17 13/37/12 9/48/11
o Cone.093_Cone.156
v 0.000000 1.333815 -2.953250
v 2.557590 1.333815 -1.476625
v 2.557590 1.333815 1.476625
v -0.000000 1.333815 2.953250
v 0.000000 9.298411 0.000000
v -2.557590 1.333815 1.476625
v -2.557590 1.333815 -1.476625
v -0.000000 1.333815 0.000000
vt 0.500000 0.500000
vt 1.000000 0.000000
vt 0.000000 0.000000
vt 0.000000 0.000000
vt 1.000000 0.000000
vt -0.000000 0.000000
vt 1.000000 0.000000
vt 0.000000 0.000000
vt 1.000000 0.000000
vt 0.000000 0.000000
vt 1.000000 0.000000
vt 0.750000 0.000000
vt 0.500000 1.000000
vt 0.250000 0.000000
vt 0.750000 0.000000
vt 0.250000 0.000000
vt 0.750000 0.000000
vt 0.250000 0.000000
vt 0.750000 0.000000
vt 0.250000 0.000000
vt 0.750000 0.000000
vt 0.250000 0.000000
vt 0.750000 0.000000
vt 0.250000 0.000000
vn 0.0000 -1.0000 -0.0000
vn 0.0000 -0.4744 -0.8803
vn 0.0000 1.0000 0.0000
vn 0.7624 -0.4744 -0.4401
vn 0.7624 -0.4744 0.4401
vn 0.0000 -0.4744 0.8803
vn -0.7624 -0.4744 0.4401
vn -0.7624 -0.4744 -0.4401
usemtl Leaves_Pine
s off
f 24/49/18 19/50/18 20/51/18
f 23/52/18 17/53/18 24/49/18
f 22/54/18 23/55/18 24/49/18
f 18/56/18 19/50/18 24/49/18
f 20/51/18 22/57/18 24/49/18
f 17/58/18 18/59/18 24/49/18
s 1
f 17/60/19 21/61/20 18/62/21
f 18/63/21 21/61/20 19/64/22
f 19/65/22 21/61/20 20/66/23
f 20/67/23 21/61/20 22/68/24
f 22/69/24 21/61/20 23/70/25
f 23/71/25 21/61/20 17/72/19
o Cone.094_Cone.157
v 0.199597 8.064919 -1.630151
v 1.483463 8.158697 -0.583378
v 1.216479 8.235846 1.052825
v -0.334371 8.219214 1.642254
v -0.243971 13.924559 -0.295411
v -1.618237 8.125436 0.595482
v -1.351253 8.048288 -1.040721
v -0.067387 8.142067 0.006052
vt 0.500000 0.500000
vt 1.000000 0.000000
vt 0.000000 0.000000
vt 0.000000 0.000000
vt 1.000000 0.000000
vt -0.000000 0.000000
vt 1.000000 0.000000
vt 0.000000 0.000000
vt 1.000000 0.000000
vt 0.000000 0.000000
vt 1.000000 0.000000
vt 0.750000 0.000000
vt 0.500000 1.000000
vt 0.250000 0.000000
vt 0.750000 0.000000
vt 0.250000 0.000000
vt 0.750000 0.000000
vt 0.250000 0.000000
vt 0.750000 0.000000
vt 0.250000 0.000000
vt 0.750000 0.000000
vt 0.250000 0.000000
vt 0.750000 0.000000
vt 0.250000 0.000000
vn 0.0305 -0.9982 0.0520
vn 0.1543 -0.5430 -0.8254
vn -0.0305 0.9982 -0.0520
vn 0.8228 -0.4942 -0.2805
vn 0.6839 -0.4540 0.5710
vn -0.1236 -0.4626 0.8779
vn -0.7921 -0.5115 0.3329
vn -0.6532 -0.5517 -0.5186
usemtl Leaves_Pine
s off
f 32/73/26 27/74/26 28/75/26
f 31/76/26 25/77/26 32/73/26
f 30/78/26 31/79/26 32/73/26
f 26/80/26 27/74/26 32/73/26
f 28/75/26 30/81/26 32/73/26
f 25/82/26 26/83/26 32/73/26
s 1
f 25/84/27 29/85/28 26/86/29
f 26/87/29 29/85/28 27/88/30
f 27/89/30 29/85/28 28/90/31
f 28/91/31 29/85/28 30/92/32
f 30/93/32 29/85/28 31/94/33
f 31/95/33 29/85/28 25/96/27
o Cone.098_Cone.161
v 0.201382 10.159905 -1.367700
v 1.156304 10.205606 -0.479441
v 0.863675 10.266161 0.791393
v -0.383876 10.281013 1.173969
v -0.107231 15.708042 -0.362021
v -1.338798 10.235312 0.285710
v -1.046169 10.174758 -0.985124
v -0.091247 10.220459 -0.096865
vt 0.500000 0.500000
vt 1.000000 0.000000
vt 0.000000 0.000000
vt 0.000000 0.000000
vt 1.000000 0.000000
vt -0.000000 0.000000
vt 1.000000 0.000000
vt 0.000000 0.000000
vt 1.000000 0.000000
vt 0.000000 0.000000
vt 1.000000 0.000000
vt 0.750000 0.000000
vt 0.500000 1.000000
vt 0.250000 0.000000
vt 0.750000 0.000000
vt 0.250000 0.000000
vt 0.750000 0.000000
vt 0.250000 0.000000
vt 0.750000 0.000000
vt 0.250000 0.000000
vt 0.750000 0.000000
vt 0.250000 0.000000
vt 0.750000 0.000000
vt 0.250000 0.000000
vn 0.0029 -0.9988 0.0483
vn 0.1928 -0.5602 -0.8056
vn -0.0029 0.9988 -0.0482
vn 0.8174 -0.5304 -0.2247
vn 0.6261 -0.4909 0.6058
vn -0.1898 -0.4811 0.8559
vn -0.8143 -0.5110 0.2751
vn -0.6231 -0.5506 -0.5555
usemtl Leaves_Pine
s off
f 40/97/34 35/98/34 36/99/34
f 39/100/34 33/101/34 40/97/34
f 38/102/34 39/103/34 40/97/34
f 34/104/34 35/98/34 40/97/34
f 36/99/34 38/105/34 40/97/34
f 33/106/34 34/107/34 40/97/34
s 1
f 33/108/35 37/109/36 34/110/37
f 34/111/37 37/109/36 35/112/38
f 35/113/38 37/109/36 36/114/39
f 36/115/39 37/109/36 38/116/40
f 38/117/40 37/109/36 39/118/41
f 39/119/41 37/109/36 33/120/35
o Cube.084_Cube.282
v 0.407100 0.000000 0.172572
v 0.186247 -0.000000 0.384569
v -0.186247 0.000000 0.384569
v -0.407100 -0.000000 0.172572
v -0.407100 0.000000 -0.172572
v -0.186247 -0.000000 -0.384569
v 0.186247 0.000000 -0.384569
v 0.407100 -0.000000 -0.172572
v 0.330953 0.238045 0.167273
v 0.167273 0.238045 0.330953
v -0.167273 0.238045 0.330953
v -0.330953 0.238045 0.167273
v -0.330953 0.238045 -0.167273
v -0.167273 0.238045 -0.330953
v 0.167273 0.238045 -0.330953
v 0.330953 0.238045 -0.167273
v 0.117550 2.273311 0.281009
v 0.281009 2.273311 0.117550
v -0.281009 2.273311 0.117550
v -0.117550 2.273311 0.281009
v -0.117550 2.273311 -0.281009
v -0.281009 2.273311 -0.117550
v 0.281009 2.273311 -0.117550
v 0.117550 2.273311 -0.281009
vt 0.196880 0.174913
vt 0.079815 0.175887
vt 0.027544 0.002373
vt 0.162650 0.003532
vt 0.706705 0.174493
vt 0.828507 0.175101
vt 0.748243 0.998335
vt 0.666624 0.998701
vt 0.736258 0.003968
vt 0.856904 0.003292
vt 0.621332 0.174170
vt 0.495340 0.174081
vt 0.501271 0.004363
vt 0.629720 0.004193
vt 0.422158 0.998923
vt 0.408529 0.174139
vt 0.503036 0.998999
vt 0.585581 0.998916
vt 0.259197 0.998345
vt 0.177321 0.997846
vt 0.271270 0.004133
vt 0.282216 0.174535
vt 0.960737 0.002289
vt 0.908982 0.175729
vt 0.394419 0.004394
vt 0.339958 0.998708
vt 0.828255 0.997846
vn 0.3789 0.1392 0.9149
vn -0.3789 0.1392 0.9149
vn -0.3641 0.2377 0.9005
vn 0.3641 0.2377 0.9005
vn -0.9043 0.1633 -0.3944
vn -0.9043 0.1633 0.3944
vn -0.9246 0.0320 0.3795
vn -0.9246 0.0320 -0.3795
vn -0.8907 0.2872 -0.3523
vn -0.8907 0.2872 0.3523
vn -0.3789 0.1392 -0.9149
vn 0.3789 0.1392 -0.9149
vn 0.3641 0.2377 -0.9005
vn -0.3641 0.2377 -0.9005
vn 0.9246 0.0320 -0.3795
vn 0.9043 0.1633 -0.3944
vn 0.3795 0.0320 -0.9246
vn -0.3795 0.0320 -0.9246
vn 0.3795 0.0320 0.9246
vn -0.3795 0.0320 0.9246
vn 0.8907 0.2872 0.3523
vn 0.9043 0.1633 0.3944
vn 0.8907 0.2872 -0.3523
vn 0.9246 0.0320 0.3795
usemtl Bark_Pine
s 1
f 50/121/42 51/122/43 43/123/44 42/124/45
f 53/125/46 52/126/47 59/127/48 62/128/49
f 52/126/47 53/125/46 45/129/50 44/130/51
f 54/131/52 55/132/53 47/133/54 46/134/55
f 63/135/56 56/136/57 55/132/53 64/137/58
f 55/132/53 54/131/52 61/138/59 64/137/58
f 51/122/43 50/121/42 57/139/60 60/140/61
f 41/141/62 49/142/63 50/121/42 42/124/45
f 52/126/47 44/130/51 43/143/44 51/144/43
f 54/131/52 46/134/55 45/129/50 53/125/46
f 56/136/57 48/145/64 47/133/54 55/132/53
f 49/142/63 56/136/57 63/135/56 58/146/65
f 49/142/63 58/146/65 57/139/60 50/121/42
f 61/138/59 54/131/52 53/125/46 62/128/49
f 59/127/48 52/126/47 51/144/43 60/147/61
f 56/136/57 49/142/63 41/141/62 48/145/64
