# Blender v2.90.0 OBJ File: 'Nature Kit.blend'
# www.blender.org
mtllib Tree_Bare_5.mtl
o Cube.083_Cube.222
v 0.345273 -0.016947 0.129124
v -0.003600 -0.012012 0.384818
v -0.233945 -0.006540 0.059889
v 0.073058 -0.006230 -0.209045
v 0.549092 3.570241 0.979849
v 0.697208 2.975781 0.785592
v 0.595296 2.968629 0.777263
v 0.595658 3.005556 0.705968
v 0.690359 3.018146 0.702764
v 0.536205 2.896240 -0.464190
v 0.667594 2.903582 -0.445504
v 0.648389 2.972810 -0.365461
v 0.533382 2.974364 -0.371410
v 0.298891 0.743270 0.145259
v 0.093822 0.752206 0.314350
v -0.051841 0.830757 0.153452
v 0.141852 0.811308 -0.024203
v 0.413963 4.507115 -1.261345
v 0.533607 4.508175 -1.281743
v 0.566587 4.539507 -1.163869
v 0.447412 4.538385 -1.144063
v 0.399565 5.905111 -1.460971
v 1.000929 4.367347 -0.423329
v 0.934063 4.364782 -0.365409
v 0.877454 4.401237 -0.425200
v 0.944257 4.404198 -0.484697
v 0.979813 5.170472 -0.332998
v -0.023864 2.249912 0.635117
v -0.088024 2.244940 0.534530
v 0.006823 2.297292 0.463681
v 0.076986 2.309621 0.566243
v -0.321251 3.138398 0.692513
v -0.399418 3.109028 0.563613
v -0.298882 3.129508 0.517857
v -0.236130 3.152739 0.614786
v -0.541790 4.718091 -0.149091
v -0.401514 4.630751 0.704551
v -0.429554 4.636932 0.616106
v -0.343820 4.614270 0.585886
v -0.314336 4.607112 0.674252
v -0.161192 5.145291 0.496070
v -0.524201 4.129999 0.402959
v -0.398425 4.107747 0.358534
v -0.453266 4.574811 0.051280
v -0.543924 4.571285 0.069969
v -0.552699 4.485137 0.022923
v -0.460354 4.478011 0.002221
v -0.454112 3.896140 0.562167
v -0.507284 3.875632 0.464629
v -0.406420 3.878927 0.424240
v -0.354364 3.902122 0.510615
v 0.321353 1.630893 0.428215
v 0.230307 1.635962 0.304069
v 0.367702 1.726822 0.198242
v 0.418013 1.768471 0.359648
v 0.583510 3.486808 0.964298
v 0.580086 3.507991 0.922884
v 0.694730 3.806043 -0.750659
v 0.599545 3.811726 -0.664993
v 0.559008 3.900026 -0.755136
v 0.648257 3.912340 -0.822052
v 0.485327 3.858279 -0.919077
v 0.588712 3.854643 -0.945208
v 0.506134 3.900647 -0.831139
v 0.605025 3.600779 -0.821823
v 0.633156 3.646506 -0.715825
v 0.518221 3.660156 -0.727167
v 0.694583 2.346251 0.345864
v 0.549325 2.350139 0.349812
v 0.557386 2.473274 0.261311
v 0.682785 2.478294 0.255263
v 0.526622 2.427932 0.078822
v 0.681942 2.419783 0.064086
v 0.545177 1.686048 0.177419
v 0.542734 1.684852 0.339339
v 0.532554 3.483232 0.960133
v 0.532735 3.501695 0.924486
v 0.656555 2.190706 0.160002
v 0.656284 2.189001 0.300442
v 0.512812 2.219748 0.308194
v 0.508984 2.226516 0.170095
v 0.473548 1.296319 0.252633
v 0.338419 1.339567 0.373456
v 0.235464 1.415068 0.235927
v 0.363960 1.377341 0.112647
v 0.273765 0.501564 0.135916
v 0.037486 0.516983 0.320168
v -0.124285 0.589625 0.117391
v 0.092892 0.576125 -0.066387
v 0.505750 3.608160 -0.803652
v -0.467471 4.164600 0.561846
v -0.487190 4.244522 0.437607
v -0.383552 4.251514 0.411755
v -0.330983 4.170563 0.526624
v 0.387955 5.654226 -1.373960
v 0.458724 5.655825 -1.385114
v 0.439646 5.643364 -1.456509
v 1.018501 4.980988 -0.351026
v 0.368596 5.641773 -1.445004
v 0.978044 4.993420 -0.398706
v 0.930636 4.996028 -0.358061
v 0.971054 4.983628 -0.311516
v -0.226493 5.048079 0.563637
v -0.247152 5.037623 0.510459
v -0.196404 5.013405 0.494564
v -0.174903 5.023177 0.547838
vt 0.800246 0.862194
vt 0.922772 0.857160
vt 0.903556 0.910710
vt 0.905359 0.933643
vt 0.757351 0.931549
vt 0.834068 0.934245
vt 0.707325 0.394961
vt 0.837602 0.365115
vt 0.811842 0.409865
vt 0.871283 0.845026
vt 0.900960 0.903949
vt 0.854952 0.850273
vt 0.711084 0.914964
vt 0.725347 1.146307
vt 0.837224 1.143276
vt 0.808500 0.911424
vt 0.806987 -0.010300
vt 0.603032 0.025302
vt 0.868542 0.134635
vt 0.936499 0.127254
vt 0.641757 0.146284
vt 0.776775 0.155431
vt 0.673932 0.100451
vt 0.655319 1.048183
vt 0.650421 1.126867
vt 0.744254 1.061707
vt 0.525927 1.276467
vt 0.633210 1.269866
vt 0.521923 1.134352
vt 0.478650 0.029872
vt 0.498112 0.107008
vt 0.584337 1.159061
vt 0.546912 1.310516
vt 0.613195 1.166050
vt 0.913835 0.615654
vt 0.907425 0.592102
vt 0.861545 0.839469
vt 0.536006 1.051670
vt 0.610772 1.387416
vt 0.653109 1.307594
vt 0.709365 0.475586
vt 0.604253 0.451256
vt 0.787515 0.616578
vt 0.760643 0.589974
vt 0.674907 -0.004348
vt 0.778431 0.318649
vt 0.944270 0.308495
vt 1.007148 0.364215
vt 0.878976 0.392544
vt 0.888270 0.311644
vt 0.721262 0.323358
vt 0.501863 0.754239
vt 0.640058 0.768740
vt 0.628884 1.065131
vt 0.728616 0.771010
vt 0.975003 0.903947
vt 0.929411 1.207302
vt 0.848380 1.215731
vt 0.906398 -0.206634
vt 0.664512 -0.171498
vt 0.714359 -0.223941
vt 0.484877 -0.184012
vt 0.937792 0.845877
vt 0.913873 0.851905
vt 0.955438 0.411840
vt 0.810669 0.653954
vt 0.924931 0.657960
vt 0.971994 0.643914
vt 0.842372 0.641653
vt 0.709764 -0.341276
vt 0.734346 -0.530804
vt 0.907862 -0.443311
vt 0.899537 -0.294347
vt 0.586469 0.472147
vt 0.619731 0.759801
vt 0.489131 0.450839
vt 0.896242 1.211300
vt 0.900995 1.159091
vt 0.977434 1.202908
vt 0.448611 -0.298106
vt 0.657281 -0.279614
vt 0.617271 -0.450631
vt 0.389065 -0.494178
vt 0.698664 1.500387
vt 0.639662 1.512962
vt 0.694673 1.566944
vt 0.788482 1.162189
vt 0.661660 1.170023
vt 0.589121 1.361581
vt 0.691668 1.347138
vt 0.838055 1.424722
vt 0.772718 1.427215
vt 0.822974 1.495936
vt 0.808314 1.436879
vt 0.873808 1.434378
vt 0.680982 1.522834
vt 0.741277 1.509871
vt 0.954329 1.458774
vt 0.894515 1.459351
vt 0.902173 1.522648
vt 0.860304 1.465082
vt 0.919878 1.464434
vt 0.764884 0.843416
vt 0.649204 1.368366
vt 0.754330 1.353284
vt 0.779874 1.161989
vn -0.7781 0.0916 0.6214
vn 0.7595 -0.0688 0.6468
vn -0.2425 -0.1660 0.9558
vn 0.7328 0.5328 -0.4230
vn -0.7609 0.3683 0.5342
vn -0.7476 0.5879 0.3088
vn -0.8209 -0.3007 -0.4855
vn -0.7075 -0.1996 0.6779
vn -0.8737 0.4859 0.0236
vn -0.7438 -0.1764 0.6446
vn -0.1033 0.8934 0.4371
vn -0.7392 0.3621 -0.5677
vn -0.8374 -0.2998 -0.4569
vn -0.8109 -0.2351 -0.5358
vn 0.4916 -0.2333 -0.8390
vn 0.4574 -0.3398 -0.8217
vn 0.9378 -0.3120 0.1523
vn 0.1588 0.1128 -0.9808
vn 0.6375 -0.1073 -0.7629
vn 0.8290 -0.1601 0.5358
vn -0.4017 0.2655 -0.8764
vn 0.2668 0.4294 0.8628
vn -0.0844 -0.2835 0.9552
vn 0.2994 -0.1748 -0.9380
vn 0.5173 -0.3428 -0.7841
vn 0.9640 0.0294 0.2640
vn -0.8359 -0.3761 -0.3997
vn 0.5325 -0.4529 -0.7150
vn -0.9450 -0.2234 -0.2386
vn -0.9691 0.2200 -0.1110
vn -0.9679 -0.1681 -0.1869
vn -0.8906 0.4257 0.1598
vn -0.6116 0.6096 0.5043
vn -0.5207 -0.0638 0.8513
vn 0.7363 0.4643 0.4921
vn 0.6834 -0.4210 -0.5964
vn 0.5624 -0.3922 -0.7279
vn -0.9353 -0.1725 -0.3089
vn -0.1494 0.6999 -0.6984
vn 0.7645 0.6012 0.2328
vn 0.8853 0.3684 0.2835
vn -0.1559 -0.2533 0.9547
vn -0.7395 0.4147 0.5303
vn -0.6839 -0.4456 -0.5776
vn -0.1697 -0.1490 0.9742
vn -0.6812 0.0862 0.7270
vn 0.7573 -0.2149 0.6167
vn 0.7757 -0.3252 0.5408
vn 0.7509 -0.3775 -0.5419
vn 0.6833 -0.2810 -0.6738
vn -0.8123 0.0101 -0.5831
vn -0.9416 -0.2476 -0.2280
vn -0.2221 -0.0018 0.9750
vn -0.3526 0.0390 0.9349
vn 0.9400 0.2566 0.2249
vn 0.9531 -0.3022 -0.0141
vn -0.0255 -0.2700 0.9625
vn -0.9481 0.3092 0.0742
vn 0.9785 -0.2014 0.0435
vn 0.0511 0.1953 -0.9794
vn -0.1112 0.0093 0.9937
vn -0.9287 0.3700 -0.0227
vn 0.6672 -0.0045 0.7449
vn 0.5987 0.5614 -0.5713
vn 0.8695 0.4889 -0.0696
vn -0.7471 0.3372 -0.5728
vn 0.6988 0.4323 -0.5698
vn 0.7121 -0.2539 0.6545
vn -0.6722 -0.3591 0.6475
vn -0.1420 0.0803 0.9866
vn -0.1508 0.1209 0.9811
vn 0.9850 0.1314 0.1119
vn 0.9946 0.0237 0.1008
vn 0.1001 0.2721 -0.9570
vn 0.2240 0.0189 -0.9744
vn -0.9160 -0.3661 -0.1638
vn 0.2251 0.2757 -0.9345
vn 0.8614 0.2377 0.4488
vn 0.9542 -0.2804 0.1046
vn -0.9634 0.2565 -0.0777
vn 0.0488 0.1974 -0.9791
vn 0.0752 0.2257 -0.9713
vn -0.9694 0.2105 -0.1261
vn 0.4032 -0.2313 -0.8854
vn -0.7852 0.3657 -0.4997
vn 0.3830 0.8867 -0.2588
vn -0.6064 0.2228 0.7633
vn 0.8524 0.3973 -0.3399
vn -0.8996 0.2950 -0.3220
vn 0.4651 0.0244 -0.8849
vn 0.5329 -0.0125 -0.8460
vn -0.8400 -0.0316 -0.5416
vn -0.0541 0.9830 -0.1752
vn -0.5477 0.2161 0.8083
vn 0.8224 0.2575 0.5072
vn -0.3031 0.5423 0.7836
vn 0.9085 -0.0602 0.4134
vn 0.9935 0.0643 0.0940
vn 0.0967 0.2381 -0.9664
vn 0.0334 0.9922 0.1198
vn -0.9810 0.1864 -0.0537
vn -0.0604 0.0123 0.9981
vn -0.7762 -0.3106 -0.5486
vn -0.4429 0.1272 0.8875
vn 0.8072 -0.1727 0.5643
vn 0.9242 -0.1092 0.3659
usemtl Bark_Oak
s 1
f 67/1/1 66/2/2 59/3/3
f 61/4/4 64/5/5 60/6/6
f 72/7/7 69/8/8 70/9/9
f 76/10/10 5/11/11 77/12/12
f 62/13/13 18/14/14 19/15/15 63/16/16
f 82/17/17 85/18/18 74/19/19 75/20/20
f 85/18/18 54/21/21 74/19/19
f 75/20/20 55/22/22 52/23/23
f 50/24/24 43/25/25 51/26/26
f 46/27/27 47/28/28 43/25/25 42/29/29
f 54/21/21 85/18/18 84/30/30 53/31/31
f 46/27/27 42/29/29 92/32/32 45/33/33
f 42/29/29 91/34/34 92/32/32
f 66/2/2 12/35/35 11/36/36 65/37/37
f 42/29/29 43/25/25 50/24/24 49/38/38
f 47/28/28 36/39/39 44/40/40
f 52/23/23 55/22/22 31/41/41 28/42/42
f 72/7/7 70/9/9 13/43/43 10/44/44
f 53/31/31 84/30/30 83/45/45 52/23/23
f 80/46/46 79/47/47 68/48/48 69/8/8
f 72/7/7 73/49/49 78/50/50 81/51/51
f 33/52/52 32/53/53 48/54/54 49/38/38
f 32/53/53 28/42/42 31/41/41 35/55/55
f 63/16/16 61/4/4 58/56/56
f 60/6/6 59/3/3 24/57/57 25/58/58
f 54/21/21 55/22/22 80/46/46 81/51/51
f 66/2/2 65/37/37 58/56/56
f 81/51/51 78/50/50 74/19/19 54/21/21
f 85/18/18 82/17/17 14/59/59 17/60/60
f 83/45/45 15/61/61 14/59/59 82/17/17 75/20/20 52/23/23
f 84/30/30 85/18/18 17/60/60 16/62/62
f 76/10/10 56/63/63 5/11/11
f 57/64/64 77/12/12 5/11/11
f 71/65/65 70/9/9 8/66/66 9/67/67
f 69/8/8 68/48/48 6/68/68 7/69/69
f 56/63/63 57/64/64 5/11/11
f 68/48/48 79/47/47 78/50/50 73/49/49
f 87/70/70 2/71/71 1/72/72 86/73/73
f 66/2/2 67/1/1 13/43/43 12/35/35
f 31/41/41 30/74/74 34/75/75 35/55/55
f 71/65/65 9/67/67 6/68/68 68/48/48
f 54/21/21 53/31/31 29/76/76 30/74/74
f 61/4/4 60/6/6 25/58/58 26/77/77
f 20/78/78 61/4/4 63/16/16 19/15/15
f 59/3/3 58/56/56 23/79/79 24/57/57
f 6/68/68 9/67/67 57/64/64 56/63/63
f 88/80/80 89/81/81 4/82/82 3/83/83
f 105/84/84 104/85/85 41/86/86
f 34/75/75 33/52/52 49/38/38 50/24/24
f 73/49/49 72/7/7 10/44/44 11/36/36
f 47/28/28 46/27/27 36/39/39
f 64/5/5 61/4/4 20/78/78 21/87/87
f 53/31/31 52/23/23 28/42/42 29/76/76
f 55/22/22 54/21/21 30/74/74 31/41/41
f 49/38/38 48/54/54 91/34/34 42/29/29
f 70/9/9 71/65/65 12/35/35 13/43/43
f 93/88/88 92/32/32 38/89/89 39/90/90
f 97/91/91 99/92/92 22/93/93
f 95/94/94 21/87/87 20/78/78 96/95/95
f 45/33/33 44/40/40 36/39/39
f 29/76/76 28/42/42 32/53/53 33/52/52
f 79/47/47 80/46/46 55/22/22 75/20/20
f 103/96/96 106/97/97 41/86/86
f 9/67/67 8/66/66 77/12/12 57/64/64
f 86/73/73 1/72/72 4/82/82 89/81/81
f 99/92/92 95/94/94 22/93/93
f 98/98/98 100/99/99 27/100/100
f 101/101/101 102/102/102 27/100/100
f 102/102/102 24/57/57 23/79/79 98/98/98
f 79/47/47 75/20/20 74/19/19 78/50/50
f 16/62/62 88/80/80 87/70/70 15/61/61
f 100/99/99 101/101/101 27/100/100
f 35/55/55 34/75/75 50/24/24 51/26/26
f 90/103/103 67/1/1 64/5/5 62/13/13
f 106/97/97 105/84/84 41/86/86
f 87/70/70 88/80/80 3/83/83 2/71/71
f 104/85/85 38/89/89 37/104/104 103/96/96
f 44/40/40 45/33/33 92/32/32 93/88/88
f 43/25/25 47/28/28 44/40/40 93/88/88
f 36/39/39 46/27/27 45/33/33
f 40/105/105 37/104/104 91/34/34 94/106/106
f 38/89/89 92/32/32 91/34/34 37/104/104
f 30/74/74 29/76/76 33/52/52 34/75/75
f 62/13/13 64/5/5 21/87/87 18/14/14
f 65/37/37 63/16/16 58/56/56
f 94/106/106 93/88/88 39/90/90 40/105/105
f 43/25/25 93/88/88 94/106/106
f 51/26/26 43/25/25 94/106/106
f 90/103/103 62/13/13 63/16/16 65/37/37
f 58/56/56 61/4/4 26/77/77 23/79/79
f 67/1/1 59/3/3 64/5/5
f 96/95/95 20/78/78 19/15/15 97/91/91
f 59/3/3 66/2/2 58/56/56
f 59/3/3 60/6/6 64/5/5
f 10/44/44 13/43/43 67/1/1 90/103/103
f 10/44/44 90/103/103 65/37/37 11/36/36
f 22/93/93 96/95/95 97/91/91
f 26/77/77 25/58/58 101/101/101 100/99/99
f 27/100/100 102/102/102 98/98/98
f 25/58/58 24/57/57 102/102/102 101/101/101
f 23/79/79 26/77/77 100/99/99 98/98/98
f 18/14/14 21/87/87 95/94/94 99/92/92
f 22/93/93 95/94/94 96/95/95
f 19/15/15 18/14/14 99/92/92 97/91/91
f 41/86/86 104/85/85 103/96/96
f 40/105/105 39/90/90 105/84/84 106/97/97
f 37/104/104 40/105/105 106/97/97 103/96/96
f 39/90/90 38/89/89 104/85/85 105/84/84
f 71/65/65 68/48/48 73/49/49
f 12/35/35 71/65/65 73/49/49 11/36/36
f 7/69/69 76/10/10 77/12/12 8/66/66
f 81/51/51 80/46/46 69/8/8 72/7/7
f 7/69/69 6/68/68 56/63/63 76/10/10
f 69/8/8 7/69/69 8/66/66 70/9/9
f 48/54/54 32/53/53 35/55/55 51/26/26
f 48/54/54 51/26/26 94/106/106 91/34/34
f 15/61/61 87/70/70 86/73/73 14/59/59
f 14/59/59 86/73/73 89/81/81 17/60/60
f 16/62/62 17/60/60 89/81/81 88/80/80
f 84/30/30 16/62/62 15/61/61 83/45/45
