# Blender v2.90.0 OBJ File: 'Nature Kit.blend'
# www.blender.org
mtllib Tree_Pine_3.mtl
o Cone.083_Cone.146
v -0.246794 4.077549 -1.283401
v 0.867838 4.162945 -0.778331
v 0.985675 4.220504 0.441173
v -0.011120 4.192667 1.155607
v -0.352760 8.010098 -0.225166
v -1.125753 4.107271 0.650538
v -1.243590 4.049711 -0.568966
v -0.128957 4.135108 -0.063896
vt 0.500000 0.500000
vt 1.000000 0.000000
vt 0.000000 0.000000
vt 0.000000 0.000000
vt 1.000000 0.000000
vt -0.000000 0.000000
vt 1.000000 0.000000
vt 0.000000 0.000000
vt 1.000000 0.000000
vt 0.000000 0.000000
vt 1.000000 0.000000
vt 0.750000 0.000000
vt 0.500000 1.000000
vt 0.250000 0.000000
vt 0.750000 0.000000
vt 0.250000 0.000000
vt 0.750000 0.000000
vt 0.250000 0.000000
vt 0.750000 0.000000
vt 0.250000 0.000000
vt 0.750000 0.000000
vt 0.250000 0.000000
vt 0.750000 0.000000
vt 0.250000 0.000000
vn 0.0576 -0.9975 0.0415
vn -0.0551 -0.5330 -0.8443
vn -0.0576 0.9975 -0.0415
vn 0.7351 -0.4724 -0.4862
vn 0.8187 -0.4316 0.3787
vn 0.1120 -0.4513 0.8853
vn -0.6783 -0.5119 0.5271
vn -0.7619 -0.5527 -0.3377
usemtl Leaves_Pine
s off
f 8/1/1 3/2/1 4/3/1
f 7/4/1 1/5/1 8/1/1
f 6/6/1 7/7/1 8/1/1
f 2/8/1 3/2/1 8/1/1
f 4/3/1 6/9/1 8/1/1
f 1/10/1 2/11/1 8/1/1
s 1
f 1/12/2 5/13/3 2/14/4
f 2/15/4 5/13/3 3/16/5
f 3/17/5 5/13/3 4/18/6
f 4/19/6 5/13/3 6/20/7
f 6/21/7 5/13/3 7/22/8
f 7/23/8 5/13/3 1/24/2
o Cone.084_Cone.147
v -0.261289 2.602731 -1.537440
v 1.164696 2.658821 -0.971059
v 1.386683 2.687803 0.547700
v 0.182687 2.660695 1.500077
v -0.184083 6.926372 -0.079473
v -1.243298 2.604605 0.933696
v -1.465286 2.575623 -0.585062
v -0.039301 2.631713 -0.018681
vt 0.500000 0.500000
vt 1.000000 0.000000
vt 0.000000 0.000000
vt 0.000000 0.000000
vt 1.000000 0.000000
vt -0.000000 0.000000
vt 1.000000 0.000000
vt 0.000000 0.000000
vt 1.000000 0.000000
vt 0.000000 0.000000
vt 1.000000 0.000000
vt 0.750000 0.000000
vt 0.500000 1.000000
vt 0.250000 0.000000
vt 0.750000 0.000000
vt 0.250000 0.000000
vt 0.750000 0.000000
vt 0.250000 0.000000
vt 0.750000 0.000000
vt 0.250000 0.000000
vt 0.750000 0.000000
vt 0.250000 0.000000
vt 0.750000 0.000000
vt 0.250000 0.000000
vn 0.0337 -0.9993 0.0141
vn -0.1108 -0.4953 -0.8616
vn -0.0337 0.9993 -0.0141
vn 0.7044 -0.4632 -0.5378
vn 0.8314 -0.4466 0.3307
vn 0.1430 -0.4621 0.8752
vn -0.6721 -0.4942 0.5513
vn -0.7991 -0.5108 -0.3171
usemtl Leaves_Pine
s off
f 16/25/9 11/26/9 12/27/9
f 15/28/9 9/29/9 16/25/9
f 14/30/9 15/31/9 16/25/9
f 10/32/9 11/26/9 16/25/9
f 12/27/9 14/33/9 16/25/9
f 9/34/9 10/35/9 16/25/9
s 1
f 9/36/10 13/37/11 10/38/12
f 10/39/12 13/37/11 11/40/13
f 11/41/13 13/37/11 12/42/14
f 12/43/14 13/37/11 14/44/15
f 14/45/15 13/37/11 15/46/16
f 15/47/16 13/37/11 9/48/10
o Cone.085_Cone.148
v 0.000000 0.971467 -1.922427
v 1.664871 0.971467 -0.961214
v 1.664871 0.971467 0.961214
v -0.000000 0.971467 1.922427
v 0.000000 5.524079 0.000000
v -1.664871 0.971467 0.961214
v -1.664871 0.971467 -0.961214
v 0.000000 0.971467 0.000000
vt 0.500000 0.500000
vt 1.000000 0.000000
vt 0.000000 0.000000
vt 0.000000 0.000000
vt 1.000000 0.000000
vt -0.000000 0.000000
vt 1.000000 0.000000
vt 0.000000 0.000000
vt 1.000000 0.000000
vt 0.000000 0.000000
vt 1.000000 0.000000
vt 0.750000 0.000000
vt 0.500000 1.000000
vt 0.250000 0.000000
vt 0.750000 0.000000
vt 0.250000 0.000000
vt 0.750000 0.000000
vt 0.250000 0.000000
vt 0.750000 0.000000
vt 0.250000 0.000000
vt 0.750000 0.000000
vt 0.250000 0.000000
vt 0.750000 0.000000
vt 0.250000 0.000000
vn 0.0000 -1.0000 0.0000
vn 0.0000 -0.4572 -0.8893
vn 0.0000 1.0000 0.0000
vn 0.7702 -0.4572 -0.4447
vn 0.7702 -0.4572 0.4447
vn 0.0000 -0.4572 0.8893
vn -0.7702 -0.4572 0.4447
vn -0.7702 -0.4572 -0.4447
usemtl Leaves_Pine
s off
f 24/49/17 19/50/17 20/51/17
f 23/52/17 17/53/17 24/49/17
f 22/54/17 23/55/17 24/49/17
f 18/56/17 19/50/17 24/49/17
f 20/51/17 22/57/17 24/49/17
f 17/58/17 18/59/17 24/49/17
s 1
f 17/60/18 21/61/19 18/62/20
f 18/63/20 21/61/19 19/64/21
f 19/65/21 21/61/19 20/66/22
f 20/67/22 21/61/19 22/68/23
f 22/69/23 21/61/19 23/70/24
f 23/71/24 21/61/19 17/72/18
o Cone.086_Cone.149
v -0.379367 5.466558 -1.089545
v 0.564903 5.484862 -0.755831
v 0.747867 5.505186 0.228849
v -0.013438 5.507205 0.879815
v -0.241674 8.985409 -0.168663
v -0.957708 5.488901 0.546100
v -1.140672 5.468577 -0.438579
v -0.196403 5.486882 -0.104865
vt 0.500000 0.500000
vt 1.000000 0.000000
vt 0.000000 0.000000
vt 0.000000 0.000000
vt 1.000000 0.000000
vt -0.000000 0.000000
vt 1.000000 0.000000
vt 0.000000 0.000000
vt 1.000000 0.000000
vt 0.000000 0.000000
vt 1.000000 0.000000
vt 0.750000 0.000000
vt 0.500000 1.000000
vt 0.250000 0.000000
vt 0.750000 0.000000
vt 0.250000 0.000000
vt 0.750000 0.000000
vt 0.250000 0.000000
vt 0.750000 0.000000
vt 0.250000 0.000000
vt 0.750000 0.000000
vt 0.250000 0.000000
vt 0.750000 0.000000
vt 0.250000 0.000000
vn 0.0129 -0.9998 0.0182
vn -0.1512 -0.5212 -0.8399
vn -0.0129 0.9997 -0.0182
vn 0.6630 -0.5054 -0.5521
vn 0.8208 -0.4879 0.2969
vn 0.1643 -0.4862 0.8583
vn -0.6500 -0.5019 0.5705
vn -0.8078 -0.5195 -0.2785
usemtl Leaves_Pine
s off
f 32/73/25 27/74/25 28/75/25
f 31/76/25 25/77/25 32/73/25
f 30/78/25 31/79/25 32/73/25
f 26/80/25 27/74/25 32/73/25
f 28/75/25 30/81/25 32/73/25
f 25/82/25 26/83/25 32/73/25
s 1
f 25/84/26 29/85/27 26/86/28
f 26/87/28 29/85/27 27/88/29
f 27/89/29 29/85/27 28/90/30
f 28/91/30 29/85/27 30/92/31
f 30/93/31 29/85/27 31/94/32
f 31/95/32 29/85/27 25/96/26
o Cube.081_Cube.279
v 0.272378 0.000000 0.115463
v 0.124612 -0.000000 0.257304
v -0.124612 0.000000 0.257304
v -0.272378 -0.000000 0.115463
v -0.272378 0.000000 -0.115463
v -0.124612 -0.000000 -0.257304
v 0.124612 0.000000 -0.257304
v 0.272378 -0.000000 -0.115463
v 0.221431 0.149013 0.111918
v 0.111918 0.149013 0.221431
v -0.111918 0.149013 0.221431
v -0.221431 0.149013 0.111918
v -0.221431 0.149013 -0.111918
v -0.111918 0.149013 -0.221431
v 0.111918 0.149013 -0.221431
v 0.221431 0.149013 -0.111918
v 0.078649 1.423061 0.188014
v 0.188014 1.423061 0.078649
v -0.188014 1.423061 0.078649
v -0.078649 1.423061 0.188014
v -0.078649 1.423061 -0.188014
v -0.188014 1.423061 -0.078649
v 0.188014 1.423061 -0.078649
v 0.078649 1.423061 -0.188014
vt 0.196880 0.174913
vt 0.079815 0.175887
vt 0.027544 0.002373
vt 0.162650 0.003532
vt 0.706705 0.174493
vt 0.828507 0.175101
vt 0.748243 0.998335
vt 0.666624 0.998701
vt 0.736258 0.003968
vt 0.856904 0.003292
vt 0.621332 0.174170
vt 0.495340 0.174081
vt 0.501271 0.004363
vt 0.629720 0.004193
vt 0.422158 0.998923
vt 0.408529 0.174139
vt 0.503036 0.998999
vt 0.585581 0.998916
vt 0.259197 0.998345
vt 0.177321 0.997846
vt 0.271270 0.004133
vt 0.282216 0.174535
vt 0.960737 0.002289
vt 0.908982 0.175729
vt 0.394419 0.004394
vt 0.339958 0.998708
vt 0.828255 0.997846
vn 0.3785 0.1486 0.9136
vn -0.3785 0.1486 0.9136
vn -0.3625 0.2531 0.8970
vn 0.3625 0.2531 0.8970
vn -0.9022 0.1741 -0.3946
vn -0.9022 0.1741 0.3946
vn -0.9246 0.0342 0.3792
vn -0.9246 0.0342 -0.3792
vn -0.8859 0.3053 -0.3492
vn -0.8859 0.3053 0.3492
vn -0.3785 0.1486 -0.9136
vn 0.3785 0.1486 -0.9136
vn 0.3625 0.2531 -0.8970
vn -0.3625 0.2531 -0.8970
vn 0.9246 0.0342 -0.3792
vn 0.9022 0.1741 -0.3946
vn 0.3792 0.0342 -0.9246
vn -0.3792 0.0342 -0.9246
vn 0.3792 0.0342 0.9246
vn -0.3792 0.0342 0.9246
vn 0.8859 0.3053 0.3492
vn 0.9022 0.1741 0.3946
vn 0.8859 0.3053 -0.3492
vn 0.9246 0.0342 0.3792
usemtl Bark_Pine
s 1
f 42/97/33 43/98/34 35/99/35 34/100/36
f 45/101/37 44/102/38 51/103/39 54/104/40
f 44/102/38 45/101/37 37/105/41 36/106/42
f 46/107/43 47/108/44 39/109/45 38/110/46
f 55/111/47 48/112/48 47/108/44 56/113/49
f 47/108/44 46/107/43 53/114/50 56/113/49
f 43/98/34 42/97/33 49/115/51 52/116/52
f 33/117/53 41/118/54 42/97/33 34/100/36
f 44/102/38 36/106/42 35/119/35 43/120/34
f 46/107/43 38/110/46 37/105/41 45/101/37
f 48/112/48 40/121/55 39/109/45 47/108/44
f 41/118/54 48/112/48 55/111/47 50/122/56
f 41/118/54 50/122/56 49/115/51 42/97/33
f 53/114/50 46/107/43 45/101/37 54/104/40
f 51/103/39 44/102/38 43/120/34 52/123/52
f 48/112/48 41/118/54 33/117/53 40/121/55
