# Blender v2.90.0 OBJ File: 'Nature Kit.blend'
# www.blender.org
mtllib Tree_Pine_4.mtl
o Cone.087_Cone.150
v 0.054908 4.540289 -1.186747
v 1.070285 4.463436 -0.589337
v 1.062795 4.488340 0.588750
v 0.039927 4.590098 1.169427
v 0.438000 9.013782 -0.100218
v -0.975450 4.666952 0.572016
v -0.967960 4.642047 -0.606071
v 0.047418 4.565194 -0.008660
vt 0.500000 0.500000
vt 1.000000 0.000000
vt 0.000000 0.000000
vt 0.000000 0.000000
vt 1.000000 0.000000
vt -0.000000 0.000000
vt 1.000000 0.000000
vt 0.000000 0.000000
vt 1.000000 0.000000
vt 0.000000 0.000000
vt 1.000000 0.000000
vt 0.750000 0.000000
vt 0.500000 1.000000
vt 0.250000 0.000000
vt 0.750000 0.000000
vt 0.250000 0.000000
vt 0.750000 0.000000
vt 0.250000 0.000000
vt 0.750000 0.000000
vt 0.250000 0.000000
vt 0.750000 0.000000
vt 0.250000 0.000000
vt 0.750000 0.000000
vt 0.250000 0.000000
vn -0.0874 -0.9960 0.0205
vn -0.0393 -0.5281 -0.8483
vn 0.0874 0.9959 -0.0205
vn 0.6991 -0.5835 -0.4133
vn 0.6936 -0.5654 0.4464
vn -0.0502 -0.4917 0.8693
vn -0.7885 -0.4355 0.4342
vn -0.7830 -0.4537 -0.4254
usemtl Leaves_Pine
s off
f 8/1/1 3/2/1 4/3/1
f 7/4/1 1/5/1 8/1/1
f 6/6/1 7/7/1 8/1/1
f 2/8/1 3/2/1 8/1/1
f 4/3/1 6/9/1 8/1/1
f 1/10/1 2/11/1 8/1/1
s 1
f 1/12/2 5/13/3 2/14/4
f 2/15/4 5/13/3 3/16/5
f 3/17/5 5/13/3 4/18/6
f 4/19/6 5/13/3 6/20/7
f 6/21/7 5/13/3 7/22/8
f 7/23/8 5/13/3 1/24/2
o Cone.088_Cone.151
v -0.044200 2.745096 -1.469722
v 1.235544 2.694652 -0.735751
v 1.240241 2.703595 0.739658
v -0.034807 2.762981 1.481096
v 0.169620 7.620579 -0.024476
v -1.314550 2.813425 0.747125
v -1.319247 2.804482 -0.728284
v -0.039503 2.754038 0.005687
vt 0.500000 0.500000
vt 1.000000 0.000000
vt 0.000000 0.000000
vt 0.000000 0.000000
vt 1.000000 0.000000
vt -0.000000 0.000000
vt 1.000000 0.000000
vt 0.000000 0.000000
vt 1.000000 0.000000
vt 0.000000 0.000000
vt 1.000000 0.000000
vt 0.750000 0.000000
vt 0.500000 1.000000
vt 0.250000 0.000000
vt 0.750000 0.000000
vt 0.250000 0.000000
vt 0.750000 0.000000
vt 0.250000 0.000000
vt 0.750000 0.000000
vt 0.250000 0.000000
vt 0.750000 0.000000
vt 0.250000 0.000000
vt 0.750000 0.000000
vt 0.250000 0.000000
vn -0.0429 -0.9991 0.0062
vn -0.0241 -0.5027 -0.8641
vn 0.0429 0.9991 -0.0062
vn 0.7276 -0.5323 -0.4328
vn 0.7303 -0.5270 0.4346
vn -0.0186 -0.4922 0.8702
vn -0.7703 -0.4625 0.4389
vn -0.7731 -0.4678 -0.4284
usemtl Leaves_Pine
s off
f 16/25/9 11/26/9 12/27/9
f 15/28/9 9/29/9 16/25/9
f 14/30/9 15/31/9 16/25/9
f 10/32/9 11/26/9 16/25/9
f 12/27/9 14/33/9 16/25/9
f 9/34/9 10/35/9 16/25/9
s 1
f 9/36/10 13/37/11 10/38/12
f 10/39/12 13/37/11 11/40/13
f 11/41/13 13/37/11 12/42/14
f 12/43/14 13/37/11 14/44/15
f 14/45/15 13/37/11 15/46/16
f 15/47/16 13/37/11 9/48/10
o Cone.089_Cone.152
v -0.000000 0.881065 -1.847795
v 1.600238 0.881065 -0.923898
v 1.600238 0.881065 0.923898
v -0.000000 0.881065 1.847795
v -0.000000 6.230613 -0.000000
v -1.600238 0.881065 0.923898
v -1.600238 0.881065 -0.923898
v -0.000000 0.881065 0.000000
vt 0.500000 0.500000
vt 1.000000 0.000000
vt 0.000000 0.000000
vt 0.000000 0.000000
vt 1.000000 0.000000
vt -0.000000 0.000000
vt 1.000000 0.000000
vt 0.000000 0.000000
vt 1.000000 0.000000
vt 0.000000 0.000000
vt 1.000000 0.000000
vt 0.750000 0.000000
vt 0.500000 1.000000
vt 0.250000 0.000000
vt 0.750000 0.000000
vt 0.250000 0.000000
vt 0.750000 0.000000
vt 0.250000 0.000000
vt 0.750000 0.000000
vt 0.250000 0.000000
vt 0.750000 0.000000
vt 0.250000 0.000000
vt 0.750000 0.000000
vt 0.250000 0.000000
vn 0.0000 -1.0000 0.0000
vn 0.0000 -0.4831 -0.8755
vn 0.0000 1.0000 0.0000
vn 0.7583 -0.4831 -0.4378
vn 0.7583 -0.4831 0.4378
vn 0.0000 -0.4831 0.8755
vn -0.7583 -0.4831 0.4378
vn -0.7583 -0.4831 -0.4378
usemtl Leaves_Pine
s off
f 24/49/17 19/50/17 20/51/17
f 23/52/17 17/53/17 24/49/17
f 22/54/17 23/55/17 24/49/17
f 18/56/17 19/50/17 24/49/17
f 20/51/17 22/57/17 24/49/17
f 17/58/17 18/59/17 24/49/17
s 1
f 17/60/18 21/61/19 18/62/20
f 18/63/20 21/61/19 19/64/21
f 19/65/21 21/61/19 20/66/22
f 20/67/22 21/61/19 22/68/23
f 22/69/23 21/61/19 23/70/24
f 23/71/24 21/61/19 17/72/18
o Cone.090_Cone.153
v 0.305731 6.136328 -1.030962
v 1.098591 6.062034 -0.483077
v 1.026083 6.114114 0.476503
v 0.160715 6.240487 0.888197
v 0.761895 10.428068 -0.261535
v -0.632145 6.314781 0.340312
v -0.559637 6.262702 -0.619268
v 0.233223 6.188407 -0.071382
vt 0.500000 0.500000
vt 1.000000 0.000000
vt 0.000000 0.000000
vt 0.000000 0.000000
vt 1.000000 0.000000
vt -0.000000 0.000000
vt 1.000000 0.000000
vt 0.000000 0.000000
vt 1.000000 0.000000
vt 0.000000 0.000000
vt 1.000000 0.000000
vt 0.750000 0.000000
vt 0.500000 1.000000
vt 0.250000 0.000000
vt 0.750000 0.000000
vt 0.250000 0.000000
vt 0.750000 0.000000
vt 0.250000 0.000000
vt 0.750000 0.000000
vt 0.250000 0.000000
vt 0.750000 0.000000
vt 0.250000 0.000000
vt 0.750000 0.000000
vt 0.250000 0.000000
vn -0.1236 -0.9913 0.0445
vn -0.0010 -0.5674 -0.8234
vn 0.1236 0.9913 -0.0444
vn 0.6959 -0.6321 -0.3409
vn 0.6318 -0.5860 0.5073
vn -0.1290 -0.4755 0.8702
vn -0.8258 -0.4096 0.3876
vn -0.7617 -0.4557 -0.4606
usemtl Leaves_Pine
s off
f 32/73/25 27/74/25 28/75/25
f 31/76/25 25/77/25 32/73/25
f 30/78/25 31/79/25 32/73/25
f 26/80/25 27/74/25 32/73/25
f 28/75/25 30/81/25 32/73/25
f 25/82/25 26/83/25 32/73/25
s 1
f 25/84/26 29/85/27 26/86/28
f 26/87/28 29/85/27 27/88/29
f 27/89/29 29/85/27 28/90/30
f 28/91/30 29/85/27 30/92/31
f 30/93/31 29/85/27 31/94/32
f 31/95/32 29/85/27 25/96/26
o Cube.082_Cube.280
v 0.291035 0.000000 0.123372
v 0.133147 -0.000000 0.274928
v -0.133147 0.000000 0.274928
v -0.291035 -0.000000 0.123372
v -0.291035 0.000000 -0.123372
v -0.133147 -0.000000 -0.274928
v 0.133147 0.000000 -0.274928
v 0.291035 -0.000000 -0.123372
v 0.236598 0.179486 0.119584
v 0.119584 0.179486 0.236598
v -0.119584 0.179486 0.236598
v -0.236598 0.179486 0.119584
v -0.236598 0.179486 -0.119584
v -0.119584 0.179486 -0.236598
v 0.119584 0.179486 -0.236598
v 0.236598 0.179486 -0.119584
v 0.084036 1.714074 0.200893
v 0.200893 1.714074 0.084036
v -0.200893 1.714074 0.084036
v -0.084036 1.714074 0.200893
v -0.084036 1.714074 -0.200893
v -0.200893 1.714074 -0.084036
v 0.200893 1.714074 -0.084036
v 0.084036 1.714074 -0.200893
vt 0.196880 0.174913
vt 0.079815 0.175887
vt 0.027544 0.002373
vt 0.162650 0.003532
vt 0.706705 0.174493
vt 0.828507 0.175101
vt 0.748243 0.998335
vt 0.666624 0.998701
vt 0.736258 0.003968
vt 0.856904 0.003292
vt 0.621332 0.174170
vt 0.495340 0.174081
vt 0.501271 0.004363
vt 0.629720 0.004193
vt 0.422158 0.998923
vt 0.408529 0.174139
vt 0.503036 0.998999
vt 0.585581 0.998916
vt 0.259197 0.998345
vt 0.177321 0.997846
vt 0.271270 0.004133
vt 0.282216 0.174535
vt 0.960737 0.002289
vt 0.908982 0.175729
vt 0.394419 0.004394
vt 0.339958 0.998708
vt 0.828255 0.997846
vn 0.3791 0.1321 0.9158
vn -0.3791 0.1321 0.9158
vn -0.3652 0.2261 0.9030
vn 0.3652 0.2261 0.9030
vn -0.9059 0.1551 -0.3941
vn -0.9059 0.1551 0.3941
vn -0.9246 0.0303 0.3797
vn -0.9246 0.0303 -0.3797
vn -0.8941 0.2734 -0.3546
vn -0.8941 0.2734 0.3546
vn -0.3791 0.1321 -0.9158
vn 0.3791 0.1321 -0.9158
vn 0.3652 0.2261 -0.9030
vn -0.3652 0.2261 -0.9030
vn 0.9246 0.0303 -0.3797
vn 0.9059 0.1551 -0.3941
vn 0.3797 0.0303 -0.9246
vn -0.3797 0.0303 -0.9246
vn 0.3797 0.0303 0.9246
vn -0.3797 0.0303 0.9246
vn 0.8941 0.2734 0.3546
vn 0.9059 0.1551 0.3941
vn 0.8941 0.2734 -0.3546
vn 0.9246 0.0303 0.3797
usemtl Bark_Pine
s 1
f 42/97/33 43/98/34 35/99/35 34/100/36
f 45/101/37 44/102/38 51/103/39 54/104/40
f 44/102/38 45/101/37 37/105/41 36/106/42
f 46/107/43 47/108/44 39/109/45 38/110/46
f 55/111/47 48/112/48 47/108/44 56/113/49
f 47/108/44 46/107/43 53/114/50 56/113/49
f 43/98/34 42/97/33 49/115/51 52/116/52
f 33/117/53 41/118/54 42/97/33 34/100/36
f 44/102/38 36/106/42 35/119/35 43/120/34
f 46/107/43 38/110/46 37/105/41 45/101/37
f 48/112/48 40/121/55 39/109/45 47/108/44
f 41/118/54 48/112/48 55/111/47 50/122/56
f 41/118/54 50/122/56 49/115/51 42/97/33
f 53/114/50 46/107/43 45/101/37 54/104/40
f 51/103/39 44/102/38 43/120/34 52/123/52
f 48/112/48 41/118/54 33/117/53 40/121/55
