# Blender v2.90.0 OBJ File: 'Nature Kit.blend'
# www.blender.org
mtllib Tree_Oak_3.mtl
o Icosphere.081_Icosphere.103
v 0.013534 3.295236 -0.009780
v 1.320731 3.986465 -0.333249
v 0.590596 3.945622 1.010237
v -0.813342 3.977511 0.887106
v -1.083461 4.006125 -0.514537
v 0.214868 3.901643 -1.378897
v 1.152575 5.523140 0.432756
v -0.081410 5.471776 1.177892
v -1.116753 5.490784 0.262525
v -0.590679 5.553734 -1.116619
v 0.953958 5.606977 -0.967318
v 0.070748 6.401078 -0.015095
v 0.357757 3.458004 0.584897
v 0.736230 3.475177 -0.183317
v 1.112608 3.775986 0.431149
v 0.905281 3.835151 -0.956616
v 0.125548 3.451453 -0.741981
v -0.493107 3.470667 0.493591
v -0.127126 3.864596 1.090220
v -0.604074 3.495047 -0.315201
v -1.089513 3.888877 0.208617
v -0.518263 3.896586 -1.023349
v 1.400295 4.802704 -0.824655
v 0.777368 4.784299 -1.418727
v 1.055996 4.685109 0.851830
v 1.489076 4.724621 0.060678
v -0.536581 4.706485 1.268590
v 0.297182 4.716900 1.306490
v -1.349056 4.788229 -0.140475
v -1.199900 4.781489 0.690591
v -0.231112 4.693418 -1.509391
v -1.092298 4.800097 -0.985916
v 1.186404 5.679263 -0.291492
v 0.607903 5.606299 0.952178
v -0.737347 5.626876 0.855603
v -1.011120 5.641878 -0.457647
v 0.228343 5.694142 -1.175619
v 0.666452 6.111094 0.246817
v 0.527750 6.231467 -0.512777
v -0.019343 6.131568 0.667594
v -0.591408 6.155684 0.138931
v -0.269302 6.244750 -0.614971
vt 0.816406 0.000000
vt 0.773438 0.117188
vt 0.863281 0.117188
vt 0.726562 0.234375
vt 0.683594 0.117188
vt 0.636719 0.234375
vt 0.089844 0.000000
vt 0.046875 0.117188
vt 0.136719 0.117188
vt 0.273438 0.000000
vt 0.226562 0.117188
vt 0.316406 0.117188
vt 0.453125 0.000000
vt 0.410156 0.117188
vt 0.500000 0.117188
vt 0.683594 0.355469
vt 0.910156 0.234375
vt 0.816406 0.234375
vt 0.863281 0.355469
vt 0.183594 0.234375
vt 0.089844 0.234375
vt 0.136719 0.355469
vt 0.363281 0.234375
vt 0.273438 0.234375
vt 0.316406 0.355469
vt 0.546875 0.234375
vt 0.453125 0.234375
vt 0.500000 0.355469
vt 0.773438 0.355469
vt 0.953125 0.355469
vt 0.226562 0.355469
vt 0.410156 0.355469
vt 0.589844 0.355469
vt 0.816406 0.472656
vt 0.726562 0.472656
vt 0.773438 0.589844
vt 1.000000 0.472656
vt 0.910156 0.472656
vt 0.953125 0.589844
vt 0.273438 0.472656
vt 0.183594 0.472656
vt 0.226562 0.589844
vt 0.453125 0.472656
vt 0.363281 0.472656
vt 0.410156 0.589844
vt 0.636719 0.472656
vt 0.546875 0.472656
vt 0.589844 0.589844
vt 0.500000 0.589844
vt 0.546875 0.707031
vt 0.316406 0.589844
vt 0.363281 0.707031
vt 0.136719 0.589844
vt 0.183594 0.707031
vt 0.089844 0.472656
vt 0.863281 0.589844
vt 0.910156 0.707031
vt 0.683594 0.589844
vt 0.726562 0.707031
vt 0.046875 0.355469
vt 0.000000 0.234375
vt 0.589844 0.117188
vt 0.636719 0.000000
vn -0.0193 -0.9998 0.0055
vn 0.4324 -0.8978 -0.0841
vn 0.2017 -0.8776 0.4349
vn 0.8601 -0.4902 -0.1410
vn 0.5665 -0.6093 -0.5547
vn -0.3601 -0.8669 0.3448
vn -0.4681 -0.8557 -0.2203
vn -0.0009 -0.9084 -0.4182
vn 0.8962 0.0356 -0.4422
vn 0.3960 -0.4521 0.7992
vn 0.7203 -0.5872 0.3692
vn 0.7214 -0.0080 0.6925
vn -0.6009 -0.4693 0.6470
vn -0.0818 -0.5481 0.8324
vn -0.3663 -0.0141 0.9304
vn -0.8055 -0.4854 -0.3399
vn -0.8307 -0.5390 0.1394
vn -0.9979 0.0238 -0.0603
vn 0.0349 -0.5370 -0.8428
vn -0.4750 -0.5749 -0.6662
vn -0.2455 -0.0046 -0.9694
vn 0.9831 0.0178 0.1819
vn 0.2341 -0.0123 0.9721
vn -0.8755 0.0237 0.4826
vn -0.7880 0.0075 -0.6156
vn 0.4200 0.0452 -0.9064
vn 0.8020 0.4363 0.4078
vn 0.8311 0.5504 -0.0792
vn 0.5188 0.8026 0.2943
vn -0.0517 0.4118 0.9098
vn 0.4457 0.4761 0.7580
vn -0.0276 0.8123 0.5826
vn -0.8725 0.4517 0.1862
vn -0.5642 0.5163 0.6443
vn -0.5523 0.8187 0.1570
vn -0.4556 0.4715 -0.7550
vn -0.8073 0.5264 -0.2668
vn -0.2882 0.8515 -0.4381
vn 0.5885 0.5239 -0.6158
vn 0.0761 0.5439 -0.8357
vn 0.3806 0.8638 -0.3300
vn 0.0227 0.9955 0.0923
usemtl Leaves_Oak
s 1
f 1/1/1 14/2/2 13/3/3
f 2/4/4 14/5/2 16/6/5
f 1/7/1 13/8/3 18/9/6
f 1/10/1 18/11/6 20/12/7
f 1/13/1 20/14/7 17/15/8
f 2/4/4 16/6/5 23/16/9
f 3/17/10 15/18/11 25/19/12
f 4/20/13 19/21/14 27/22/15
f 5/23/16 21/24/17 29/25/18
f 6/26/19 22/27/20 31/28/21
f 2/4/4 23/16/9 26/29/22
f 3/17/10 25/19/12 28/30/23
f 4/20/13 27/22/15 30/31/24
f 5/23/16 29/25/18 32/32/25
f 6/26/19 31/28/21 24/33/26
f 7/34/27 33/35/28 38/36/29
f 8/37/30 34/38/31 40/39/32
f 9/40/33 35/41/34 41/42/35
f 10/43/36 36/44/37 42/45/38
f 11/46/39 37/47/40 39/48/41
f 39/48/41 42/49/38 12/50/42
f 39/48/41 37/47/40 42/49/38
f 37/47/40 10/43/36 42/49/38
f 42/45/38 41/51/35 12/52/42
f 42/45/38 36/44/37 41/51/35
f 36/44/37 9/40/33 41/51/35
f 41/42/35 40/53/32 12/54/42
f 41/42/35 35/41/34 40/53/32
f 35/41/34 8/55/30 40/53/32
f 40/39/32 38/56/29 12/57/42
f 40/39/32 34/38/31 38/56/29
f 34/38/31 7/34/27 38/56/29
f 38/36/29 39/58/41 12/59/42
f 38/36/29 33/35/28 39/58/41
f 33/35/28 11/46/39 39/58/41
f 24/33/26 37/47/40 11/46/39
f 24/33/26 31/28/21 37/47/40
f 31/28/21 10/43/36 37/47/40
f 32/32/25 36/44/37 10/43/36
f 32/32/25 29/25/18 36/44/37
f 29/25/18 9/40/33 36/44/37
f 30/31/24 35/41/34 9/40/33
f 30/31/24 27/22/15 35/41/34
f 27/22/15 8/55/30 35/41/34
f 28/30/23 34/38/31 8/37/30
f 28/30/23 25/19/12 34/38/31
f 25/19/12 7/34/27 34/38/31
f 26/29/22 33/35/28 7/34/27
f 26/29/22 23/16/9 33/35/28
f 23/16/9 11/46/39 33/35/28
f 31/28/21 32/32/25 10/43/36
f 31/28/21 22/27/20 32/32/25
f 22/27/20 5/23/16 32/32/25
f 29/25/18 30/31/24 9/40/33
f 29/25/18 21/24/17 30/31/24
f 21/24/17 4/20/13 30/31/24
f 27/22/15 28/60/23 8/55/30
f 27/22/15 19/21/14 28/60/23
f 19/21/14 3/61/10 28/60/23
f 25/19/12 26/29/22 7/34/27
f 25/19/12 15/18/11 26/29/22
f 15/18/11 2/4/4 26/29/22
f 23/16/9 24/33/26 11/46/39
f 23/16/9 16/6/5 24/33/26
f 16/6/5 6/26/19 24/33/26
f 17/15/8 22/27/20 6/26/19
f 17/15/8 20/14/7 22/27/20
f 20/14/7 5/23/16 22/27/20
f 20/12/7 21/24/17 5/23/16
f 20/12/7 18/11/6 21/24/17
f 18/11/6 4/20/13 21/24/17
f 18/9/6 19/21/14 4/20/13
f 18/9/6 13/8/3 19/21/14
f 13/8/3 3/61/10 19/21/14
f 16/6/5 17/62/8 6/26/19
f 16/6/5 14/5/2 17/62/8
f 14/5/2 1/63/1 17/62/8
f 13/3/3 15/18/11 3/17/10
f 13/3/3 14/2/2 15/18/11
f 14/2/2 2/4/4 15/18/11
o Cube.081_Cube.212
v -0.253974 0.022066 -0.071330
v 0.035430 -0.007258 -0.246597
v 0.245669 0.037405 0.038650
v -0.072016 0.018363 0.226502
v -0.197546 1.353690 -0.079563
v -0.050270 1.365300 -0.178700
v 0.049295 1.363260 -0.032657
v -0.095784 1.352167 0.068263
v -0.154357 0.311180 -0.062095
v 0.020803 0.315205 -0.189274
v 0.150734 0.339956 -0.004613
v -0.033954 0.334390 0.119027
v -0.252767 3.980684 0.410431
v 0.314768 3.178071 -0.402898
v 0.381268 3.181986 -0.341627
v 0.323023 3.210352 -0.271080
v 0.254014 3.211962 -0.343652
v 0.512579 4.210182 -0.537416
v -0.249362 2.407060 0.108668
v -0.151803 2.421944 0.046098
v -0.093019 2.417061 0.136483
v -0.182264 2.402822 0.200337
v -0.137297 2.661410 0.223994
v -0.240053 2.663558 0.212248
v -0.190585 2.651408 0.084686
v -0.086732 2.663215 0.138995
v -0.118544 2.590480 0.027505
v -0.027155 2.577627 0.076820
v 0.247617 3.030788 -0.336341
v 0.311534 3.041218 -0.254730
v 0.266015 3.101855 -0.212775
v 0.194057 3.102255 -0.288322
v 0.493839 4.100039 -0.546260
v 0.527089 4.101997 -0.515625
v 0.497967 4.116180 -0.480351
v 0.463462 4.116985 -0.516637
v -0.241174 3.712905 0.409066
v -0.213612 3.727817 0.365189
v -0.297185 3.715952 0.403315
v -0.270221 3.730609 0.335023
vt 0.421875 0.257812
vt 0.289062 0.265625
vt 0.300781 0.468750
vt 0.414062 0.476562
vt 0.453125 0.500000
vt 0.355469 0.464844
vt 0.531250 0.539062
vt 0.406250 0.085938
vt 0.277344 0.109375
vt 0.164062 0.527344
vt 0.316406 0.539062
vt 0.199219 0.460938
vt 0.339844 0.519531
vt 0.210938 0.519531
vt 0.410156 0.042969
vt 0.265625 0.039062
vt 0.175781 0.242188
vt 0.355469 0.234375
vt 0.371094 0.761719
vt 0.414062 0.761719
vt 0.453125 0.777344
vt 0.484375 1.234375
vt 0.429688 1.214844
vt 0.460938 1.277344
vt 0.332031 0.050781
vt 0.152344 0.054688
vt 0.156250 -0.003906
vt 0.410156 -0.015625
vt 0.292969 0.851562
vt 0.300781 0.855469
vt 0.253906 0.945312
vt 0.191406 0.847656
vt 0.507812 0.781250
vt 0.523438 0.863281
vt 0.531250 0.859375
vt 0.214844 0.847656
vt 0.421875 0.824219
vt 0.421875 0.835938
vt 0.421875 1.218750
vt 0.492188 1.234375
vn 0.1732 0.1283 -0.9765
vn -0.9743 -0.0220 -0.2241
vn -0.9648 0.0031 -0.2627
vn 0.0666 0.0072 -0.9977
vn 0.9055 -0.4146 0.0896
vn 0.9701 -0.1191 0.2115
vn -0.1481 -0.3145 -0.9376
vn 0.1423 0.1111 -0.9836
vn -0.9659 0.1487 -0.2118
vn -0.8233 -0.1106 0.5567
vn -0.7895 0.2519 -0.5596
vn -0.2373 -0.1414 0.9611
vn 0.7754 0.4335 0.4591
vn 0.4448 -0.1010 0.8899
vn 0.1824 0.1750 -0.9675
vn -0.9280 0.2973 -0.2246
vn -0.1803 -0.0501 0.9823
vn 0.9832 0.1146 0.1417
vn 0.1868 0.4683 0.8636
vn -0.8690 0.4588 -0.1854
vn 0.8785 -0.4650 0.1097
vn 0.0062 -0.0507 -0.9987
vn -0.9409 0.3331 -0.0617
vn 0.1663 0.9610 -0.2208
vn 0.9536 0.1888 0.2344
vn -0.1847 0.2083 0.9604
vn -0.2469 0.3526 0.9026
vn 0.9501 0.2468 0.1908
vn 0.9560 0.1773 -0.2337
vn -0.3801 0.2355 -0.8945
vn 0.0144 0.9912 0.1312
vn -0.8499 -0.0049 0.5268
vn -0.0677 -0.4940 -0.8668
vn 0.0204 -0.3074 -0.9514
vn 0.9542 -0.2961 -0.0418
vn 0.4197 -0.0516 0.9062
vn 0.1466 0.3178 0.9367
vn -0.9434 0.3039 -0.1327
vn 0.0928 0.3502 0.9320
vn 0.9969 -0.0354 -0.0701
usemtl Bark_Oak
s 1
f 48/64/43 47/65/44 61/66/45 62/67/46
f 70/68/47 63/69/48 62/67/46 69/70/49
f 52/71/50 51/72/51 47/65/44 48/64/43
f 66/73/52 67/74/53 61/66/45 64/75/54
f 68/76/55 65/77/56 70/68/47
f 61/66/45 67/74/53 69/70/49 62/67/46
f 65/77/56 64/75/54 63/69/48 70/68/47
f 51/72/51 52/71/50 44/78/57 43/79/58
f 47/65/44 50/80/59 64/75/54 61/66/45
f 50/80/59 49/81/60 63/69/48 64/75/54
f 67/74/53 68/76/55 73/82/61 74/83/62
f 73/82/61 68/76/55 70/68/47 72/84/63
f 49/81/60 48/64/43 62/67/46 63/69/48
f 75/85/64 78/86/65 60/87/66
f 53/88/67 54/89/68 46/90/69 45/91/70
f 80/92/71 82/93/72 55/94/73
f 82/93/72 81/95/74 55/94/73
f 69/70/49 67/74/53 74/83/62 71/96/75
f 54/89/68 53/88/67 49/81/60 50/80/59
f 70/68/47 69/70/49 71/96/75 72/84/63
f 54/89/68 51/72/51 43/79/58 46/90/69
f 56/97/76 57/98/77 72/84/63 71/96/75
f 79/99/78 80/92/71 55/94/73
f 58/100/79 59/101/80 74/83/62 73/82/61
f 78/86/65 77/102/81 60/87/66
f 81/95/74 79/99/78 55/94/73
f 76/103/82 75/85/64 60/87/66
f 51/72/51 54/89/68 50/80/59 47/65/44
f 71/96/75 74/83/62 59/101/80 56/97/76
f 58/100/79 73/82/61 72/84/63 57/98/77
f 77/102/81 58/100/79 57/98/77 76/103/82
f 60/87/66 77/102/81 76/103/82
f 57/98/77 56/97/76 75/85/64 76/103/82
f 59/101/80 58/100/79 77/102/81 78/86/65
f 56/97/76 59/101/80 78/86/65 75/85/64
f 66/73/52 64/75/54 65/77/56 79/99/78 81/95/74
f 65/77/56 68/76/55 80/92/71 79/99/78
f 67/74/53 66/73/52 81/95/74 82/93/72
f 68/76/55 67/74/53 82/93/72 80/92/71
f 53/88/67 45/91/70 44/78/57 52/71/50 48/64/43 49/81/60
