# Blender v2.90.0 OBJ File: 'Nature Kit.blend'
# www.blender.org
mtllib Tree_Bare_1.mtl
o Cube.079_Cube.218
v -0.253974 0.022066 -0.071330
v 0.035430 -0.007258 -0.246597
v 0.245669 0.037405 0.038650
v -0.072016 0.018363 0.226502
v -0.197546 1.353690 -0.079563
v -0.050270 1.365300 -0.178700
v 0.049295 1.363260 -0.032657
v -0.095784 1.352167 0.068263
v -0.154357 0.311180 -0.062095
v 0.020803 0.315205 -0.189274
v 0.150734 0.339956 -0.004613
v -0.033954 0.334390 0.119027
v -0.252767 3.980684 0.410431
v 0.314768 3.178071 -0.402898
v 0.381268 3.181986 -0.341627
v 0.323023 3.210352 -0.271080
v 0.254014 3.211962 -0.343652
v 0.512579 4.210182 -0.537416
v -0.249362 2.407060 0.108668
v -0.151803 2.421944 0.046098
v -0.093019 2.417061 0.136483
v -0.182264 2.402822 0.200337
v -0.137297 2.661410 0.223994
v -0.240053 2.663558 0.212248
v -0.190585 2.651408 0.084686
v -0.086732 2.663215 0.138995
v -0.118544 2.590480 0.027505
v -0.027155 2.577627 0.076820
v 0.247617 3.030788 -0.336341
v 0.311534 3.041218 -0.254730
v 0.266015 3.101855 -0.212775
v 0.194057 3.102255 -0.288322
v 0.493839 4.100039 -0.546260
v 0.527089 4.101997 -0.515625
v 0.497967 4.116180 -0.480351
v 0.463462 4.116985 -0.516637
v -0.241174 3.712905 0.409066
v -0.213612 3.727817 0.365189
v -0.297185 3.715952 0.403315
v -0.270221 3.730609 0.335023
vt 0.421875 0.257812
vt 0.289062 0.265625
vt 0.300781 0.468750
vt 0.414062 0.476562
vt 0.453125 0.500000
vt 0.355469 0.464844
vt 0.531250 0.539062
vt 0.406250 0.085938
vt 0.277344 0.109375
vt 0.164062 0.527344
vt 0.316406 0.539062
vt 0.199219 0.460938
vt 0.339844 0.519531
vt 0.210938 0.519531
vt 0.410156 0.042969
vt 0.265625 0.039062
vt 0.175781 0.242188
vt 0.355469 0.234375
vt 0.371094 0.761719
vt 0.414062 0.761719
vt 0.453125 0.777344
vt 0.484375 1.234375
vt 0.429688 1.214844
vt 0.460938 1.277344
vt 0.332031 0.050781
vt 0.152344 0.054688
vt 0.156250 -0.003906
vt 0.410156 -0.015625
vt 0.292969 0.851562
vt 0.300781 0.855469
vt 0.253906 0.945312
vt 0.191406 0.847656
vt 0.507812 0.781250
vt 0.523438 0.863281
vt 0.531250 0.859375
vt 0.214844 0.847656
vt 0.421875 0.824219
vt 0.421875 0.835938
vt 0.421875 1.218750
vt 0.492188 1.234375
vn 0.1732 0.1283 -0.9765
vn -0.9743 -0.0220 -0.2241
vn -0.9648 0.0031 -0.2627
vn 0.0666 0.0072 -0.9977
vn 0.9055 -0.4146 0.0896
vn 0.9701 -0.1191 0.2115
vn -0.1481 -0.3145 -0.9376
vn 0.1423 0.1111 -0.9836
vn -0.9659 0.1487 -0.2118
vn -0.8233 -0.1106 0.5567
vn -0.7895 0.2519 -0.5596
vn -0.2373 -0.1414 0.9611
vn 0.7754 0.4335 0.4591
vn 0.4448 -0.1010 0.8899
vn 0.1824 0.1750 -0.9675
vn -0.9280 0.2973 -0.2246
vn -0.1803 -0.0501 0.9823
vn 0.9832 0.1146 0.1417
vn 0.1868 0.4683 0.8636
vn -0.8690 0.4588 -0.1854
vn 0.8785 -0.4650 0.1097
vn 0.0062 -0.0507 -0.9987
vn -0.9409 0.3331 -0.0617
vn 0.1663 0.9610 -0.2208
vn 0.9536 0.1888 0.2344
vn -0.1847 0.2083 0.9604
vn -0.2469 0.3526 0.9026
vn 0.9501 0.2468 0.1908
vn 0.9560 0.1773 -0.2337
vn -0.3801 0.2355 -0.8945
vn 0.0144 0.9912 0.1312
vn -0.8499 -0.0049 0.5268
vn -0.0677 -0.4940 -0.8668
vn 0.0204 -0.3074 -0.9514
vn 0.9542 -0.2961 -0.0418
vn 0.4197 -0.0516 0.9062
vn 0.1466 0.3178 0.9367
vn -0.9434 0.3039 -0.1327
vn 0.0928 0.3502 0.9320
vn 0.9969 -0.0354 -0.0701
usemtl Bark_Oak
s 1
f 6/1/1 5/2/2 19/3/3 20/4/4
f 28/5/5 21/6/6 20/4/4 27/7/7
f 10/8/8 9/9/9 5/2/2 6/1/1
f 24/10/10 25/11/11 19/3/3 22/12/12
f 26/13/13 23/14/14 28/5/5
f 19/3/3 25/11/11 27/7/7 20/4/4
f 23/14/14 22/12/12 21/6/6 28/5/5
f 9/9/9 10/8/8 2/15/15 1/16/16
f 5/2/2 8/17/17 22/12/12 19/3/3
f 8/17/17 7/18/18 21/6/6 22/12/12
f 25/11/11 26/13/13 31/19/19 32/20/20
f 31/19/19 26/13/13 28/5/5 30/21/21
f 7/18/18 6/1/1 20/4/4 21/6/6
f 33/22/22 36/23/23 18/24/24
f 11/25/25 12/26/26 4/27/27 3/28/28
f 38/29/29 40/30/30 13/31/31
f 40/30/30 39/32/32 13/31/31
f 27/7/7 25/11/11 32/20/20 29/33/33
f 12/26/26 11/25/25 7/18/18 8/17/17
f 28/5/5 27/7/7 29/33/33 30/21/21
f 12/26/26 9/9/9 1/16/16 4/27/27
f 14/34/34 15/35/35 30/21/21 29/33/33
f 37/36/36 38/29/29 13/31/31
f 16/37/37 17/38/38 32/20/20 31/19/19
f 36/23/23 35/39/39 18/24/24
f 39/32/32 37/36/36 13/31/31
f 34/40/40 33/22/22 18/24/24
f 9/9/9 12/26/26 8/17/17 5/2/2
f 29/33/33 32/20/20 17/38/38 14/34/34
f 16/37/37 31/19/19 30/21/21 15/35/35
f 35/39/39 16/37/37 15/35/35 34/40/40
f 18/24/24 35/39/39 34/40/40
f 15/35/35 14/34/34 33/22/22 34/40/40
f 17/38/38 16/37/37 35/39/39 36/23/23
f 14/34/34 17/38/38 36/23/23 33/22/22
f 24/10/10 22/12/12 23/14/14 37/36/36 39/32/32
f 23/14/14 26/13/13 38/29/29 37/36/36
f 25/11/11 24/10/10 39/32/32 40/30/30
f 26/13/13 25/11/11 40/30/30 38/29/29
f 11/25/25 3/28/28 2/15/15 10/8/8 6/1/1 7/18/18
