# Blender v2.90.0 OBJ File: 'Nature Kit.blend'
# www.blender.org
mtllib Shell_Salmon.mtl
o Shell_Salmon_Top.001_Cube.235
v -0.036725 0.001757 0.070136
v -0.036725 0.001757 -0.070136
v -0.082679 0.001757 -0.017150
v -0.082679 0.001757 0.017150
v -0.065912 0.001757 0.048565
v -0.065912 0.001757 -0.048565
v 0.087339 0.007920 0.006770
v 0.084958 0.006189 -0.026760
v 0.087339 0.007920 -0.006770
v 0.084958 0.006189 0.026760
v 0.000668 0.001757 -0.080702
v 0.000668 0.001757 0.080702
v 0.012644 0.011834 -0.045820
v -0.026634 0.011834 -0.045837
v -0.050896 0.012120 -0.015920
v -0.050896 0.012120 0.015920
v 0.012644 0.011834 0.045820
v -0.026634 0.011834 0.045837
v 0.091971 0.013552 0.004249
v 0.051168 0.003710 0.035033
v 0.051168 0.003710 -0.035033
v 0.044342 0.006795 -0.025766
v 0.091971 0.013552 -0.004249
v 0.044342 0.006795 0.025766
vt 0.666667 0.216667
vt 0.550000 0.033333
vt 0.716667 0.183333
vt 0.666667 0.050000
vt 0.450000 0.033333
vt 0.466667 0.000000
vt 0.533333 0.000000
vt 0.333333 0.050000
vt 0.283333 0.183333
vt 0.600000 1.000000
vt 0.600000 0.800000
vt 0.783333 0.650000
vt 0.800000 0.900000
vt 0.783333 0.416667
vt 0.400000 0.800000
vt 0.216667 0.650000
vt 0.216667 0.416667
vt 0.333333 0.216667
vt 0.400000 1.000000
vt 0.200000 0.900000
vt 0.066667 0.716667
vt 0.000000 0.483333
vt 1.000000 0.483333
vt 0.933333 0.716667
vn -0.1189 -0.9821 -0.1462
vn 0.4408 -0.8975 -0.0086
vn -0.1607 -0.9521 -0.2602
vn 0.1517 -0.9861 -0.0673
vn 0.4408 -0.8975 0.0086
vn 0.7748 -0.6321 -0.0116
vn 0.7748 -0.6321 0.0116
vn 0.1517 -0.9861 0.0673
vn -0.1607 -0.9521 0.2602
vn 0.2910 -0.9536 -0.0772
vn 0.1586 -0.9853 -0.0638
vn 0.0817 -0.9804 -0.1793
vn 0.2509 -0.9445 -0.2118
vn -0.1246 -0.9765 -0.1758
vn 0.1586 -0.9853 0.0638
vn 0.0817 -0.9804 0.1793
vn -0.1246 -0.9765 0.1758
vn -0.1189 -0.9821 0.1462
vn 0.2910 -0.9536 0.0772
vn 0.2509 -0.9445 0.2118
vn 0.1558 -0.9337 0.3225
vn -0.0409 -0.9503 0.3086
vn -0.0409 -0.9503 -0.3086
vn 0.1558 -0.9337 -0.3225
usemtl Shell_Inner
s 1
f 24/1/1 7/2/2 20/3/3
f 7/2/2 10/4/4 20/3/3
f 9/5/5 23/6/6 19/7/7 7/2/2
f 8/8/8 9/5/5 21/9/9
f 4/10/10 16/11/11 18/12/12 5/13/13
f 7/2/2 24/1/1 17/14/14 18/12/12 16/11/11 15/15/15 14/16/16 13/17/17 22/18/18 9/5/5
f 3/19/19 15/15/15 16/11/11 4/10/10
f 6/20/20 14/16/16 15/15/15 3/19/19
f 2/21/21 11/22/22 14/16/16
f 17/14/14 24/1/1 20/3/3 12/23/23
f 18/12/12 12/23/23 1/24/24
f 14/16/16 11/22/22 13/17/17
f 10/4/4 7/2/2 19/7/7
f 9/5/5 8/8/8 23/6/6
f 18/12/12 17/14/14 12/23/23
f 11/22/22 21/9/9 22/18/18 13/17/17
f 9/5/5 22/18/18 21/9/9
f 6/20/20 2/21/21 14/16/16
f 5/13/13 18/12/12 1/24/24
o Shell_Salmon_Bottom.001_Cube.240
v -0.036725 0.001757 0.070136
v -0.036725 0.001757 -0.070136
v -0.082679 0.001757 -0.017150
v -0.082679 0.001757 0.017150
v -0.065912 0.001757 0.048565
v -0.065912 0.001757 -0.048565
v 0.084958 0.006189 -0.026760
v 0.084958 0.006189 0.026760
v 0.000668 0.001757 -0.080702
v 0.000668 0.001757 0.080702
v -0.026634 0.020504 -0.045837
v 0.008396 0.026004 -0.038742
v -0.037812 0.025785 -0.015920
v 0.007055 0.032115 -0.013202
v -0.037812 0.025785 0.015920
v 0.007055 0.032115 0.013202
v -0.026634 0.020504 0.045837
v 0.008396 0.026004 0.038742
v 0.044342 0.016144 -0.025766
v 0.043631 0.024783 -0.008722
v 0.044342 0.016144 0.025766
v 0.091971 0.013552 0.004249
v 0.051168 0.003710 0.035033
v 0.051168 0.003710 -0.035033
v 0.043631 0.024783 0.008722
v 0.091971 0.013552 -0.004249
v 0.086102 0.017524 -0.006869
v 0.086102 0.017524 0.006869
vt 0.283333 0.733333
vt 0.266667 1.000000
vt 0.116667 1.000000
vt 0.883333 1.000000
vt 0.733333 1.000000
vt 0.716667 0.733333
vt 0.583333 1.000000
vt 0.583333 0.750000
vt 0.416667 1.000000
vt 0.416667 0.750000
vt 0.550000 0.050000
vt 0.683333 0.033333
vt 0.850000 0.183333
vt 0.450000 0.050000
vt 0.316667 0.033333
vt 0.466667 0.000000
vt 0.433333 0.233333
vt 0.416667 0.483333
vt 0.316667 0.500000
vt 0.233333 0.216667
vt 0.566667 0.233333
vt 0.583333 0.483333
vt 0.750000 0.216667
vt 0.683333 0.500000
vt 0.150000 0.183333
vt 1.000000 0.850000
vt -0.000000 0.850000
vt 0.533333 0.000000
vn -0.2174 0.8966 0.3858
vn -0.4066 0.8513 0.3315
vn -0.2531 0.8139 0.5229
vn -0.2531 0.8139 -0.5229
vn -0.4066 0.8513 -0.3315
vn -0.2174 0.8966 -0.3858
vn -0.4566 0.8820 -0.1166
vn -0.3096 0.9423 -0.1274
vn -0.4566 0.8820 0.1166
vn -0.3096 0.9423 0.1274
vn 0.3911 0.8809 -0.2667
vn 0.1428 0.8563 -0.4962
vn 0.3267 0.7360 -0.5929
vn 0.3911 0.8809 0.2667
vn 0.1428 0.8563 0.4962
vn 0.6012 0.7828 0.1604
vn 0.2108 0.9600 0.1841
vn 0.0562 0.9890 0.1365
vn 0.1609 0.9009 0.4031
vn 0.3142 0.8095 0.4960
vn 0.2108 0.9600 -0.1841
vn 0.0562 0.9890 -0.1365
vn 0.3142 0.8095 -0.4960
vn 0.1609 0.9009 -0.4031
vn 0.3267 0.7360 0.5929
vn 0.0879 0.8320 -0.5478
vn 0.0879 0.8320 0.5478
vn 0.6012 0.7828 -0.1604
usemtl Shell_Salmon
s 1
f 41/25/25 29/26/26 25/27/27
f 26/28/28 30/29/29 35/30/30
f 35/30/30 30/29/29 27/31/31 37/32/32
f 37/32/32 27/31/31 28/33/33 39/34/34
f 39/34/34 28/33/33 29/26/26 41/25/25
f 51/35/35 31/36/36 48/37/37
f 52/38/38 32/39/39 46/40/40
f 49/41/41 40/42/42 42/43/43 45/44/44
f 40/42/42 39/34/34 41/25/25 42/43/43
f 44/45/45 38/46/46 40/42/42 49/41/41
f 38/46/46 37/32/32 39/34/34 40/42/42
f 43/47/47 36/48/48 38/46/46 44/45/45
f 36/48/48 35/30/30 37/32/32 38/46/46
f 52/38/38 45/44/44 47/49/49
f 33/50/50 35/30/30 36/48/48
f 36/48/48 43/47/47 48/37/37 33/50/50
f 42/43/43 41/25/25 34/51/51
f 34/51/51 41/25/25 25/27/27
f 33/50/50 26/28/28 35/30/30
f 32/39/39 52/38/38 47/49/49
f 51/35/35 44/45/45 49/41/41 52/38/38
f 50/52/52 51/35/35 52/38/38 46/40/40
f 31/36/36 51/35/35 50/52/52
f 43/47/47 51/35/35 48/37/37
f 42/43/43 34/51/51 47/49/49 45/44/44
f 43/47/47 44/45/45 51/35/35
f 49/41/41 45/44/44 52/38/38
