# Blender v2.90.0 OBJ File: 'Nature Kit.blend'
# www.blender.org
mtllib Tree_Bare_6.mtl
o Cube.080_Cube.219
v -0.238525 -0.158032 -0.043191
v 0.086182 -0.188402 -0.203154
v 0.252095 -0.144105 0.114942
v -0.072612 -0.113735 0.274904
v 0.054345 2.234959 0.382825
v 0.054345 2.234959 0.382825
v 0.054345 2.234959 0.382825
v 0.415938 3.150552 0.343353
v 0.374406 3.172087 0.467715
v 0.240129 3.184387 0.428337
v 0.291312 3.164244 0.299361
v -0.190842 0.629687 -0.114312
v 0.052729 0.633436 -0.238854
v 0.177159 0.637424 0.004765
v -0.066412 0.633676 0.129307
v -0.444559 4.248837 -0.161605
v -1.012563 5.276755 -0.222154
v -1.119541 5.160735 0.394396
v -0.926962 4.320418 0.642724
v -0.320473 3.707072 1.216251
v 0.459759 5.218688 0.626711
v 0.582600 7.189295 -0.199587
v -0.058373 7.296923 -0.215359
v 0.123095 5.836730 -0.443845
v 0.123095 5.836730 -0.443845
v 0.123095 5.836730 -0.443845
v -0.352334 5.545318 -0.221506
v 0.278010 2.160622 -0.563746
v 0.391494 2.159468 -0.494648
v 0.331549 2.223929 -0.395120
v 0.218065 2.225082 -0.464217
v 0.459504 3.833884 -0.510267
v 0.881948 4.068049 -1.395746
v 0.713924 3.729289 -1.022937
v 0.407048 3.915020 0.135266
v 0.393984 3.938993 0.277857
v 0.262577 3.935350 0.259504
v 0.285031 3.913314 0.123944
v -0.326412 3.052537 0.637914
v -0.417017 3.062054 0.635256
v -0.406190 3.121414 0.563134
v -0.317839 3.116058 0.573119
v -0.761433 3.700057 0.355847
v -0.826039 3.704673 0.291697
v -0.801948 3.741560 0.243585
v -0.734392 3.733874 0.288684
v -0.985278 4.579443 0.208072
v -1.058845 4.569697 0.196960
v -1.041917 4.617750 0.136774
v -0.986784 4.594620 0.139342
v -1.126725 5.108852 0.356334
v -1.098331 5.112305 0.360658
v -1.096004 5.099768 0.393432
v -0.990365 4.575488 0.060910
v -1.040359 4.582828 0.079912
v -0.787093 3.733815 0.194969
v -0.733741 3.724429 0.198476
v -1.021162 4.401986 0.198540
v -1.008524 4.394580 0.106663
v -0.919493 4.419571 0.116894
v -0.937484 4.425781 0.208103
v -0.741082 3.679432 0.143068
v -0.665974 3.674746 0.193879
v -0.715495 3.736744 0.228107
v -0.471834 3.060763 0.526573
v -0.428340 3.050732 0.444943
v -0.360443 3.107222 0.474177
v -0.770487 3.546062 0.310647
v -0.730406 3.527389 0.225424
v -0.662509 3.583879 0.254658
v -0.706002 3.593911 0.336289
v -0.025824 2.319541 0.483788
v -0.097912 2.346951 0.383750
v 0.039215 2.368217 0.329100
v 0.052126 2.384004 0.458260
v -0.356562 2.904983 0.580684
v -0.392085 2.902815 0.490114
v -0.305888 2.955383 0.454589
v -0.270365 2.957551 0.545159
v 0.180218 2.349065 0.317606
v 0.145163 2.335198 0.453366
v 0.084058 1.401697 -0.005066
v -0.095105 1.474759 0.117968
v -0.148737 1.583618 -0.043323
v 0.034114 1.685613 -0.046019
v -0.003430 2.082592 0.401101
v -0.066220 2.149142 0.286163
v 0.078477 2.159404 0.239590
v -0.011632 1.467213 -0.202779
v 0.017756 1.921157 0.066687
v -0.135347 1.900426 0.088103
v 0.397817 4.188272 0.291399
v 0.280547 4.201285 0.289860
v 0.276817 4.235248 0.169104
v 0.385618 4.215545 0.156035
v 0.387142 4.981391 0.581512
v 0.387332 5.014121 0.498538
v 0.475152 4.999760 0.492446
v 0.258949 4.147389 0.066374
v 0.382705 4.153806 0.052953
v 0.190969 4.741005 -0.310616
v 0.283902 4.741692 -0.337812
v 0.306286 4.794771 -0.259979
v 0.213354 4.794084 -0.232783
v 0.151997 4.900128 -0.263964
v 0.287705 4.909084 -0.377981
v 0.268553 4.917309 -0.284260
v 0.061003 5.697607 -0.376251
v 0.060991 5.685288 -0.498029
v 0.144484 5.694945 -0.494629
v 0.172537 5.694572 -0.390499
v 0.522368 7.096862 -0.264996
v 0.556386 7.078722 -0.235343
v -0.024412 7.200865 -0.211460
v 0.505357 7.109618 -0.226482
v 0.272410 6.495745 -0.366859
v 0.195003 6.505551 -0.343696
v 0.172873 6.514627 -0.421494
v 0.250281 6.504820 -0.444656
v 0.317725 6.621794 -0.371796
v 0.265567 6.624916 -0.338105
v 0.238377 6.668765 -0.358610
v 0.269182 6.649186 -0.418300
v 0.197161 6.626966 -0.325720
v 0.155699 6.636093 -0.385362
v 0.206843 6.660820 -0.409944
v 0.130025 4.884763 -0.367359
v 0.199245 4.944884 -0.374590
v 0.190632 4.959989 -0.285925
v 0.090260 1.832746 0.184004
v -0.070352 1.826328 0.242185
v 0.375068 2.866840 -0.753406
v 0.459195 2.870853 -0.704661
v 0.411740 2.901033 -0.625246
v 0.327613 2.897020 -0.673991
v 0.431159 3.058719 -0.647853
v 0.337889 3.064384 -0.661713
v 0.398235 3.067462 -0.746462
v 0.477211 3.062186 -0.720818
v 0.425184 2.978324 -0.823926
v 0.500989 2.973757 -0.770180
v 0.702708 3.267892 -1.190750
v 0.778513 3.263324 -1.137004
v 0.762585 3.352057 -1.106795
v 0.677100 3.358199 -1.149043
v 0.754715 3.449563 -1.282881
v 0.840862 3.441577 -1.264231
v 0.805037 3.454541 -1.187306
v 0.734736 3.462869 -1.216042
v 0.772270 3.404663 -1.121828
v 0.692043 3.410662 -1.161023
v 0.524814 7.087533 -0.209638
v -0.000847 7.224763 -0.230264
v -0.018876 7.220220 -0.259613
v -0.048117 7.206083 -0.245559
v 0.463809 4.967944 0.579240
v -0.272871 5.484463 -0.208392
v -0.272422 5.481822 -0.266032
v -0.322713 5.451665 -0.262712
v -0.303453 5.449698 -0.197302
v 0.139977 2.086174 0.356454
v -0.293126 3.592758 1.163318
v -0.352728 3.599018 1.161569
v -0.345606 3.638067 1.114125
v -0.287487 3.634543 1.120694
v -0.495488 4.144036 -0.137149
v -0.858075 4.226399 0.581249
v -0.910252 4.238664 0.549837
v -0.928883 4.207736 0.583951
v -0.878317 4.196320 0.630114
v -0.525887 4.179965 -0.102859
v -0.445866 4.140940 -0.103580
v -0.478584 4.181901 -0.080966
v -1.131285 5.093848 0.388615
v -0.998599 5.170176 -0.148700
v -1.034540 5.179536 -0.146204
v -1.002770 5.150487 -0.198522
v -1.035273 5.154687 -0.179457
v 0.119366 1.095719 -0.013421
v 0.003206 1.082336 -0.241165
v -0.082140 1.099873 0.100133
v -0.168276 1.122448 -0.101868
v 0.764475 3.657104 -1.084639
v 0.711271 3.667433 -1.104509
v 0.677177 3.636059 -1.057844
v 0.842547 3.968356 -1.408550
v 0.738454 3.627343 -1.030624
v 0.827880 3.984284 -1.358422
v 0.881887 3.978579 -1.336026
v 0.908682 3.961749 -1.393949
v 0.505561 3.540727 -0.612034
v 0.424256 3.546159 -0.638434
v 0.362131 3.542989 -0.551185
v 0.458151 3.537158 -0.536917
vt 0.808987 2.105327
vt 0.818252 1.904887
vt 0.827658 1.900178
vt 0.809489 2.099647
vt 0.869160 2.090168
vt 0.875256 2.085355
vt 0.919100 2.127383
vt 0.723558 1.549178
vt 0.700965 1.320024
vt 0.776921 1.340264
vt 0.801310 1.549893
vt 0.735512 0.886895
vt 0.808481 0.916265
vt 0.706214 0.936341
vt 0.532346 0.711428
vt 0.641613 0.732026
vt 0.611541 0.712587
vt 0.722830 0.932145
vt 0.784997 0.917381
vt 0.665125 0.934952
vt 0.895804 0.344875
vt 0.961361 0.344081
vt 0.996244 0.434427
vt 0.598970 0.936007
vt 0.698956 0.941112
vt 0.625320 0.981502
vt 0.735922 0.729449
vt 0.815212 0.727713
vt 0.723781 0.374035
vt 0.557340 0.438352
vt 0.800693 0.443855
vt 0.639068 0.707366
vt 0.696139 0.666087
vt 0.771766 0.709695
vt 0.620811 0.649796
vt 1.048813 1.064010
vt 0.960176 1.268482
vt 0.897034 1.288908
vt 0.923739 1.086902
vt 0.517645 0.424664
vt 0.775504 0.426767
vt 0.649591 0.445499
vt 0.763516 1.092327
vt 0.869184 1.060445
vt 0.614883 1.082705
vt 0.938411 2.083769
vt 0.650569 0.948454
vt 0.546363 0.945119
vt 0.697175 1.204517
vt 0.601961 1.212381
vt 0.708651 1.157159
vt 0.616488 1.206336
vt 0.447027 1.204336
vt 0.542483 1.218652
vt 0.620291 1.147619
vt 0.768204 1.079866
vt 0.878914 0.874869
vt 0.993812 0.853812
vt 0.850862 0.905502
vt 0.928485 0.128070
vt 1.046512 0.162037
vt 0.909831 0.425724
vt 0.983452 0.424420
vt 0.876338 1.328198
vt 0.743268 1.287182
vt 0.785540 0.667511
vt 0.732401 0.664848
vt 0.697236 0.434260
vt 0.768775 0.433045
vt 0.807204 1.266839
vt 0.918910 1.899401
vt 0.894365 0.716458
vt 1.002773 0.710437
vt 0.786070 0.717184
vt 0.660629 0.722719
vt 0.995002 0.709594
vt 0.908948 0.737950
vt 0.766722 0.736501
vt 0.592599 1.125200
vt 0.507676 1.124563
vt 0.563242 1.164096
vt 0.819445 1.896601
vt 0.862730 1.851654
vt 0.927950 1.896311
vt 0.715349 1.894097
vt 0.891436 0.924968
vt 0.988673 0.922064
vt 0.783158 0.906764
vt 0.944664 0.666643
vt 0.579032 0.890239
vt 0.606290 0.935619
vt 0.715148 0.037157
vt 0.532450 0.022953
vt 0.550850 0.153489
vt 0.714793 0.180733
vt 0.660340 0.739232
vt 0.954471 0.712399
vt 0.890410 0.663993
vt 0.732329 1.890615
vt 0.743347 2.101873
vt 0.747958 2.098591
vt 0.487994 0.924797
vt 0.496154 0.925815
vt 0.693814 0.868480
vt 0.537382 0.874559
vt 0.957485 0.923074
vt 1.086855 0.920688
vt 0.772201 0.666893
vt 0.585661 0.937620
vt 0.965564 0.272112
vt 0.719479 0.289302
vt 0.832289 0.981641
vt 0.631305 0.990326
vt 0.961499 1.573439
vt 0.858543 1.566801
vt 0.797418 1.848755
vt 0.925321 1.848313
vt 0.775032 2.131759
vt 0.781385 0.992919
vt 0.573211 0.268006
vt 0.682098 1.405762
vt 0.623995 1.402641
vt 0.623969 1.442788
vt 0.847519 0.221883
vt 0.916233 0.267131
vt 0.588642 0.346260
vt 0.979283 0.983322
vt 0.890947 1.005795
vt 0.784116 1.001504
vt 0.893078 1.332691
vt 0.715716 1.576517
vt 0.543724 0.648852
vt 0.947691 0.851799
vt 0.534771 1.395089
vt 0.563135 1.395441
vt 0.777697 1.547971
vt 0.787715 1.584112
vt 0.489055 1.151439
vt 0.571881 1.160567
vt 0.516113 1.209063
vt 0.614392 1.409308
vt 0.795488 1.311264
vt 1.012161 1.323065
vt 0.734186 1.852089
vt 0.810063 0.871039
vt 0.833703 0.740536
vt 0.483286 1.394277
vt 0.520047 1.395151
vt 0.851724 1.106132
vt 0.902256 1.107599
vt 0.920691 1.137684
vt 0.496834 1.123049
vt 0.598324 1.120899
vt 1.002266 1.106954
vt 0.569560 1.408207
vt 0.754744 1.105219
vt 0.654923 1.103970
vt 0.700742 1.141848
vt 0.671677 1.108829
vt 0.768513 1.107558
vt 0.927590 1.104505
vt 0.875821 1.579355
vt 0.844087 -0.324257
vt 1.056847 -0.382776
vt 1.053077 -0.115848
vt 0.824631 -0.136425
vt 0.793997 0.894091
vt 0.942137 0.895245
vt 0.810367 0.993718
vt 1.053432 0.031242
vt 0.832609 0.018458
vt 0.518053 -0.132319
vt 0.526085 1.414930
vt 0.784952 -0.413068
vt 0.741491 -0.166085
vt 0.831259 0.996015
vt 0.934642 0.999974
vt 0.843895 1.029787
vt 0.488714 -0.385778
vt 0.710335 1.391175
vt 0.811877 1.384799
vt 0.948811 1.388242
vt 0.949077 2.082421
vt 0.853232 1.548842
vt 0.827719 1.395423
vt 0.683934 0.895946
vt 0.864424 0.896957
vt 0.839983 1.477603
vn 0.8535 0.4665 0.2322
vn 0.0928 0.8650 0.4930
vn -0.0507 0.4313 -0.9007
vn 0.1421 0.4206 -0.8960
vn -0.7983 0.5525 0.2397
vn -0.0251 -0.1775 0.9838
vn 0.4731 0.8290 0.2981
vn -0.4425 -0.2573 0.8591
vn -0.4375 -0.1768 0.8816
vn 0.1287 0.3333 0.9340
vn 0.5357 0.5875 0.6065
vn 0.9407 0.1439 -0.3072
vn 0.9755 -0.1915 -0.1084
vn 0.7765 0.3733 0.5076
vn -0.7117 -0.3087 0.6309
vn -0.3727 0.8964 0.2399
vn -0.9259 -0.2702 0.2639
vn -0.1738 -0.9847 0.0092
vn -0.2980 -0.3287 -0.8961
vn -0.7827 -0.0040 -0.6224
vn 0.8517 -0.3694 0.3717
vn 0.3852 0.2914 -0.8756
vn 0.8190 -0.0701 -0.5694
vn 0.6324 -0.4102 0.6570
vn 0.7849 0.5208 -0.3355
vn -0.0033 0.7648 0.6443
vn 0.7875 0.5510 -0.2761
vn 0.6905 0.4313 -0.5806
vn -0.9221 0.2421 -0.3018
vn -0.9144 -0.2055 -0.3488
vn -0.1961 0.3369 -0.9209
vn 0.6545 -0.3321 0.6792
vn 0.8858 0.2200 0.4086
vn -0.3454 -0.3552 -0.8686
vn -0.8142 -0.4201 -0.4006
vn 0.6848 -0.2388 -0.6885
vn 0.5695 -0.2902 -0.7690
vn 0.8409 0.3252 0.4325
vn 0.9560 0.2649 -0.1257
vn -0.2856 -0.2841 0.9152
vn 0.5702 -0.1718 0.8033
vn 0.0939 0.3715 0.9236
vn -0.9118 0.4040 0.0731
vn -0.7998 -0.2710 -0.5356
vn -0.7521 -0.0882 0.6531
vn 0.0240 0.4174 -0.9084
vn -0.6030 0.6668 -0.4379
vn -0.7444 -0.2849 0.6038
vn 0.4852 -0.1217 -0.8659
vn 0.9337 0.3580 0.0043
vn 0.8361 0.1396 -0.5305
vn -0.8400 -0.1799 -0.5118
vn -0.8386 -0.1976 0.5076
vn -0.9035 0.3930 -0.1709
vn -0.5424 -0.2833 -0.7909
vn 0.7215 -0.1640 0.6726
vn 0.4835 0.3157 0.8164
vn 0.8167 -0.5699 -0.0904
vn 0.4516 -0.0397 0.8913
vn 0.9495 -0.1201 0.2897
vn -0.1814 -0.2588 -0.9487
vn -0.1505 -0.3336 -0.9306
vn 0.9539 -0.2728 -0.1253
vn 0.7472 0.2523 0.6149
vn -0.4978 0.2225 0.8383
vn 0.3179 0.1422 0.9374
vn -0.9669 0.1670 0.1930
vn -0.9308 0.3528 0.0954
vn 0.3110 0.3613 0.8790
vn -0.7418 -0.4318 -0.5130
vn 0.2203 0.3268 -0.9190
vn -0.5215 -0.0346 -0.8525
vn 0.8693 -0.1827 -0.4592
vn 0.5622 0.0148 0.8269
vn -0.7866 0.1774 0.5914
vn 0.8518 -0.5236 0.0132
vn 0.8708 0.2611 0.4165
vn 0.4129 -0.1147 0.9035
vn -0.3087 0.5724 -0.7596
vn -0.9714 -0.1827 0.1517
vn -0.2699 0.8450 0.4616
vn 0.2105 -0.0817 0.9742
vn 0.8618 -0.1935 0.4688
vn 0.9378 -0.3434 0.0506
vn -0.2687 -0.1162 0.9562
vn -0.8371 0.4375 -0.3284
vn -0.4437 -0.2276 -0.8667
vn -0.9831 0.0804 0.1642
vn 0.9459 -0.2951 -0.1350
vn 0.2649 0.3095 0.9132
vn 0.9055 0.2725 0.3253
vn -0.9629 0.0268 -0.2684
vn -0.3237 0.0289 0.9457
vn -0.5226 -0.2919 0.8010
vn -0.9749 -0.0327 -0.2201
vn -0.9436 0.0703 0.3236
vn -0.4154 -0.4213 -0.8061
vn -0.3481 -0.2720 -0.8971
vn -0.9459 -0.1093 -0.3056
vn -0.1785 -0.1627 0.9704
vn -0.9503 -0.1453 -0.2752
vn 0.2050 -0.1596 0.9656
vn -0.9118 -0.3790 0.1578
vn -0.3145 -0.5086 -0.8015
vn -0.8937 -0.3497 0.2810
vn 0.8822 0.1759 0.4367
vn 0.8560 -0.3424 -0.3872
vn 0.4337 0.2459 -0.8668
vn -0.6223 0.0482 -0.7813
vn 0.3885 0.4466 -0.8060
vn -0.8540 0.3492 -0.3856
vn -0.6081 -0.2088 -0.7659
vn -0.8332 0.0301 0.5521
vn 0.5444 -0.0125 -0.8387
vn -0.7516 -0.0483 -0.6578
vn -0.8032 0.1074 -0.5860
vn 0.4671 -0.0022 -0.8842
vn -0.3770 0.8979 0.2274
vn 0.6357 0.0562 0.7698
vn -0.4643 -0.3488 0.8141
vn 0.4692 -0.2448 -0.8484
vn -0.8515 -0.1330 -0.5071
vn 0.0353 0.9009 -0.4326
vn 0.6709 0.7239 0.1607
vn 0.9270 -0.2270 0.2985
vn -0.3417 -0.4102 0.8456
vn 0.7919 -0.1548 -0.5906
vn -0.3136 0.6024 -0.7340
vn -0.9518 -0.0016 0.3065
vn -0.1713 0.0350 -0.9846
vn -0.6949 0.0152 0.7189
vn -0.3576 -0.4376 0.8250
vn -0.3187 -0.4914 -0.8105
vn -0.6079 0.3796 -0.6974
vn 0.6879 0.5000 -0.5262
vn -0.7883 -0.2575 -0.5588
vn -0.5934 0.7946 0.1279
vn -0.8058 -0.1722 0.5665
vn 0.5773 0.2442 0.7791
vn 0.6748 0.0626 0.7353
vn 0.7775 0.3524 0.5208
vn -0.6454 -0.4132 -0.6424
vn 0.6771 -0.0605 -0.7334
vn -0.5019 -0.0869 0.8605
vn -0.8707 0.4908 -0.0314
vn -0.6715 0.4148 -0.6140
vn -0.7976 -0.1347 0.5880
vn 0.6332 0.0327 0.7733
vn -0.8337 0.4317 0.3442
vn 0.4078 0.3410 0.8470
vn 0.1596 0.9632 -0.2162
vn 0.2208 -0.2477 0.9433
vn 0.8838 0.4577 -0.0972
vn 0.8852 -0.0283 -0.4644
vn -0.6370 0.4668 0.6134
vn -0.1645 -0.3087 -0.9368
vn -0.7986 0.5993 -0.0544
vn 0.3734 0.7824 -0.4985
vn 0.2591 0.5823 0.7705
vn 0.9612 -0.2725 -0.0414
vn -0.4802 0.0630 -0.8748
vn 0.8033 0.0451 0.5938
vn 0.9522 0.1290 0.2768
vn 0.3195 -0.0255 -0.9472
vn 0.2974 0.0194 -0.9545
vn 0.9536 0.1251 0.2738
vn 0.4098 -0.1547 0.8989
vn 0.9388 0.1284 -0.3196
vn 0.0779 0.9672 0.2417
vn 0.2104 0.0981 -0.9727
vn 0.9563 0.0972 0.2758
vn -0.3118 0.1308 0.9411
vn -0.1118 0.9407 0.3203
vn -0.9429 0.0260 -0.3320
vn -0.9476 0.0141 -0.3191
vn 0.3241 -0.1752 0.9296
vn 0.8711 0.4535 -0.1885
vn -0.0871 0.8712 0.4831
vn -0.2983 0.1844 0.9365
vn -0.6923 -0.0538 0.7196
vn 0.6700 -0.2268 0.7069
vn 0.7281 0.2939 -0.6193
vn 0.9369 -0.3495 -0.0004
vn 0.3464 0.6180 -0.7057
vn -0.6866 0.4549 -0.5671
vn -0.9121 0.0943 0.3989
vn -0.2949 0.3153 -0.9020
vn 0.1278 0.9227 0.3636
usemtl Bark_Oak
s 1
f 153/1/1 122/2/2 126/3/3 154/4/4
f 115/5/5 152/6/6 22/7/7
f 160/8/8 105/9/9 129/10/10 157/11/11
f 70/12/12 63/13/13 64/14/14
f 40/15/15 41/16/16 65/17/17
f 57/18/18 62/19/19 56/20/20
f 161/21/21 88/22/22 80/23/23
f 162/24/24 165/25/25 20/26/26
f 42/27/27 67/28/28 41/16/16
f 87/29/29 73/30/30 74/31/31
f 42/27/27 39/32/32 79/33/33
f 65/17/17 66/34/34 77/35/35
f 100/36/36 102/37/37 103/38/38 95/39/39
f 72/40/40 81/41/41 75/42/42
f 94/43/43 99/44/44 93/45/45
f 112/46/46 115/5/5 22/7/7
f 164/47/47 163/48/48 20/26/26
f 54/49/49 50/50/50 60/51/51
f 55/52/52 48/53/53 49/54/54
f 59/55/55 54/49/49 60/51/51
f 100/36/36 95/39/39 92/56/56
f 144/57/57 143/58/58 150/59/59
f 82/60/60 89/61/61 28/62/62 29/63/63
f 103/38/38 107/64/64 105/9/9 104/65/65
f 134/66/66 135/67/67 31/68/68 30/69/69
f 101/70/70 102/37/37 100/36/36 99/44/44
f 126/3/3 122/2/2 123/71/71
f 107/64/64 129/10/10 105/9/9
f 80/23/23 74/31/31 11/72/72 8/73/73
f 75/42/42 81/41/41 9/74/74 10/75/75
f 141/76/76 139/77/77 136/78/78
f 168/79/79 169/80/80 19/81/81
f 64/14/14 56/20/20 57/18/18
f 121/82/82 116/83/83 120/84/84
f 124/85/85 121/82/82 122/2/2
f 149/86/86 146/87/87 151/88/88
f 30/69/69 29/63/63 133/89/89 134/66/66
f 71/90/90 70/12/12 64/14/14 46/91/91
f 182/92/92 181/93/93 83/94/94 84/95/95
f 135/67/67 137/96/96 140/97/97 132/98/98
f 125/99/99 124/85/85 114/100/100 155/101/101
f 43/102/102 71/90/90 46/91/91
f 44/103/103 62/19/19 69/104/104 68/105/105
f 154/4/4 126/3/3 125/99/99 155/101/101
f 148/106/106 150/59/59 147/107/107
f 79/33/33 78/108/108 67/28/28 42/27/27
f 46/91/91 44/103/103 45/109/109
f 90/110/110 91/111/111 87/29/29 88/22/22
f 99/44/44 38/112/112 37/113/113 93/45/45
f 110/114/114 109/115/115 118/116/116 119/117/117
f 23/118/118 114/100/100 153/1/1
f 37/113/113 36/119/119 92/56/56 93/45/45
f 84/95/95 83/94/94 131/120/120 91/111/111
f 56/20/20 62/19/19 44/103/103
f 177/121/121 178/122/122 17/123/123
f 82/60/60 85/124/124 90/110/110 130/125/125
f 86/126/126 72/40/40 73/30/30 87/29/29
f 100/36/36 35/127/127 38/112/112 99/44/44
f 88/22/22 87/29/29 74/31/31
f 83/94/94 82/60/60 130/125/125 131/120/120
f 184/128/128 149/86/86 151/88/88 185/129/129
f 128/130/130 129/10/10 108/131/131 109/115/115
f 73/30/30 72/40/40 76/132/132 77/35/35
f 147/107/107 143/58/58 142/133/133 146/87/87
f 50/50/50 49/54/54 51/134/134 52/135/135
f 8/73/73 35/127/127 36/119/119 9/74/74
f 159/136/136 160/8/8 27/137/137
f 91/111/111 131/120/120 86/126/126 87/29/29
f 48/53/53 58/138/138 61/139/139 47/140/140
f 140/97/97 141/76/76 133/89/89 132/98/98
f 69/104/104 62/19/19 63/13/13 70/12/12
f 175/141/141 177/121/121 17/123/123
f 127/142/142 101/70/70 104/65/65 105/9/9
f 68/105/105 71/90/90 43/102/102 44/103/103
f 39/32/32 40/15/15 76/132/132 79/33/33
f 67/28/28 78/108/108 77/35/35 66/34/34
f 106/143/143 107/64/64 103/38/38 102/37/37
f 86/126/126 161/21/21 81/41/41 72/40/40
f 50/50/50 47/140/140 61/139/139
f 117/144/144 116/83/83 121/82/82 124/85/85
f 118/116/116 117/144/144 124/85/85 125/99/99
f 119/117/117 123/71/71 120/84/84 116/83/83
f 59/55/55 55/52/52 54/49/49
f 150/59/59 151/88/88 145/145/145 144/57/57
f 75/42/42 74/31/31 78/108/108 79/33/33
f 56/20/20 44/103/103 45/109/109
f 94/43/43 95/39/39 103/38/38 104/65/65
f 138/146/146 139/77/77 144/57/57 145/145/145
f 174/147/147 48/53/53 47/140/140 53/148/148
f 44/103/103 46/91/91 61/139/139 58/138/138
f 126/3/3 118/116/116 125/99/99
f 188/149/149 189/150/150 33/151/151
f 170/152/152 167/153/153 19/81/81
f 189/150/150 148/106/106 147/107/107 190/154/154
f 176/155/155 175/141/141 17/123/123
f 166/156/156 171/157/157 16/158/158
f 173/159/159 172/160/160 16/158/158
f 171/157/157 56/20/20 64/14/14 173/159/159
f 167/153/153 168/79/79 19/81/81
f 190/154/154 186/161/161 33/151/151
f 84/95/95 85/124/124 30/69/69 31/68/68
f 129/10/10 107/64/64 111/162/162 108/131/131
f 74/31/31 73/30/30 77/35/35 78/108/108
f 99/44/44 94/43/43 104/65/65 101/70/70
f 59/55/55 58/138/138 48/53/53 55/52/52
f 10/75/75 9/74/74 36/119/119 37/113/113
f 11/72/72 10/75/75 37/113/113 38/112/112
f 3/163/163 2/164/164 13/165/165 14/166/166
f 194/167/167 191/168/168 32/169/169
f 28/62/62 89/61/61 84/95/95 31/68/68
f 180/170/170 179/171/171 14/166/166 13/165/165
f 132/98/98 133/89/89 29/63/63 28/62/62
f 179/171/171 181/93/93 15/172/172 14/166/166
f 53/148/148 52/135/135 18/173/173
f 134/66/66 133/89/89 141/76/76 136/78/78
f 2/164/164 1/174/174 12/175/175 13/165/165
f 187/176/176 183/177/177 34/178/178
f 4/179/179 3/163/163 14/166/166 15/172/172
f 96/180/180 93/45/45 92/56/56 156/181/181
f 49/54/54 48/53/53 174/147/147 51/134/134
f 52/135/135 51/134/134 18/173/173
f 156/181/181 92/56/56 95/39/39 98/182/182
f 71/90/90 68/105/105 65/17/17 41/16/16
f 74/31/31 75/42/42 10/75/75 11/72/72
f 111/162/162 110/114/114 119/117/117 116/83/83
f 106/143/143 128/130/130 109/115/115 110/114/114
f 110/114/114 111/162/162 107/64/64 106/143/143
f 109/115/115 108/131/131 117/144/144 118/116/116
f 116/83/83 117/144/144 108/131/131 111/162/162
f 51/134/134 174/147/147 18/173/173
f 35/127/127 100/36/36 92/56/56
f 152/6/6 113/183/183 22/7/7
f 64/14/14 56/20/20 59/55/55 60/51/51
f 113/183/183 112/46/46 22/7/7
f 114/100/100 124/85/85 122/2/2 153/1/1
f 46/91/91 64/14/14 60/51/51 61/139/139
f 155/101/101 114/100/100 23/118/118
f 157/11/11 158/184/184 27/137/137
f 119/117/117 118/116/116 126/3/3 123/71/71
f 72/40/40 75/42/42 79/33/33 76/132/132
f 41/16/16 67/28/28 70/12/12 71/90/90
f 8/73/73 11/72/72 38/112/112 35/127/127
f 172/160/160 166/156/156 16/158/158
f 186/161/161 188/149/149 33/151/151
f 96/180/180 97/185/185 94/43/43 93/45/45
f 150/59/59 143/58/58 147/107/107
f 180/170/170 182/92/92 84/95/95 89/61/61
f 95/39/39 94/43/43 97/185/185 98/182/182
f 81/41/41 80/23/23 8/73/73 9/74/74
f 1/174/174 4/179/179 15/172/172 12/175/175
f 77/35/35 76/132/132 40/15/15 65/17/17
f 67/28/28 66/34/34 69/104/104 70/12/12
f 193/186/186 137/96/96 136/78/78 194/167/167
f 183/177/177 148/106/106 149/86/86 184/128/128
f 163/48/48 162/24/24 20/26/26
f 141/76/76 140/97/97 142/133/133 143/58/58
f 191/168/168 192/187/187 32/169/169
f 169/80/80 44/103/103 43/102/102 170/152/152
f 178/122/122 176/155/155 17/123/123
f 127/142/142 106/143/143 102/37/37 101/70/70
f 165/25/25 164/47/47 20/26/26
f 158/184/184 159/136/136 27/137/137
f 185/129/129 187/176/176 34/178/178
f 120/84/84 123/71/71 112/46/46 113/183/183
f 121/82/82 120/84/84 113/183/183 152/6/6
f 23/118/118 154/4/4 155/101/101
f 123/71/71 122/2/2 115/5/5 112/46/46
f 122/2/2 121/82/82 152/6/6 115/5/5
f 23/118/118 153/1/1 154/4/4
f 128/130/130 106/143/143 127/142/142
f 21/188/188 156/181/181 98/182/182
f 21/188/188 96/180/180 156/181/181
f 97/185/185 96/180/180 21/188/188
f 98/182/182 97/185/185 21/188/188
f 36/119/119 35/127/127 92/56/56
f 128/130/130 127/142/142 159/136/136 158/184/184
f 129/10/10 128/130/130 158/184/184 157/11/11
f 127/142/142 105/9/9 160/8/8 159/136/136
f 27/137/137 160/8/8 157/11/11
f 130/125/125 90/110/110 88/22/22 161/21/21
f 131/120/120 130/125/125 161/21/21 86/126/126
f 80/23/23 88/22/22 74/31/31
f 42/27/27 41/16/16 164/47/47 165/25/25
f 40/15/15 39/32/32 162/24/24 163/48/48
f 41/16/16 40/15/15 163/48/48 164/47/47
f 39/32/32 42/27/27 165/25/25 162/24/24
f 66/34/34 65/17/17 68/105/105 69/104/104
f 19/81/81 169/80/80 170/152/152
f 63/13/13 62/19/19 166/156/156 172/160/160
f 46/91/91 45/109/109 168/79/79 167/153/153
f 16/158/158 171/157/157 173/159/159
f 64/14/14 63/13/13 172/160/160 173/159/159
f 62/19/19 56/20/20 171/157/157 166/156/156
f 43/102/102 46/91/91 167/153/153 170/152/152
f 45/109/109 44/103/103 169/80/80 168/79/79
f 56/20/20 44/103/103 58/138/138 59/55/55
f 60/51/51 50/50/50 61/139/139
f 47/140/140 50/50/50 52/135/135 53/148/148
f 18/173/173 174/147/147 53/148/148
f 55/52/52 49/54/54 176/155/155 178/122/122
f 49/54/54 50/50/50 175/141/141 176/155/155
f 50/50/50 54/49/49 177/121/121 175/141/141
f 54/49/49 55/52/52 178/122/122 177/121/121
f 85/124/124 84/95/95 91/111/111 90/110/110
f 84/95/95 89/61/61 83/94/94
f 13/165/165 12/175/175 182/92/92 180/170/170
f 82/60/60 83/94/94 181/93/93 179/171/171
f 89/61/61 82/60/60 179/171/171 180/170/170
f 12/175/175 15/172/172 181/93/93 182/92/92
f 85/124/124 82/60/60 29/63/63 30/69/69
f 132/98/98 28/62/62 31/68/68 135/67/67
f 137/96/96 135/67/67 134/66/66 136/78/78
f 139/77/77 141/76/76 143/58/58 144/57/57
f 142/133/133 140/97/97 138/146/146 145/145/145
f 192/187/187 138/146/146 137/96/96 193/186/186
f 140/97/97 137/96/96 138/146/146
f 142/133/133 145/145/145 151/88/88
f 146/87/87 142/133/133 151/88/88
f 151/88/88 150/59/59 187/176/176 185/129/129
f 34/178/178 183/177/177 184/128/128
f 146/87/87 149/86/86 188/149/149 186/161/161
f 150/59/59 148/106/106 183/177/177 187/176/176
f 147/107/107 146/87/87 186/161/161 190/154/154
f 33/151/151 189/150/150 190/154/154
f 149/86/86 148/106/106 189/150/150 188/149/149
f 34/178/178 184/128/128 185/129/129
f 81/41/41 161/21/21 80/23/23
f 32/169/169 192/187/187 193/186/186
f 139/77/77 138/146/146 192/187/187 191/168/168
f 32/169/169 193/186/186 194/167/167
f 136/78/78 139/77/77 191/168/168 194/167/167
